<svg width="346" height="416" viewBox="0 0 346 416" fill="none" xmlns="http://www.w3.org/2000/svg">
<path d="M335.792 322.266C302.026 339.525 276.899 376.395 268.261 421.894H265.905C257.267 377.964 233.71 341.878 201.515 323.835C193.663 290.888 188.951 253.233 188.951 226.561C188.951 172.433 207.797 126.15 235.281 104.969L226.643 92.4177C192.877 109.676 167.75 146.546 159.112 192.045H155.971C147.333 147.33 122.991 111.245 90.7958 93.9866C82.1581 60.2546 77.4466 22.6002 77.4466 -4.85619C77.4466 -58.9844 96.2925 -105.268 123.776 -126.449L115.138 -139C81.3729 -121.742 56.2451 -84.8718 47.6074 -39.3727H45.2516C36.6139 -84.8718 10.7009 -122.526 -22.2793 -139L-30.917 -126.449C-3.43348 -105.268 15.4124 -58.9844 15.4124 -4.85619C15.4124 49.272 10.7009 60.2546 2.06323 93.9866C-30.1318 111.245 -54.4743 148.115 -63.112 192.045H-66.253C-74.8906 146.546 -100.804 108.891 -133.784 92.4177L-142.422 104.969C-114.938 126.15 -96.0922 172.433 -96.0922 226.561C-96.0922 280.69 -100.804 290.888 -108.656 323.835C-140.066 341.878 -164.408 377.964 -173.046 421.894H-175.402C-184.04 376.395 -209.953 338.74 -242.933 322.266L-250 334.818C-222.516 355.999 -203.671 402.282 -203.671 456.41C-203.671 483.867 -208.382 522.305 -217.02 555.253H-198.174C-184.04 521.521 -173.831 484.651 -173.831 456.41H-171.476C-171.476 484.651 -162.053 521.521 -147.133 555.253H-128.287C-136.925 521.521 -141.636 483.867 -141.636 456.41C-141.636 382.67 -106.3 323.051 -62.3268 323.051C-18.3531 323.051 16.9829 382.67 16.9829 456.41C16.9829 530.15 12.2714 522.305 3.63372 555.253H22.4796C36.614 521.521 46.8221 484.651 46.8221 456.41H49.1779C49.1779 484.651 58.6008 521.521 73.5204 555.253H92.3663C83.7286 521.521 79.0171 483.867 79.0171 456.41C79.0171 382.67 114.353 323.051 158.327 323.051C202.3 323.051 237.636 382.67 237.636 456.41C237.636 530.15 232.925 522.305 224.287 555.253H243.133C257.267 521.521 267.476 484.651 267.476 456.41H269.831C269.831 484.651 279.254 521.521 294.174 555.253H313.02C304.382 521.521 299.671 483.867 299.671 456.41C299.671 402.282 318.516 355.999 346 334.818L337.362 322.266H335.792ZM157.541 200.674C157.541 200.674 157.541 201.459 157.541 202.243C157.541 202.243 157.541 201.459 157.541 200.674ZM46.0369 -4.85619H48.3926C48.3926 21.0312 56.2451 53.9788 68.809 85.3575C61.7418 83.7885 54.6746 83.0041 47.6074 83.0041C40.5402 83.0041 33.473 83.7885 26.4058 85.3575C38.9697 53.9788 46.8221 21.0312 46.8221 -4.85619H46.0369ZM-63.112 200.674C-63.112 200.674 -63.112 201.459 -63.112 202.243C-63.112 202.243 -63.112 201.459 -63.112 200.674ZM-63.112 312.068C-70.1792 312.068 -78.0316 312.853 -85.0988 314.422C-73.3202 283.828 -65.4677 251.664 -65.4677 226.561H-62.3268C-62.3268 251.664 -54.4743 283.828 -42.6957 314.422C-49.7629 312.853 -56.0448 312.068 -63.112 312.068ZM113.568 323.051C81.3729 340.309 56.2451 377.179 48.3926 421.894H46.8221C38.1844 377.179 13.8419 341.094 -18.3531 323.051C-26.2055 290.103 -30.917 253.233 -30.917 226.561C-30.917 152.822 4.41897 93.2021 48.3926 93.2021C92.3663 93.2021 127.702 152.822 127.702 226.561C127.702 300.301 122.991 290.103 115.138 323.051H113.568ZM156.756 312.068C149.689 312.068 142.622 312.853 136.34 314.422C148.119 283.828 155.971 251.664 155.971 226.561H159.112C159.112 251.664 166.964 283.828 178.743 314.422C171.676 312.853 164.609 312.068 156.756 312.068Z" fill="#1A5CA2"/>
<path d="M46.8221 368.548L75.0909 326.187H19.3386L46.8221 368.548Z" fill="#1A5CA2"/>
<path d="M294.174 326.187H238.421L266.69 368.548L294.174 326.187Z" fill="#1A5CA2"/>
<path d="M185.811 96.3423H130.058L157.542 138.704L185.811 96.3423Z" fill="#1A5CA2"/>
<path d="M-13.6991 251.002C-13.6991 260.724 -11.4532 266.707 -9.95588 277.178C28.9733 275.682 67.9025 275.682 106.832 277.178C108.329 266.707 109.826 260.724 110.575 251.002C69.3998 248.758 28.2247 248.758 -12.9504 251.002H-13.6991Z" fill="#1A5CA2"/>
<path d="M200.412 282.414C243.833 285.405 287.254 290.641 330.675 296.624V286.153C286.505 273.439 241.587 263.716 196.669 256.985C197.417 265.212 198.914 274.187 200.412 283.162V282.414Z" fill="#1A5CA2"/>
<path d="M94.854 59.5408C137.526 61.7845 180.947 68.5156 222.871 77.4904V67.0198C180.947 47.5745 136.778 39.3476 91.1108 34.1123C91.8595 43.835 93.3568 49.0703 94.854 58.7929V59.5408Z" fill="#1A5CA2"/>
<path d="M5.0173 34.1123C-39.901 38.5997 -84.8192 46.8266 -126.743 67.0198V77.4904C-84.8192 67.7677 -41.3982 61.7845 1.27412 59.5408C2.77141 49.8181 4.26866 43.835 5.0173 34.8602V34.1123Z" fill="#1A5CA2"/>
</svg>
