<svg width="167" height="300" viewBox="0 0 167 300" fill="none" xmlns="http://www.w3.org/2000/svg">
<path d="M160.882 243.173C143.081 252.271 129.834 271.708 125.28 295.695H124.038C119.485 272.536 107.066 253.512 90.0929 244C85.9532 226.631 83.4694 206.78 83.4694 192.719C83.4694 164.183 93.4047 139.783 107.894 128.617L103.34 122C85.5393 131.098 72.2923 150.536 67.7386 174.522H66.0827C61.5291 150.949 48.696 131.925 31.7233 122.827C27.1697 105.044 24.6858 85.1932 24.6858 70.7187C24.6858 42.1831 34.6211 17.7831 49.11 6.61695L44.5564 0C26.7557 9.09831 13.5087 28.5356 8.95503 52.522H7.7131C3.15945 28.5356 -10.5015 8.68475 -27.8882 0L-32.4419 6.61695C-17.953 17.7831 -8.01772 42.1831 -8.01772 70.7187C-8.01772 99.2542 -10.5015 105.044 -15.0552 122.827C-32.0279 131.925 -44.8609 151.363 -49.4146 174.522H-51.0705C-55.6241 150.536 -69.2851 130.685 -86.6718 122L-91.2255 128.617C-76.7365 139.783 -66.8013 164.183 -66.8013 192.719C-66.8013 221.254 -69.2851 226.631 -73.4248 244C-89.9836 253.512 -102.817 272.536 -107.37 295.695H-108.612C-113.166 271.708 -126.827 251.858 -144.213 243.173L-147.939 249.79C-133.45 260.956 -123.515 285.356 -123.515 313.892C-123.515 328.366 -125.999 348.631 -130.553 366H-120.617C-113.166 348.217 -107.784 328.78 -107.784 313.892H-106.542C-106.542 328.78 -101.575 348.217 -93.7093 366H-83.774C-88.3277 348.217 -90.8115 328.366 -90.8115 313.892C-90.8115 275.017 -72.1829 243.586 -49.0006 243.586C-25.8184 243.586 -7.18977 275.017 -7.18977 313.892C-7.18977 352.766 -9.67358 348.631 -14.2272 366H-4.29198C3.15945 348.217 8.54105 328.78 8.54105 313.892H9.78296C9.78296 328.78 14.7506 348.217 22.616 366H32.5512C27.9976 348.217 25.5138 328.366 25.5138 313.892C25.5138 275.017 44.1424 243.586 67.3246 243.586C90.5069 243.586 109.135 275.017 109.135 313.892C109.135 352.766 106.652 348.631 102.098 366H112.033C119.485 348.217 124.866 328.78 124.866 313.892H126.108C126.108 328.78 131.076 348.217 138.941 366H148.877C144.323 348.217 141.839 328.366 141.839 313.892C141.839 285.356 151.774 260.956 166.263 249.79L161.71 243.173H160.882ZM66.9107 179.071C66.9107 179.071 66.9107 179.485 66.9107 179.898C66.9107 179.898 66.9107 179.485 66.9107 179.071ZM8.12709 70.7187H9.36899C9.36899 84.3661 13.5087 101.736 20.1322 118.278C16.4064 117.451 12.6807 117.037 8.95503 117.037C5.22931 117.037 1.50359 117.451 -2.22214 118.278C4.40137 101.736 8.54105 84.3661 8.54105 70.7187H8.12709ZM-49.4146 179.071C-49.4146 179.071 -49.4146 179.485 -49.4146 179.898C-49.4146 179.898 -49.4146 179.485 -49.4146 179.071ZM-49.4146 237.797C-53.1403 237.797 -57.28 238.21 -61.0057 239.037C-54.7962 222.908 -50.6565 205.953 -50.6565 192.719H-49.0006C-49.0006 205.953 -44.8609 222.908 -38.6514 239.037C-42.3771 238.21 -45.6889 237.797 -49.4146 237.797ZM43.7284 243.586C26.7557 252.685 13.5087 272.122 9.36899 295.695H8.54105C3.9874 272.122 -8.84564 253.098 -25.8184 243.586C-29.9581 226.217 -32.4419 206.78 -32.4419 192.719C-32.4419 153.844 -13.8133 122.414 9.36899 122.414C32.5513 122.414 51.1798 153.844 51.1798 192.719C51.1798 231.593 48.696 226.217 44.5564 243.586H43.7284ZM66.4967 237.797C62.771 237.797 59.0453 238.21 55.7335 239.037C61.9431 222.908 66.0827 205.953 66.0827 192.719H67.7386C67.7386 205.953 71.8783 222.908 78.0878 239.037C74.3621 238.21 70.6364 237.797 66.4967 237.797Z" fill="#1A5CA2"/>
<path d="M8.54141 267.571L23.4443 245.239H-5.94751L8.54141 267.571Z" fill="#1A5CA2"/>
<path d="M138.941 245.239H109.549L124.452 267.571L138.941 245.239Z" fill="#1A5CA2"/>
<path d="M23.0303 2.06543H-5.94751L8.5414 24.8112L23.0303 2.06543Z" fill="#1A5CA2"/>
<path d="M81.8139 124.068H52.4221L66.911 146.401L81.8139 124.068Z" fill="#1A5CA2"/>
<path d="M-23.365 205.603C-23.365 210.729 -22.181 213.883 -21.3916 219.403C-0.86875 218.614 19.6541 218.614 40.177 219.403C40.9664 213.883 41.7557 210.729 42.1504 205.603C20.4435 204.42 -1.26342 204.42 -22.9703 205.603H-23.365Z" fill="#1A5CA2"/>
<path d="M89.5112 222.164C112.402 223.741 135.293 226.501 158.184 229.655V224.135C134.898 217.432 111.218 212.307 87.5378 208.758C87.9325 213.095 88.7219 217.827 89.5112 222.558V222.164Z" fill="#1A5CA2"/>
<path d="M33.8628 104.667C56.359 105.85 79.2499 109.399 101.351 114.13V108.61C79.2499 98.3588 55.9643 94.0217 31.8894 91.2617C32.2841 96.3874 33.0734 99.1473 33.8628 104.273V104.667Z" fill="#1A5CA2"/>
</svg>
