<svg width="551" height="64" viewBox="0 0 551 64" fill="none" xmlns="http://www.w3.org/2000/svg">
<path d="M238.441 0H237.108V63.9421H238.441V0Z" fill="#C8C7C7"/>
<path d="M295.415 64C277.737 64 263.364 49.6492 263.364 32C263.364 14.3508 277.737 0 295.415 0C313.092 0 327.466 14.3508 327.466 32C327.466 49.6492 313.092 64 295.415 64ZM295.415 0.75226C278.433 0.75226 265.392 15.0452 265.392 32C265.392 48.9548 278.433 62.1483 295.415 62.1483C312.397 62.1483 325.437 48.9548 325.437 32C325.437 15.0452 312.455 0.75226 295.415 0.75226Z" fill="#00C974"/>
<path d="M295.415 60.9912C278.781 60.9912 265.276 47.9713 265.276 32.0002C265.276 16.0292 278.781 3.00928 295.415 3.00928C312.049 3.00928 325.553 16.0292 325.553 32.0002C325.553 47.9713 312.049 60.9912 295.415 60.9912ZM295.415 3.76154C279.476 3.76154 267.247 16.6657 267.247 32.0002C267.247 47.3348 279.418 59.1395 295.415 59.1395C311.411 59.1395 323.583 47.3348 323.583 32.0002C323.583 16.6657 311.411 3.76154 295.415 3.76154Z" fill="#00C974"/>
<path d="M295.415 57.9819C279.824 57.9819 267.131 46.2929 267.131 32C267.131 17.707 279.824 6.01807 295.415 6.01807C311.006 6.01807 323.641 17.707 323.641 32C323.641 46.2929 310.948 57.9819 295.415 57.9819ZM295.415 6.71246C280.519 6.71246 269.16 18.2857 269.16 32C269.16 45.7143 280.519 56.188 295.415 56.188C310.31 56.188 321.67 45.7143 321.67 32C321.67 18.2857 310.31 6.71246 295.415 6.71246Z" fill="#00C974"/>
<path d="M295.415 55.0307C280.867 55.0307 269.044 44.7305 269.044 32C269.044 19.2694 280.867 8.96924 295.415 8.96924C309.962 8.96924 321.786 19.2694 321.786 32C321.786 44.7305 309.962 55.0307 295.415 55.0307ZM295.415 9.7215C281.563 9.7215 271.072 19.9638 271.072 32C271.072 44.0361 281.563 53.179 295.415 53.179C309.267 53.179 319.757 44.0361 319.757 32C319.757 19.9638 309.267 9.7215 295.415 9.7215Z" fill="#00C974"/>
<path d="M295.415 52.0219C281.91 52.0219 270.956 43.0527 270.956 32.0002C270.956 20.9478 281.91 11.9785 295.415 11.9785C308.919 11.9785 319.873 20.9478 319.873 32.0002C319.873 43.0527 308.919 52.0219 295.415 52.0219ZM295.415 12.7308C282.606 12.7308 272.927 21.6422 272.927 32.0002C272.927 42.3583 282.548 50.1702 295.415 50.1702C308.282 50.1702 317.903 42.3583 317.903 32.0002C317.903 21.6422 308.282 12.7308 295.415 12.7308Z" fill="#00C974"/>
<path d="M295.415 49.0126C282.954 49.0126 272.811 41.3743 272.811 32C272.811 22.6256 282.954 14.9873 295.415 14.9873C307.876 14.9873 318.019 22.6256 318.019 32C318.019 41.3743 307.876 49.0126 295.415 49.0126ZM295.415 15.6817C283.649 15.6817 274.839 23.2622 274.839 32C274.839 40.7378 283.649 47.2188 295.415 47.2188C307.18 47.2188 315.99 40.7378 315.99 32C315.99 23.2622 307.18 15.6817 295.415 15.6817Z" fill="#00C974"/>
<path d="M295.415 46.0614C283.997 46.0614 274.724 39.754 274.724 32C274.724 24.2459 283.997 17.9385 295.415 17.9385C306.833 17.9385 316.106 24.2459 316.106 32C316.106 39.754 306.833 46.0614 295.415 46.0614ZM295.415 18.6907C284.692 18.6907 276.752 24.8824 276.752 32C276.752 39.1175 284.692 44.2097 295.415 44.2097C306.137 44.2097 314.077 39.1175 314.077 32C314.077 24.8824 306.137 18.6907 295.415 18.6907Z" fill="#00C974"/>
<path d="M295.415 43.0526C285.04 43.0526 276.636 38.0761 276.636 32.0002C276.636 25.9242 285.04 20.9478 295.415 20.9478C305.789 20.9478 314.193 25.9242 314.193 32.0002C314.193 38.0761 305.789 43.0526 295.415 43.0526ZM295.415 21.7C285.736 21.7 278.607 26.5608 278.607 32.0002C278.607 37.4396 285.678 41.2009 295.415 41.2009C305.152 41.2009 312.223 37.4396 312.223 32.0002C312.223 26.5608 305.152 21.7 295.415 21.7Z" fill="#00C974"/>
<path d="M295.415 40.0433C285.968 40.0433 278.491 36.5135 278.491 31.9999C278.491 27.4864 285.91 23.9565 295.415 23.9565C304.92 23.9565 312.339 27.4864 312.339 31.9999C312.339 36.5135 304.92 40.0433 295.415 40.0433ZM295.415 24.6509C286.895 24.6509 280.519 28.2386 280.519 31.9421C280.519 35.6455 286.895 38.1338 295.415 38.1338C303.935 38.1338 310.31 35.6455 310.31 31.9421C310.31 28.2386 303.935 24.6509 295.415 24.6509Z" fill="#00C974"/>
<path d="M295.415 37.0922C288.112 37.0922 280.403 35.2983 280.403 31.9999C280.403 28.7016 288.112 26.9077 295.415 26.9077C302.718 26.9077 310.426 28.7016 310.426 31.9999C310.426 35.2983 302.718 37.0922 295.415 37.0922ZM295.415 27.66C287.532 27.66 282.432 30.1482 282.432 31.9999C282.432 33.8517 287.532 35.2404 295.415 35.2404C303.297 35.2404 308.397 33.8517 308.397 31.9999C308.397 30.1482 303.297 27.66 295.415 27.66Z" fill="#00C974"/>
<path d="M295.415 29.917C290.488 29.917 282.316 30.2063 282.316 32.0002C282.316 33.794 290.546 34.0834 295.415 34.0834C300.283 34.0834 308.513 33.794 308.513 32.0002C308.513 30.2063 300.283 29.917 295.415 29.917ZM295.415 32.521C291.3 32.521 284.345 32.4631 284.345 31.9423C284.345 31.4215 291.242 31.3636 295.415 31.3636C299.588 31.3636 306.427 31.4215 306.427 31.9423C306.427 32.4631 299.53 32.521 295.415 32.521Z" fill="#00C974"/>
<path d="M365.545 44.7883V19.2114H360.27V29.338H345.549V19.2114H340.275V44.7883H345.549V34.6038H360.27V44.7883H365.545Z" fill="black"/>
<path d="M424.257 19.2114H417.707L411.448 29.338H403.565V19.2114H398.291V44.7883H403.565V34.6038H411.448L417.707 44.7883H424.257L416.374 31.9999L424.257 19.2114Z" fill="black"/>
<path d="M395.393 31.9999C395.393 24.9402 389.655 19.2114 382.584 19.2114H369.08V24.4772H382.584C385.714 24.4772 388.438 26.329 389.597 29.2223V29.3959C389.655 29.3959 374.18 29.3959 374.18 29.3959V34.546H389.655V34.7196C388.438 37.6129 385.656 39.4646 382.584 39.4646H369.08V44.7304H382.584C389.655 44.7304 395.393 39.0017 395.393 31.942V31.9999Z" fill="black"/>
<path d="M205.637 19.2119L199.377 29.3385H191.437V19.2119H186.163V44.7888H191.437V34.6043H199.377L205.637 44.7888H212.128L204.246 32.0003L212.128 19.2119H205.637Z" fill="black"/>
<path d="M179.903 44.7888V19.2119H170.688L164.602 34.3729L158.459 19.2119H149.301V44.7888H154.575V24.4777H154.923L161.994 42.0112H167.21L174.281 24.4777H174.629V44.7888H179.903Z" fill="black"/>
<path d="M62.0736 34.6043H76.7951V44.7888H82.0693V19.2119H76.7951V29.3385H62.0736V19.2119H56.7994V44.7888H62.0736V34.6043Z" fill="black"/>
<path d="M101.775 44.7888V24.4777H111.918V19.2119H86.3003V24.4777H96.501V44.7888H101.775Z" fill="black"/>
<path d="M135.855 19.2117H116.497V24.4775H135.855C137.188 24.4775 138.289 25.577 138.289 26.9079C138.289 28.2388 137.188 29.3383 135.855 29.3383H122.235V34.6041H135.855C137.188 34.6041 138.289 35.7035 138.289 37.0345C138.289 38.3654 137.188 39.4648 135.855 39.4648H116.497V44.7307H135.855C140.086 44.7307 143.563 41.2587 143.563 37.0345C143.563 32.8102 142.868 33.331 141.651 31.9422C142.868 30.6113 143.563 28.8175 143.563 26.85C143.563 22.6258 140.086 19.1538 135.855 19.1538V19.2117Z" fill="black"/>
<path d="M43.2371 40.3905C40.7449 41.6636 38.8902 44.3833 38.2527 47.7396H38.0788C37.4412 44.499 35.7025 41.8372 33.3262 40.5063C32.7466 38.0759 32.3988 35.2983 32.3988 33.3309C32.3988 29.3381 33.7898 25.924 35.8184 24.3616L35.1808 23.4358C32.6886 24.7088 30.834 27.4285 30.1964 30.7848H29.9646C29.327 27.4864 27.5303 24.8245 25.154 23.5515C24.5165 21.0632 24.1687 18.2857 24.1687 16.2604C24.1687 12.2676 25.5597 8.85348 27.5883 7.29109L26.9507 6.36523C24.4585 7.63829 22.6038 10.358 21.9663 13.7142H21.7924C21.1549 10.358 19.2422 7.58042 16.808 6.36523L16.1704 7.29109C18.199 8.85348 19.59 12.2676 19.59 16.2604C19.59 20.2531 19.2422 21.0632 18.6047 23.5515C16.2284 24.8245 14.4317 27.5443 13.7941 30.7848H13.5623C12.9248 27.4285 11.0121 24.6509 8.57787 23.4358L7.94032 24.3616C9.96887 25.924 11.3599 29.3381 11.3599 33.3309C11.3599 37.3236 11.0121 38.0759 10.4325 40.5063C8.1142 41.8372 6.31748 44.499 5.67994 47.7396H5.50606C4.86852 44.3833 2.95589 41.6057 0.521627 40.3905L0 41.3164C2.02855 42.8788 3.41956 46.2929 3.41956 50.2857C3.41956 52.311 3.0718 55.1464 2.43426 57.5768H3.82526C4.86852 55.0886 5.62198 52.3688 5.62198 50.2857H5.79586C5.79586 52.3688 6.49136 55.0886 7.59257 57.5768H8.98358C8.34603 55.0886 7.99828 52.311 7.99828 50.2857C7.99828 44.8462 10.6064 40.4484 13.8521 40.4484C17.0978 40.4484 19.7059 44.8462 19.7059 50.2857C19.7059 55.7251 19.3582 55.1464 18.7206 57.5768H20.1116C21.1549 55.0886 21.9083 52.3688 21.9083 50.2857H22.0822C22.0822 52.3688 22.7777 55.0886 23.8789 57.5768H25.2699C24.6324 55.0886 24.2846 52.311 24.2846 50.2857C24.2846 44.8462 26.8928 40.4484 30.1385 40.4484C33.3841 40.4484 35.9923 44.8462 35.9923 50.2857C35.9923 55.7251 35.6445 55.1464 35.007 57.5768H36.398C37.4412 55.0886 38.1947 52.3688 38.1947 50.2857H38.3686C38.3686 52.3688 39.0641 55.0886 40.1653 57.5768H41.5563C40.9187 55.0886 40.571 52.311 40.571 50.2857C40.571 46.2929 41.962 42.8788 43.9905 41.3164L43.353 40.3905H43.2371ZM30.0805 31.4213C30.0805 31.4213 30.0805 31.4792 30.0805 31.537C30.0805 31.537 30.0805 31.4792 30.0805 31.4213ZM21.8504 16.2604H22.0243C22.0243 18.1699 22.6038 20.6003 23.5312 22.915C23.0095 22.7992 22.4879 22.7414 21.9663 22.7414C21.4447 22.7414 20.923 22.7992 20.4014 22.915C21.3288 20.6003 21.9083 18.1699 21.9083 16.2604H21.8504ZM13.7941 31.4213C13.7941 31.4213 13.7941 31.4792 13.7941 31.537C13.7941 31.537 13.7941 31.4792 13.7941 31.4213ZM13.7941 39.6383C13.2725 39.6383 12.6929 39.6962 12.1713 39.8119C13.0407 37.5551 13.6203 35.1826 13.6203 33.3309H13.8521C13.8521 35.1826 14.4317 37.5551 15.3011 39.8119C14.7794 39.6962 14.3158 39.6383 13.7941 39.6383ZM26.8348 40.4484C24.4585 41.7215 22.6038 44.4412 22.0243 47.7396H21.9083C21.2708 44.4412 19.4741 41.7793 17.0978 40.4484C16.5182 38.018 16.1704 35.2983 16.1704 33.3309C16.1704 27.8915 18.7786 23.4936 22.0243 23.4936C25.2699 23.4936 27.8781 27.8915 27.8781 33.3309C27.8781 38.7703 27.5303 38.018 26.9507 40.4484H26.8348ZM30.0225 39.6383C29.5009 39.6383 28.9793 39.6962 28.5156 39.8119C29.385 37.5551 29.9646 35.1826 29.9646 33.3309H30.1964C30.1964 35.1826 30.776 37.5551 31.6454 39.8119C31.1237 39.6962 30.6021 39.6383 30.0225 39.6383Z" fill="#004A97"/>
<path d="M21.9083 43.8045L23.9949 40.6797H19.8798L21.9083 43.8045Z" fill="#004A97"/>
<path d="M7.82441 40.6797H3.70935L5.7379 43.8045L7.82441 40.6797Z" fill="#004A97"/>
<path d="M40.1653 40.6797H36.0502L38.1367 43.8045L40.1653 40.6797Z" fill="#004A97"/>
<path d="M23.9369 6.65479H19.8798L21.9083 9.83743L23.9369 6.65479Z" fill="#004A97"/>
<path d="M32.167 23.7251H28.0519L30.0805 26.8499L32.167 23.7251Z" fill="#004A97"/>
<path d="M15.8227 23.7251H11.7076L13.7362 26.8499L15.8227 23.7251Z" fill="#004A97"/>
<path d="M17.1557 35.2406C17.1557 35.9928 17.3296 36.4557 17.4455 37.2659C20.4594 37.1501 23.4732 37.1501 26.4871 37.2659C26.603 36.4557 26.7189 35.9928 26.7769 35.2406C23.5891 35.067 20.4014 35.067 17.2137 35.2406H17.1557Z" fill="#004A97"/>
<path d="M33.7319 37.6711C37.0935 37.9025 40.4551 38.3076 43.8167 38.7705V37.9604C40.3971 36.9767 36.9196 36.2244 33.4421 35.7036C33.5 36.3401 33.616 37.0345 33.7319 37.7289V37.6711Z" fill="#004A97"/>
<path d="M10.0848 37.6708C10.2007 36.9764 10.2587 36.3399 10.3746 35.6455C6.89707 36.1663 3.41956 36.9186 0 37.9023V38.7124C3.3616 38.2495 6.72319 37.9023 10.0848 37.613V37.6708Z" fill="#004A97"/>
<path d="M25.5597 20.4269C28.8634 20.6005 32.225 21.1213 35.4706 21.8157V21.0056C32.225 19.5011 28.8054 18.8645 25.2699 18.4595C25.3279 19.2117 25.4438 19.6168 25.5597 20.3691V20.4269Z" fill="#004A97"/>
<path d="M18.6047 18.4595C15.1272 18.8067 11.6497 19.4432 8.40399 21.0056V21.8157C11.6497 21.0635 15.0113 20.6005 18.3149 20.4269C18.4308 19.6747 18.5467 19.2117 18.6047 18.5173V18.4595Z" fill="#004A97"/>
<path d="M432.619 25.8615V19.7479H433.921V22.176H436.537V19.7479H437.839V25.8615H436.537V23.2603H433.921V25.8615H432.619Z" fill="black"/>
<path d="M438.629 25.8615L440.899 19.7479H442.201L444.477 25.8615H443.1L442.627 24.6099H440.369L439.908 25.8615H438.629ZM440.766 23.5256H442.23L441.498 21.4032L440.766 23.5256Z" fill="black"/>
<path d="M449.887 26.9977V25.8615H445.261V19.7479H446.563V24.7772H449.006V19.7479H450.308V24.7772H451.057V26.9977H449.887Z" fill="black"/>
<path d="M452.025 25.8615V19.7479H453.327V23.8082L455.989 19.7479H457.246V25.8615H455.943V21.8011L453.276 25.8615H452.025Z" fill="black"/>
<path d="M461.267 25.9653C460.881 25.9653 460.518 25.9076 460.178 25.7923C459.833 25.6769 459.527 25.4924 459.256 25.2444C458.986 24.9964 458.772 24.6734 458.617 24.2812C458.461 23.8832 458.386 23.4103 458.386 22.8508V22.6778C458.386 22.1414 458.461 21.6858 458.617 21.2993C458.772 20.9187 458.986 20.6072 459.256 20.3592C459.527 20.117 459.833 19.9324 460.178 19.8171C460.524 19.7017 460.887 19.644 461.267 19.644C461.648 19.644 462.016 19.7017 462.356 19.8171C462.702 19.9324 463.008 20.117 463.278 20.3592C463.549 20.6015 463.762 20.9187 463.918 21.2993C464.074 21.68 464.148 22.1414 464.148 22.6778V22.8508C464.148 23.4103 464.074 23.889 463.918 24.2812C463.762 24.6791 463.549 24.9964 463.278 25.2444C463.008 25.4924 462.702 25.6712 462.356 25.7923C462.011 25.9076 461.648 25.9653 461.267 25.9653ZM461.267 24.8637C461.532 24.8637 461.786 24.8003 462.017 24.6734C462.247 24.5465 462.431 24.3389 462.575 24.0447C462.719 23.7506 462.789 23.3526 462.789 22.8451V22.672C462.789 22.1933 462.719 21.8127 462.575 21.53C462.431 21.2474 462.247 21.0456 462.017 20.9244C461.786 20.8033 461.538 20.7399 461.267 20.7399C460.997 20.7399 460.76 20.8033 460.524 20.9244C460.294 21.0456 460.103 21.2474 459.959 21.53C459.815 21.8127 459.746 22.1933 459.746 22.672V22.8451C459.746 23.3526 459.815 23.7506 459.959 24.0447C460.103 24.3389 460.288 24.5465 460.524 24.6734C460.755 24.8003 461.002 24.8637 461.267 24.8637Z" fill="black"/>
<path d="M465.284 25.8615V19.7479H466.586V22.176H469.202V19.7479H470.504V25.8615H469.202V23.2603H466.586V25.8615H465.284Z" fill="black"/>
<path d="M471.293 25.8615L473.564 19.7479H474.866L477.142 25.8615H475.765L475.292 24.6099H473.033L472.572 25.8615H471.293ZM473.431 23.5256H474.895L474.163 21.4032L473.431 23.5256Z" fill="black"/>
<path d="M477.96 25.9653C477.914 25.9653 477.856 25.9653 477.787 25.9653C477.718 25.9653 477.66 25.9538 477.614 25.9422V24.7714C477.614 24.7714 477.678 24.783 477.747 24.783C477.862 24.783 477.966 24.7657 478.058 24.7253C478.15 24.6849 478.231 24.6042 478.294 24.4773C478.357 24.3504 478.409 24.1658 478.45 23.9236C478.49 23.6814 478.519 23.3641 478.542 22.9719C478.565 22.5797 478.571 22.0895 478.571 21.5012V19.7536H483.019V25.8673H481.711V20.8379H479.81V21.6742C479.81 22.4125 479.781 23.0412 479.729 23.5487C479.677 24.0562 479.602 24.4715 479.498 24.7945C479.395 25.1175 479.274 25.3597 479.124 25.527C478.974 25.6942 478.801 25.8096 478.605 25.8788C478.409 25.9422 478.19 25.9769 477.96 25.9769V25.9653Z" fill="black"/>
<path d="M484.431 25.8615V19.7479H485.733V21.9338H486.782C487.611 21.9338 488.228 22.1126 488.625 22.4702C489.023 22.8277 489.219 23.3065 489.219 23.9005C489.219 24.4946 489.023 24.9733 488.625 25.3309C488.228 25.6885 487.617 25.8673 486.782 25.8673H484.437L484.431 25.8615ZM485.727 24.7772H486.643C487.11 24.7772 487.438 24.6964 487.623 24.5407C487.813 24.385 487.905 24.1658 487.905 23.8948C487.905 23.6237 487.813 23.4045 487.623 23.2488C487.433 23.0931 487.104 23.0123 486.643 23.0123H485.727V24.7772Z" fill="black"/>
<path d="M490.187 25.8615V19.7479H491.489V22.176H494.105V19.7479H495.407V25.8615H494.105V23.2603H491.489V25.8615H490.187Z" fill="black"/>
<path d="M496.202 25.8615L498.473 19.7479H499.775L502.051 25.8615H500.674L500.201 24.6099H497.943L497.482 25.8615H496.202ZM498.34 23.5256H499.804L499.072 21.4032L498.34 23.5256Z" fill="black"/>
<path d="M502.477 25.8615L504.039 23.4853C503.601 23.3468 503.278 23.1219 503.059 22.8104C502.84 22.499 502.737 22.1356 502.737 21.7088C502.737 21.3109 502.823 20.9648 502.996 20.6764C503.169 20.3823 503.428 20.1516 503.774 19.9901C504.12 19.8286 504.54 19.7479 505.047 19.7479H507.536V25.8615H506.228V23.6237H505.266L503.906 25.8615H502.477ZM504.045 21.7088C504.045 21.9972 504.137 22.2222 504.315 22.3663C504.494 22.5163 504.828 22.5913 505.312 22.5913H506.228V20.8264H505.312C504.828 20.8264 504.5 20.9014 504.315 21.0513C504.137 21.2013 504.045 21.4205 504.045 21.7088Z" fill="black"/>
<path d="M434.837 35.6606C434.486 35.6606 434.163 35.6202 433.858 35.5453C433.552 35.4703 433.293 35.3492 433.062 35.1819C432.838 35.0146 432.653 34.7955 432.515 34.5244C432.377 34.2533 432.29 33.9303 432.261 33.5497H433.621C433.667 33.8784 433.8 34.1264 434.013 34.2995C434.226 34.4725 434.503 34.559 434.831 34.559C434.993 34.559 435.154 34.5302 435.304 34.4783C435.454 34.4206 435.592 34.3341 435.719 34.2072C435.845 34.0803 435.949 33.9188 436.036 33.7169C436.122 33.5151 436.174 33.2613 436.203 32.9556H434.094V31.9405H436.197C436.162 31.5714 436.082 31.2773 435.955 31.0581C435.828 30.8389 435.667 30.6774 435.477 30.5794C435.287 30.4813 435.073 30.4352 434.837 30.4352C434.52 30.4352 434.255 30.5159 434.042 30.6774C433.829 30.8389 433.685 31.0927 433.621 31.4387H432.261C432.285 31.0754 432.365 30.7639 432.509 30.4929C432.653 30.2276 432.838 30.0084 433.074 29.8354C433.31 29.6623 433.575 29.5412 433.875 29.4547C434.174 29.3682 434.497 29.3278 434.837 29.3278C435.229 29.3278 435.586 29.3855 435.926 29.5066C436.26 29.6277 436.554 29.8123 436.796 30.0545C437.044 30.3025 437.234 30.614 437.378 31.0004C437.516 31.3811 437.586 31.8367 437.586 32.3616V32.5346C437.586 33.094 437.516 33.5727 437.378 33.9649C437.24 34.3629 437.044 34.6801 436.79 34.9281C436.537 35.1761 436.243 35.3549 435.915 35.4761C435.58 35.5914 435.223 35.6491 434.843 35.6491L434.837 35.6606Z" fill="black"/>
<path d="M438.715 35.5568V29.4432H440.017V31.8713H442.633V29.4432H443.935V35.5568H442.633V32.9556H440.017V35.5568H438.715Z" fill="black"/>
<path d="M445.353 29.4432H449.611V30.5275H446.661V31.8886H449.352V32.9383H446.661V34.4783H449.611V35.5626H445.353V29.4432Z" fill="black"/>
<path d="M450.758 35.5568V29.4432H453.103C453.656 29.4432 454.111 29.5239 454.474 29.6912C454.837 29.8584 455.102 30.0891 455.275 30.389C455.448 30.689 455.534 31.0408 455.534 31.4503C455.534 31.8598 455.448 32.2116 455.275 32.5115C455.102 32.8114 454.831 33.0421 454.474 33.2094C454.111 33.3767 453.656 33.4574 453.103 33.4574H452.054V35.5568H450.752H450.758ZM452.06 32.3731H452.976C453.443 32.3731 453.771 32.2923 453.955 32.1366C454.146 31.9809 454.238 31.7502 454.238 31.4445C454.238 31.1388 454.146 30.9197 453.955 30.7582C453.765 30.5967 453.437 30.5159 452.976 30.5159H452.06V32.3731Z" fill="black"/>
<path d="M456.566 35.5568V29.4432H460.57V30.5275H457.862V35.5568H456.56H456.566Z" fill="black"/>
<path d="M461.452 29.4432H465.71V30.5275H462.76V31.8886H465.451V32.9383H462.76V34.4783H465.71V35.5626H461.452V29.4432Z" fill="black"/>
<path d="M468.378 35.5568V30.5275H466.413V29.4432H471.639V30.5275H469.674V35.5568H468.372H468.378Z" fill="black"/>
<path d="M472.526 35.5568V29.4432H473.829V33.5035L476.491 29.4432H477.747V35.5568H476.445V31.4964L473.777 35.5568H472.526Z" fill="black"/>
<path d="M482.379 35.5568V33.0479C482.23 33.146 482.022 33.2382 481.763 33.319C481.504 33.3997 481.204 33.4401 480.858 33.4401C480.19 33.4401 479.694 33.2786 479.372 32.9499C479.049 32.6211 478.888 32.102 478.888 31.3984V29.4432H480.196V31.2311C480.196 31.6291 480.276 31.9117 480.438 32.0847C480.599 32.2577 480.853 32.3443 481.198 32.3443C481.475 32.3443 481.705 32.3096 481.901 32.2347C482.097 32.1597 482.253 32.0847 482.374 32.004V29.4432H483.682V35.5568H482.374H482.379Z" fill="black"/>
<path d="M485.093 29.4432H489.351V30.5275H486.401V31.8886H489.092V32.9383H486.401V34.4783H489.351V35.5626H485.093V29.4432Z" fill="black"/>
<path d="M492.935 35.6606C492.405 35.6606 491.933 35.5568 491.518 35.3434C491.103 35.13 490.775 34.7955 490.538 34.3399C490.302 33.8842 490.187 33.2844 490.187 32.5461V32.3731C490.187 31.8367 490.256 31.3811 490.394 30.9947C490.533 30.614 490.729 30.3025 490.982 30.0545C491.236 29.8123 491.529 29.6277 491.858 29.5124C492.186 29.397 492.549 29.3394 492.93 29.3394C493.275 29.3394 493.592 29.3797 493.892 29.4662C494.191 29.5528 494.457 29.6796 494.693 29.8469C494.929 30.0142 495.113 30.2333 495.257 30.5044C495.401 30.7697 495.482 31.0869 495.505 31.4503H494.145C494.082 31.1042 493.944 30.8505 493.725 30.689C493.512 30.5275 493.247 30.4467 492.93 30.4467C492.688 30.4467 492.457 30.5044 492.25 30.6255C492.042 30.7466 491.869 30.9427 491.737 31.2254C491.604 31.508 491.541 31.8886 491.541 32.3789V32.5519C491.541 32.9383 491.581 33.2555 491.662 33.5151C491.743 33.7746 491.852 33.9823 491.985 34.138C492.117 34.2937 492.267 34.4033 492.428 34.4667C492.59 34.5359 492.757 34.5648 492.924 34.5648C493.258 34.5648 493.529 34.4783 493.742 34.3052C493.955 34.1322 494.088 33.8842 494.134 33.5555H495.494C495.465 33.9361 495.378 34.2591 495.24 34.5302C495.102 34.8013 494.917 35.0204 494.693 35.1877C494.468 35.3549 494.203 35.4761 493.898 35.551C493.592 35.626 493.27 35.6664 492.918 35.6664L492.935 35.6606Z" fill="black"/>
<path d="M496.56 35.5568V29.4432H497.862V31.9348H498.386L500.34 29.4432H501.78L499.389 32.3327L501.867 35.5568H500.34L498.386 32.8922H497.862V35.5568H496.56Z" fill="black"/>
<path d="M502.31 35.5568L504.58 29.4432H505.883L508.159 35.5568H506.781L506.309 34.3052H504.05L503.589 35.5568H502.31ZM504.448 33.2209H505.911L505.18 31.0985L504.448 33.2209Z" fill="black"/>
<path d="M508.585 35.5568L510.147 33.1806C509.709 33.0421 509.386 32.8172 509.167 32.5057C508.948 32.1943 508.844 31.8309 508.844 31.4041C508.844 31.0062 508.931 30.6601 509.104 30.3717C509.276 30.0776 509.536 29.8469 509.881 29.6854C510.227 29.5239 510.648 29.4432 511.155 29.4432H513.644V35.5568H512.336V33.319H511.374L510.014 35.5568H508.585ZM510.158 31.4041C510.158 31.6925 510.25 31.9175 510.429 32.0616C510.607 32.2116 510.942 32.2866 511.426 32.2866H512.342V30.5217H511.426C510.942 30.5217 510.613 30.5967 510.429 30.7466C510.25 30.8966 510.158 31.1158 510.158 31.4041Z" fill="black"/>
<path d="M432.619 45.2521V39.1385H433.921V41.6301H434.445L436.399 39.1385H437.839L435.448 42.028L437.926 45.2521H436.399L434.445 42.5875H433.921V45.2521H432.619Z" fill="black"/>
<path d="M441.291 45.3559C440.905 45.3559 440.542 45.2983 440.202 45.1829C439.856 45.0676 439.55 44.883 439.28 44.635C439.009 44.387 438.796 44.064 438.64 43.6718C438.484 43.2738 438.41 42.8009 438.41 42.2414V42.0684C438.41 41.532 438.484 41.0764 438.64 40.69C438.796 40.3093 439.009 39.9979 439.28 39.7498C439.55 39.5076 439.856 39.323 440.202 39.2077C440.547 39.0923 440.91 39.0347 441.291 39.0347C441.671 39.0347 442.04 39.0923 442.38 39.2077C442.725 39.323 443.031 39.5076 443.302 39.7498C443.572 39.9921 443.786 40.3093 443.941 40.69C444.097 41.0706 444.172 41.532 444.172 42.0684V42.2414C444.172 42.8009 444.097 43.2796 443.941 43.6718C443.786 44.0698 443.572 44.387 443.302 44.635C443.031 44.883 442.725 45.0618 442.38 45.1829C442.034 45.2983 441.671 45.3559 441.291 45.3559ZM441.291 44.2543C441.556 44.2543 441.809 44.1909 442.04 44.064C442.27 43.9371 442.454 43.7295 442.599 43.4353C442.743 43.1412 442.812 42.7432 442.812 42.2357V42.0626C442.812 41.5839 442.743 41.2033 442.599 40.9207C442.454 40.6381 442.27 40.4362 442.04 40.3151C441.809 40.194 441.561 40.1305 441.291 40.1305C441.02 40.1305 440.784 40.194 440.547 40.3151C440.317 40.4362 440.127 40.6381 439.983 40.9207C439.839 41.2033 439.769 41.5839 439.769 42.0626V42.2357C439.769 42.7432 439.839 43.1412 439.983 43.4353C440.127 43.7295 440.311 43.9371 440.547 44.064C440.778 44.1909 441.026 44.2543 441.291 44.2543Z" fill="black"/>
<path d="M445.307 45.2521V39.1385H446.609L448.47 42.5817L450.32 39.1385H451.587V45.2521H450.279V41.3648L448.833 44.0294H448.055L446.615 41.3648V45.2521H445.307Z" fill="black"/>
<path d="M452.976 45.2521V39.1385H458.11V45.2521H456.808V40.2228H454.278V45.2521H452.976Z" fill="black"/>
<path d="M458.905 45.2521L461.175 39.1385H462.477L464.754 45.2521H463.376L462.904 44.0006H460.645L460.184 45.2521H458.905ZM461.043 42.9163H462.506L461.775 40.7938L461.043 42.9163Z" fill="black"/>
<path d="M465.537 45.2521V39.1385H466.839V41.5666H469.455V39.1385H470.757V45.2521H469.455V42.6509H466.839V45.2521H465.537Z" fill="black"/>
<path d="M472.169 45.2521V39.1385H473.471V43.1989L476.133 39.1385H477.389V45.2521H476.087V41.1917L473.42 45.2521H472.169Z" fill="black"/>
<path d="M478.398 45.2521L479.959 42.8759C479.521 42.7375 479.199 42.5125 478.98 42.2011C478.767 41.8954 478.657 41.5263 478.657 41.0995C478.657 40.7015 478.744 40.3554 478.916 40.0671C479.089 39.7729 479.349 39.5422 479.694 39.3807C480.04 39.2192 480.461 39.1385 480.968 39.1385H483.457V45.2521H482.149V43.0143H481.187L479.827 45.2521H478.398ZM479.971 41.1052C479.971 41.3936 480.063 41.6185 480.242 41.7627C480.42 41.9127 480.754 41.9877 481.238 41.9877H482.155V40.2228H481.238C480.754 40.2228 480.426 40.2978 480.242 40.4477C480.063 40.5977 479.971 40.8169 479.971 41.1052Z" fill="black"/>
</svg>
