<svg width="418" height="52" viewBox="0 0 418 52" fill="none" xmlns="http://www.w3.org/2000/svg">
<g clip-path="url(#clip0_175_1121)">
<path d="M193.869 0H192.785V51.953H193.869V0Z" fill="#C8C7C7"/>
<path d="M240.192 52C225.819 52 214.132 40.34 214.132 26C214.132 11.66 225.819 0 240.192 0C254.565 0 266.252 11.66 266.252 26C266.252 40.34 254.565 52 240.192 52ZM240.192 0.611212C226.385 0.611212 215.782 12.2242 215.782 26C215.782 39.7758 226.385 50.4955 240.192 50.4955C253.999 50.4955 264.602 39.7758 264.602 26C264.602 12.2242 254.047 0.611212 240.192 0.611212Z" fill="#00C974"/>
<path d="M240.192 49.5551C226.667 49.5551 215.688 38.9765 215.688 26C215.688 13.0235 226.667 2.44482 240.192 2.44482C253.717 2.44482 264.697 13.0235 264.697 26C264.697 38.9765 253.717 49.5551 240.192 49.5551ZM240.192 3.05604C227.233 3.05604 217.29 13.5407 217.29 26C217.29 38.4593 227.186 48.0506 240.192 48.0506C253.198 48.0506 263.094 38.4593 263.094 26C263.094 13.5407 253.198 3.05604 240.192 3.05604Z" fill="#00C974"/>
<path d="M240.192 47.1103C227.516 47.1103 217.195 37.613 217.195 26C217.195 14.3869 227.516 4.88965 240.192 4.88965C252.868 4.88965 263.141 14.3869 263.141 26C263.141 37.613 252.821 47.1103 240.192 47.1103ZM240.192 5.45384C228.081 5.45384 218.845 14.8571 218.845 26C218.845 37.1428 228.081 45.6528 240.192 45.6528C252.303 45.6528 261.539 37.1428 261.539 26C261.539 14.8571 252.303 5.45384 240.192 5.45384Z" fill="#00C974"/>
<path d="M240.192 44.7126C228.364 44.7126 218.75 36.3437 218.75 26.0001C218.75 15.6565 228.364 7.2876 240.192 7.2876C252.02 7.2876 261.634 15.6565 261.634 26.0001C261.634 36.3437 252.02 44.7126 240.192 44.7126ZM240.192 7.89881C228.929 7.89881 220.4 16.2207 220.4 26.0001C220.4 35.7795 228.929 43.208 240.192 43.208C251.455 43.208 259.984 35.7795 259.984 26.0001C259.984 16.2207 251.455 7.89881 240.192 7.89881Z" fill="#00C974"/>
<path d="M240.192 42.2677C229.212 42.2677 220.306 34.9802 220.306 26.0001C220.306 17.0199 229.212 9.73242 240.192 9.73242C251.172 9.73242 260.078 17.0199 260.078 26.0001C260.078 34.9802 251.172 42.2677 240.192 42.2677ZM240.192 10.3436C229.778 10.3436 221.908 17.5841 221.908 26.0001C221.908 34.416 229.731 40.7632 240.192 40.7632C250.654 40.7632 258.476 34.416 258.476 26.0001C258.476 17.5841 250.654 10.3436 240.192 10.3436Z" fill="#00C974"/>
<path d="M240.192 39.8228C230.06 39.8228 221.813 33.6167 221.813 26C221.813 18.3834 230.06 12.1772 240.192 12.1772C250.324 12.1772 258.57 18.3834 258.57 26C258.57 33.6167 250.324 39.8228 240.192 39.8228ZM240.192 12.7414C230.626 12.7414 223.463 18.9006 223.463 26C223.463 33.0995 230.626 38.3653 240.192 38.3653C249.758 38.3653 256.921 33.0995 256.921 26C256.921 18.9006 249.758 12.7414 240.192 12.7414Z" fill="#00C974"/>
<path d="M240.192 37.4251C230.909 37.4251 223.369 32.3003 223.369 26.0001C223.369 19.7 230.909 14.5752 240.192 14.5752C249.475 14.5752 257.015 19.7 257.015 26.0001C257.015 32.3003 249.475 37.4251 240.192 37.4251ZM240.192 15.1864C231.474 15.1864 225.018 20.2171 225.018 26.0001C225.018 31.7831 231.474 35.9206 240.192 35.9206C248.91 35.9206 255.366 31.7831 255.366 26.0001C255.366 20.2171 248.91 15.1864 240.192 15.1864Z" fill="#00C974"/>
<path d="M240.192 34.9802C231.757 34.9802 224.924 30.9368 224.924 26.0001C224.924 21.0634 231.757 17.02 240.192 17.02C248.627 17.02 255.46 21.0634 255.46 26.0001C255.46 30.9368 248.627 34.9802 240.192 34.9802ZM240.192 17.6312C232.322 17.6312 226.526 21.5806 226.526 26.0001C226.526 30.4197 232.275 33.4757 240.192 33.4757C248.109 33.4757 253.858 30.4197 253.858 26.0001C253.858 21.5806 248.109 17.6312 240.192 17.6312Z" fill="#00C974"/>
<path d="M240.192 32.5354C232.511 32.5354 226.432 29.6674 226.432 26.0001C226.432 22.3328 232.464 19.4648 240.192 19.4648C247.92 19.4648 253.952 22.3328 253.952 26.0001C253.952 29.6674 247.92 32.5354 240.192 32.5354ZM240.192 20.029C233.265 20.029 228.081 22.944 228.081 25.9531C228.081 28.9621 233.265 30.9838 240.192 30.9838C247.119 30.9838 252.303 28.9621 252.303 25.9531C252.303 22.944 247.119 20.029 240.192 20.029Z" fill="#00C974"/>
<path d="M240.192 30.1377C234.254 30.1377 227.987 28.6802 227.987 26.0002C227.987 23.3203 234.254 21.8628 240.192 21.8628C246.13 21.8628 252.397 23.3203 252.397 26.0002C252.397 28.6802 246.13 30.1377 240.192 30.1377ZM240.192 22.474C233.783 22.474 229.636 24.4957 229.636 26.0002C229.636 27.5047 233.783 28.6331 240.192 28.6331C246.601 28.6331 250.748 27.5047 250.748 26.0002C250.748 24.4957 246.601 22.474 240.192 22.474Z" fill="#00C974"/>
<path d="M240.192 24.3076C236.187 24.3076 229.542 24.5427 229.542 26.0002C229.542 27.4577 236.234 27.6928 240.192 27.6928C244.15 27.6928 250.842 27.4577 250.842 26.0002C250.842 24.5427 244.15 24.3076 240.192 24.3076ZM240.192 26.4233C236.846 26.4233 231.191 26.3763 231.191 25.9532C231.191 25.53 236.799 25.483 240.192 25.483C243.585 25.483 249.146 25.53 249.146 25.9532C249.146 26.3763 243.538 26.4233 240.192 26.4233Z" fill="#00C974"/>
<path d="M297.212 36.3906V15.6094H292.924V23.8372H280.954V15.6094H276.666V36.3906H280.954V28.1157H292.924V36.3906H297.212Z" fill="black"/>
<path d="M344.949 15.6094H339.624L334.535 23.8372H328.126V15.6094H323.837V36.3906H328.126V28.1157H334.535L339.624 36.3906H344.949L338.54 26L344.949 15.6094Z" fill="black"/>
<path d="M321.481 26C321.481 20.264 316.816 15.6094 311.067 15.6094H300.087V19.8879H311.067C313.611 19.8879 315.826 21.3924 316.769 23.7432V23.8842C316.816 23.8842 304.234 23.8842 304.234 23.8842V28.0687H316.816V28.2097C315.826 30.5605 313.564 32.0651 311.067 32.0651H300.087V36.3436H311.067C316.816 36.3436 321.481 31.6889 321.481 25.953V26Z" fill="black"/>
<path d="M167.197 15.6094L162.107 23.8372H155.651V15.6094H151.363V36.3906H155.651V28.1157H162.107L167.197 36.3906H172.474L166.066 26L172.474 15.6094H167.197Z" fill="black"/>
<path d="M146.273 36.3906V15.6094H138.781L133.833 27.9276L128.837 15.6094H121.392V36.3906H125.68V19.8879H125.963L131.712 34.1338H135.953L141.702 19.8879H141.985V36.3906H146.273Z" fill="black"/>
<path d="M50.4699 28.1157H62.4395V36.3906H66.7278V15.6094H62.4395V23.8372H50.4699V15.6094H46.1816V36.3906H50.4699V28.1157Z" fill="black"/>
<path d="M82.7501 36.3906V19.8879H90.9969V15.6094H70.168V19.8879H78.4618V36.3906H82.7501Z" fill="black"/>
<path d="M110.459 15.6095H94.7195V19.888H110.459C111.543 19.888 112.438 20.7813 112.438 21.8627C112.438 22.9441 111.543 23.8374 110.459 23.8374H99.3848V28.1158H110.459C111.543 28.1158 112.438 29.0092 112.438 30.0905C112.438 31.1719 111.543 32.0652 110.459 32.0652H94.7195V36.3437H110.459C113.899 36.3437 116.726 33.5227 116.726 30.0905C116.726 26.6583 116.161 27.0815 115.171 25.9531C116.161 24.8717 116.726 23.4142 116.726 21.8157C116.726 18.3835 113.899 15.5625 110.459 15.5625V15.6095Z" fill="black"/>
<path d="M35.1547 32.8174C33.1283 33.8518 31.6203 36.0616 31.102 38.7885H30.9606C30.4422 36.1556 29.0285 33.9928 27.0964 32.9115C26.6252 30.9368 26.3424 28.68 26.3424 27.0815C26.3424 23.8373 27.4734 21.0634 29.1228 19.7939L28.6044 19.0417C26.5781 20.076 25.0701 22.2858 24.5517 25.0127H24.3632C23.8448 22.3328 22.384 20.1701 20.4519 19.1357C19.9335 17.114 19.6508 14.8572 19.6508 13.2117C19.6508 9.96753 20.7818 7.19357 22.4311 5.92414L21.9128 5.17188C19.8864 6.20623 18.3784 8.416 17.8601 11.1429H17.7187C17.2003 8.416 15.6452 6.15922 13.666 5.17188L13.1477 5.92414C14.797 7.19357 15.928 9.96753 15.928 13.2117C15.928 16.4558 15.6452 17.114 15.1269 19.1357C13.1948 20.1701 11.7339 22.3798 11.2156 25.0127H11.0271C10.5087 22.2858 8.9536 20.029 6.97438 19.0417L6.45602 19.7939C8.10536 21.0634 9.23634 23.8373 9.23634 27.0815C9.23634 30.3256 8.9536 30.9368 8.48236 32.9115C6.59739 33.9928 5.13654 36.1556 4.61817 38.7885H4.4768C3.95843 36.0616 2.40333 33.8048 0.424118 32.8174L0 33.5697C1.64935 34.8391 2.78033 37.6131 2.78033 40.8572C2.78033 42.5028 2.49758 44.8066 1.97922 46.7813H3.1102C3.95843 44.7596 4.57105 42.5498 4.57105 40.8572H4.71242C4.71242 42.5498 5.27791 44.7596 6.17327 46.7813H7.30425C6.78588 44.7596 6.50314 42.5028 6.50314 40.8572C6.50314 36.4377 8.62373 32.8645 11.2627 32.8645C13.9016 32.8645 16.0222 36.4377 16.0222 40.8572C16.0222 45.2768 15.7395 44.8066 15.2211 46.7813H16.3521C17.2003 44.7596 17.8129 42.5498 17.8129 40.8572H17.9543C17.9543 42.5498 18.5198 44.7596 19.4152 46.7813H20.5462C20.0278 44.7596 19.745 42.5028 19.745 40.8572C19.745 36.4377 21.8656 32.8645 24.5046 32.8645C27.1435 32.8645 29.2641 36.4377 29.2641 40.8572C29.2641 45.2768 28.9814 44.8066 28.463 46.7813H29.594C30.4422 44.7596 31.0548 42.5498 31.0548 40.8572H31.1962C31.1962 42.5498 31.7617 44.7596 32.6571 46.7813H33.7881C33.2697 44.7596 32.9869 42.5028 32.9869 40.8572C32.9869 37.6131 34.1179 34.8391 35.7673 33.5697L35.2489 32.8174H35.1547ZM24.4575 25.5299C24.4575 25.5299 24.4575 25.5769 24.4575 25.624C24.4575 25.624 24.4575 25.5769 24.4575 25.5299ZM17.7658 13.2117H17.9072C17.9072 14.7632 18.3784 16.7379 19.1324 18.6185C18.7083 18.5245 18.2842 18.4775 17.8601 18.4775C17.436 18.4775 17.0118 18.5245 16.5877 18.6185C17.3417 16.7379 17.8129 14.7632 17.8129 13.2117H17.7658ZM11.2156 25.5299C11.2156 25.5299 11.2156 25.5769 11.2156 25.624C11.2156 25.624 11.2156 25.5769 11.2156 25.5299ZM11.2156 32.2062C10.7914 32.2062 10.3202 32.2532 9.89608 32.3473C10.6029 30.5136 11.0742 28.586 11.0742 27.0815H11.2627C11.2627 28.586 11.7339 30.5136 12.4408 32.3473C12.0167 32.2532 11.6397 32.2062 11.2156 32.2062ZM21.8185 32.8645C19.8864 33.8988 18.3784 36.1086 17.9072 38.7885H17.8129C17.2946 36.1086 15.8337 33.9458 13.9016 32.8645C13.4304 30.8898 13.1477 28.68 13.1477 27.0815C13.1477 22.6619 15.2682 19.0887 17.9072 19.0887C20.5462 19.0887 22.6667 22.6619 22.6667 27.0815C22.6667 31.501 22.384 30.8898 21.9128 32.8645H21.8185ZM24.4103 32.2062C23.9862 32.2062 23.5621 32.2532 23.1851 32.3473C23.892 30.5136 24.3632 28.586 24.3632 27.0815H24.5517C24.5517 28.586 25.0229 30.5136 25.7298 32.3473C25.3057 32.2532 24.8816 32.2062 24.4103 32.2062Z" fill="#004A97"/>
<path d="M17.8129 35.5916L19.5094 33.0527H16.1636L17.8129 35.5916Z" fill="#004A97"/>
<path d="M6.36169 33.0527H3.01587L4.66522 35.5916L6.36169 33.0527Z" fill="#004A97"/>
<path d="M32.6571 33.0527H29.3113L31.0078 35.5916L32.6571 33.0527Z" fill="#004A97"/>
<path d="M19.4623 5.40674H16.1636L17.8129 7.99263L19.4623 5.40674Z" fill="#004A97"/>
<path d="M26.1539 19.2769H22.8081L24.4575 21.8157L26.1539 19.2769Z" fill="#004A97"/>
<path d="M12.8649 19.2769H9.51904L11.1684 21.8157L12.8649 19.2769Z" fill="#004A97"/>
<path d="M13.9487 28.6331C13.9487 29.2443 14.0901 29.6205 14.1844 30.2787C16.6348 30.1847 19.0853 30.1847 21.5357 30.2787C21.63 29.6205 21.7242 29.2443 21.7713 28.6331C19.1795 28.4921 16.5877 28.4921 13.9959 28.6331H13.9487Z" fill="#004A97"/>
<path d="M27.4263 30.6078C30.1595 30.7959 32.8927 31.125 35.6259 31.5011V30.8429C32.8456 30.0436 30.0181 29.4324 27.1907 29.0093C27.2378 29.5265 27.332 30.0906 27.4263 30.6548V30.6078Z" fill="#004A97"/>
<path d="M8.19961 30.608C8.29386 30.0438 8.34098 29.5266 8.43523 28.9624C5.60778 29.3855 2.78033 29.9968 0 30.796V31.4543C2.7332 31.0781 5.46641 30.796 8.19961 30.561V30.608Z" fill="#004A97"/>
<path d="M20.7818 16.5966C23.4678 16.7376 26.201 17.1608 28.84 17.725V17.0668C26.201 15.8443 23.4207 15.3272 20.5461 14.998C20.5933 15.6093 20.6875 15.9384 20.7818 16.5496V16.5966Z" fill="#004A97"/>
<path d="M15.1269 14.998C12.2994 15.2801 9.47196 15.7973 6.83301 17.0668V17.725C9.47196 17.1138 12.2052 16.7376 14.8912 16.5966C14.9855 15.9854 15.0797 15.6093 15.1269 15.0451V14.998Z" fill="#004A97"/>
<path d="M351.748 21.1026V16.1318H352.807V18.106H354.934V16.1318H355.993V21.1026H354.934V18.9876H352.807V21.1026H351.748Z" fill="black"/>
<path d="M356.634 21.1026L358.48 16.1318H359.539L361.389 21.1026H360.27L359.886 20.085H358.049L357.674 21.1026H356.634ZM358.372 19.2034H359.562L358.967 17.4776L358.372 19.2034Z" fill="black"/>
<path d="M365.789 22.0264V21.1026H362.027V16.1318H363.085V20.221H365.072V16.1318H366.131V20.221H366.74V22.0264H365.789Z" fill="black"/>
<path d="M367.527 21.1026V16.1318H368.585V19.4331L370.75 16.1318H371.771V21.1026H370.712V17.8012L368.543 21.1026H367.527Z" fill="black"/>
<path d="M375.041 21.187C374.727 21.187 374.432 21.1401 374.156 21.0463C373.875 20.9525 373.626 20.8024 373.406 20.6008C373.186 20.3992 373.013 20.1366 372.886 19.8177C372.76 19.4941 372.699 19.1096 372.699 18.6547V18.514C372.699 18.0779 372.76 17.7074 372.886 17.3932C373.013 17.0837 373.186 16.8305 373.406 16.6289C373.626 16.4319 373.875 16.2818 374.156 16.188C374.437 16.0943 374.732 16.0474 375.041 16.0474C375.351 16.0474 375.65 16.0943 375.927 16.188C376.208 16.2818 376.456 16.4319 376.676 16.6289C376.897 16.8258 377.07 17.0837 377.196 17.3932C377.323 17.7027 377.384 18.0779 377.384 18.514V18.6547C377.384 19.1096 377.323 19.4988 377.196 19.8177C377.07 20.1412 376.897 20.3992 376.676 20.6008C376.456 20.8024 376.208 20.9478 375.927 21.0463C375.646 21.1401 375.351 21.187 375.041 21.187ZM375.041 20.2913C375.257 20.2913 375.463 20.2397 375.65 20.1366C375.838 20.0334 375.988 19.8646 376.105 19.6254C376.222 19.3862 376.278 19.0627 376.278 18.65V18.5093C376.278 18.1201 376.222 17.8106 376.105 17.5808C375.988 17.351 375.838 17.1869 375.65 17.0884C375.463 16.9899 375.261 16.9384 375.041 16.9384C374.821 16.9384 374.629 16.9899 374.437 17.0884C374.25 17.1869 374.095 17.351 373.978 17.5808C373.861 17.8106 373.804 18.1201 373.804 18.5093V18.65C373.804 19.0627 373.861 19.3862 373.978 19.6254C374.095 19.8646 374.245 20.0334 374.437 20.1366C374.624 20.2397 374.826 20.2913 375.041 20.2913Z" fill="black"/>
<path d="M378.307 21.1026V16.1318H379.365V18.106H381.492V16.1318H382.551V21.1026H381.492V18.9876H379.365V21.1026H378.307Z" fill="black"/>
<path d="M383.193 21.1026L385.039 16.1318H386.098L387.948 21.1026H386.829L386.444 20.085H384.608L384.233 21.1026H383.193ZM384.931 19.2034H386.121L385.526 17.4776L384.931 19.2034Z" fill="black"/>
<path d="M388.613 21.187C388.576 21.187 388.529 21.187 388.473 21.187C388.417 21.187 388.37 21.1776 388.332 21.1682V20.2163C388.332 20.2163 388.384 20.2257 388.44 20.2257C388.534 20.2257 388.618 20.2116 388.693 20.1788C388.768 20.1459 388.834 20.0803 388.885 19.9771C388.937 19.8739 388.979 19.7239 389.012 19.5269C389.044 19.33 389.068 19.0721 389.087 18.7532C389.105 18.4343 389.11 18.0357 389.11 17.5574V16.1365H392.727V21.1073H391.663V17.0181H390.117V17.698C390.117 18.2983 390.094 18.8094 390.052 19.2221C390.01 19.6348 389.949 19.9724 389.864 20.235C389.78 20.4976 389.682 20.6946 389.56 20.8306C389.438 20.9666 389.297 21.0604 389.138 21.1166C388.979 21.1682 388.801 21.1964 388.613 21.1964V21.187Z" fill="black"/>
<path d="M393.875 21.1026V16.1318H394.933V17.9091H395.786C396.461 17.9091 396.962 18.0544 397.285 18.3452C397.608 18.6359 397.768 19.0252 397.768 19.5082C397.768 19.9912 397.608 20.3804 397.285 20.6711C396.962 20.9619 396.465 21.1073 395.786 21.1073H393.879L393.875 21.1026ZM394.929 20.221H395.674C396.053 20.221 396.32 20.1553 396.47 20.0287C396.625 19.9021 396.7 19.7239 396.7 19.5035C396.7 19.2831 396.625 19.1049 396.47 18.9783C396.315 18.8516 396.048 18.786 395.674 18.786H394.929V20.221Z" fill="black"/>
<path d="M398.555 21.1026V16.1318H399.614V18.106H401.74V16.1318H402.799V21.1026H401.74V18.9876H399.614V21.1026H398.555Z" fill="black"/>
<path d="M403.446 21.1026L405.292 16.1318H406.351L408.201 21.1026H407.081L406.697 20.085H404.861L404.486 21.1026H403.446ZM405.184 19.2034H406.374L405.779 17.4776L405.184 19.2034Z" fill="black"/>
<path d="M408.548 21.1026L409.817 19.1705C409.461 19.058 409.199 18.8751 409.021 18.6219C408.843 18.3686 408.759 18.0732 408.759 17.7262C408.759 17.4026 408.829 17.1212 408.969 16.8868C409.11 16.6476 409.321 16.46 409.602 16.3287C409.883 16.1974 410.225 16.1318 410.637 16.1318H412.661V21.1026H411.598V19.2831H410.815L409.71 21.1026H408.548ZM409.822 17.7262C409.822 17.9607 409.897 18.1435 410.042 18.2608C410.187 18.3827 410.459 18.4437 410.853 18.4437H411.598V17.0087H410.853C410.459 17.0087 410.192 17.0697 410.042 17.1916C409.897 17.3135 409.822 17.4917 409.822 17.7262Z" fill="black"/>
<path d="M353.552 29.0699C353.266 29.0699 353.004 29.0371 352.755 28.9761C352.507 28.9152 352.296 28.8167 352.109 28.6807C351.926 28.5447 351.776 28.3665 351.664 28.1461C351.551 27.9257 351.481 27.6631 351.458 27.3536H352.563C352.601 27.6209 352.708 27.8225 352.882 27.9632C353.055 28.1039 353.28 28.1742 353.547 28.1742C353.678 28.1742 353.809 28.1508 353.931 28.1086C354.053 28.0617 354.165 27.9913 354.268 27.8882C354.372 27.785 354.456 27.6537 354.526 27.4896C354.596 27.3254 354.639 27.1191 354.662 26.8706H352.947V26.0452H354.657C354.629 25.7451 354.564 25.5059 354.461 25.3277C354.357 25.1495 354.226 25.0182 354.072 24.9385C353.917 24.8588 353.744 24.8213 353.552 24.8213C353.294 24.8213 353.078 24.8869 352.905 25.0182C352.732 25.1495 352.615 25.3559 352.563 25.6372H351.458C351.476 25.3418 351.542 25.0886 351.659 24.8682C351.776 24.6525 351.926 24.4743 352.118 24.3336C352.31 24.1929 352.526 24.0944 352.769 24.0241C353.013 23.9537 353.275 23.9209 353.552 23.9209C353.87 23.9209 354.161 23.9678 354.437 24.0663C354.709 24.1648 354.948 24.3148 355.145 24.5118C355.346 24.7134 355.501 24.9667 355.618 25.2809C355.73 25.5904 355.786 25.9608 355.786 26.3876V26.5282C355.786 26.9831 355.73 27.3723 355.618 27.6912C355.505 28.0148 355.346 28.2727 355.14 28.4744C354.934 28.676 354.695 28.8214 354.428 28.9199C354.156 29.0136 353.866 29.0605 353.556 29.0605L353.552 29.0699Z" fill="black"/>
<path d="M356.705 28.9855V24.0147H357.763V25.989H359.89V24.0147H360.949V28.9855H359.89V26.8706H357.763V28.9855H356.705Z" fill="black"/>
<path d="M362.102 24.0147H365.564V24.8963H363.165V26.003H365.353V26.8565H363.165V28.1086H365.564V28.9902H362.102V24.0147Z" fill="black"/>
<path d="M366.496 28.9855V24.0147H368.403C368.853 24.0147 369.223 24.0804 369.518 24.2164C369.813 24.3523 370.028 24.5399 370.169 24.7838C370.31 25.0276 370.38 25.3137 370.38 25.6466C370.38 25.9796 370.31 26.2656 370.169 26.5095C370.028 26.7533 369.808 26.9409 369.518 27.0769C369.223 27.2129 368.853 27.2786 368.403 27.2786H367.55V28.9855H366.491H366.496ZM367.555 26.3969H368.3C368.679 26.3969 368.946 26.3313 369.096 26.2047C369.251 26.0781 369.326 25.8905 369.326 25.6419C369.326 25.3934 369.251 25.2152 369.096 25.0839C368.942 24.9526 368.675 24.8869 368.3 24.8869H367.555V26.3969Z" fill="black"/>
<path d="M371.218 28.9855V24.0147H374.474V24.8963H372.273V28.9855H371.214H371.218Z" fill="black"/>
<path d="M375.191 24.0147H378.653V24.8963H376.255V26.003H378.443V26.8565H376.255V28.1086H378.653V28.9902H375.191V24.0147Z" fill="black"/>
<path d="M380.823 28.9855V24.8963H379.225V24.0147H383.474V24.8963H381.877V28.9855H380.818H380.823Z" fill="black"/>
<path d="M384.196 28.9855V24.0147H385.254V27.3161L387.419 24.0147H388.44V28.9855H387.381V25.6841L385.212 28.9855H384.196Z" fill="black"/>
<path d="M392.207 28.9855V26.9456C392.085 27.0253 391.916 27.1004 391.706 27.166C391.495 27.2317 391.251 27.2645 390.97 27.2645C390.427 27.2645 390.024 27.1332 389.761 26.8659C389.499 26.5986 389.368 26.1765 389.368 25.6044V24.0147H390.431V25.4684C390.431 25.792 390.497 26.0218 390.628 26.1625C390.759 26.3032 390.965 26.3735 391.246 26.3735C391.471 26.3735 391.659 26.3454 391.818 26.2844C391.977 26.2234 392.104 26.1625 392.202 26.0968V24.0147H393.266V28.9855H392.202H392.207Z" fill="black"/>
<path d="M394.413 24.0147H397.875V24.8963H395.477V26.003H397.665V26.8565H395.477V28.1086H397.875V28.9902H394.413V24.0147Z" fill="black"/>
<path d="M400.789 29.0699C400.358 29.0699 399.974 28.9855 399.637 28.812C399.3 28.6385 399.033 28.3665 398.841 27.996C398.648 27.6256 398.555 27.1379 398.555 26.5376V26.3969C398.555 25.9608 398.611 25.5904 398.723 25.2762C398.836 24.9667 398.995 24.7134 399.201 24.5118C399.407 24.3148 399.646 24.1648 399.913 24.071C400.18 23.9772 400.476 23.9303 400.785 23.9303C401.066 23.9303 401.324 23.9631 401.567 24.0335C401.811 24.1038 402.026 24.207 402.218 24.343C402.41 24.479 402.56 24.6572 402.677 24.8776C402.795 25.0933 402.86 25.3512 402.879 25.6466H401.773C401.722 25.3653 401.609 25.1589 401.431 25.0276C401.258 24.8963 401.042 24.8307 400.785 24.8307C400.588 24.8307 400.401 24.8776 400.232 24.976C400.063 25.0745 399.923 25.234 399.815 25.4637C399.707 25.6935 399.656 26.003 399.656 26.4016V26.5423C399.656 26.8565 399.688 27.1144 399.754 27.3255C399.82 27.5365 399.909 27.7053 400.016 27.8319C400.124 27.9585 400.246 28.0476 400.377 28.0992C400.508 28.1555 400.644 28.1789 400.78 28.1789C401.052 28.1789 401.272 28.1086 401.445 27.9679C401.619 27.8272 401.726 27.6256 401.764 27.3583H402.87C402.846 27.6678 402.776 27.9304 402.663 28.1508C402.551 28.3712 402.401 28.5494 402.218 28.6854C402.036 28.8214 401.82 28.9199 401.572 28.9808C401.324 29.0418 401.061 29.0746 400.775 29.0746L400.789 29.0699Z" fill="black"/>
<path d="M403.736 28.9855V24.0147H404.795V26.0405H405.221L406.81 24.0147H407.981L406.037 26.3641L408.051 28.9855H406.81L405.221 26.819H404.795V28.9855H403.736Z" fill="black"/>
<path d="M408.412 28.9855L410.258 24.0147H411.316L413.167 28.9855H412.047L411.663 27.9679H409.827L409.452 28.9855H408.412ZM410.15 27.0863H411.34L410.745 25.3606L410.15 27.0863Z" fill="black"/>
<path d="M413.514 28.9855L414.783 27.0535C414.427 26.9409 414.165 26.758 413.987 26.5048C413.809 26.2516 413.725 25.9561 413.725 25.6091C413.725 25.2855 413.795 25.0042 413.935 24.7697C414.076 24.5305 414.287 24.343 414.568 24.2117C414.849 24.0804 415.191 24.0147 415.603 24.0147H417.627V28.9855H416.564V27.166H415.781L414.676 28.9855H413.514ZM414.793 25.6091C414.793 25.8436 414.868 26.0265 415.013 26.1437C415.158 26.2656 415.43 26.3266 415.823 26.3266H416.568V24.8916H415.823C415.43 24.8916 415.163 24.9526 415.013 25.0745C414.868 25.1964 414.793 25.3746 414.793 25.6091Z" fill="black"/>
<path d="M351.748 36.8685V31.8977H352.807V33.9235H353.233L354.821 31.8977H355.993L354.048 34.2471L356.063 36.8685H354.821L353.233 34.7019H352.807V36.8685H351.748Z" fill="black"/>
<path d="M358.799 36.9529C358.485 36.9529 358.19 36.906 357.913 36.8122C357.632 36.7184 357.384 36.5683 357.164 36.3667C356.944 36.165 356.77 35.9024 356.644 35.5836C356.517 35.26 356.456 34.8754 356.456 34.4206V34.2799C356.456 33.8438 356.517 33.4733 356.644 33.1591C356.77 32.8496 356.944 32.5964 357.164 32.3947C357.384 32.1978 357.632 32.0477 357.913 31.9539C358.194 31.8601 358.49 31.8132 358.799 31.8132C359.108 31.8132 359.408 31.8601 359.684 31.9539C359.965 32.0477 360.214 32.1978 360.434 32.3947C360.654 32.5917 360.827 32.8496 360.954 33.1591C361.08 33.4686 361.141 33.8438 361.141 34.2799V34.4206C361.141 34.8754 361.08 35.2647 360.954 35.5836C360.827 35.9071 360.654 36.165 360.434 36.3667C360.214 36.5683 359.965 36.7137 359.684 36.8122C359.403 36.906 359.108 36.9529 358.799 36.9529ZM358.799 36.0572C359.014 36.0572 359.22 36.0056 359.408 35.9024C359.595 35.7993 359.745 35.6304 359.862 35.3913C359.979 35.1521 360.036 34.8286 360.036 34.4159V34.2752C360.036 33.886 359.979 33.5765 359.862 33.3467C359.745 33.1169 359.595 32.9528 359.408 32.8543C359.22 32.7558 359.019 32.7042 358.799 32.7042C358.579 32.7042 358.387 32.7558 358.194 32.8543C358.007 32.9528 357.852 33.1169 357.735 33.3467C357.618 33.5765 357.562 33.886 357.562 34.2752V34.4159C357.562 34.8286 357.618 35.1521 357.735 35.3913C357.852 35.6304 358.002 35.7993 358.194 35.9024C358.382 36.0056 358.583 36.0572 358.799 36.0572Z" fill="black"/>
<path d="M362.064 36.8685V31.8977H363.123L364.636 34.6972L366.14 31.8977H367.171V36.8685H366.107V33.7078L364.931 35.8743H364.299L363.128 33.7078V36.8685H362.064Z" fill="black"/>
<path d="M368.3 36.8685V31.8977H372.474V36.8685H371.415V32.7793H369.358V36.8685H368.3Z" fill="black"/>
<path d="M373.121 36.8685L374.966 31.8977H376.025L377.876 36.8685H376.756L376.372 35.8508H374.535L374.161 36.8685H373.121ZM374.859 34.9692H376.049L375.454 33.2435L374.859 34.9692Z" fill="black"/>
<path d="M378.513 36.8685V31.8977H379.572V33.8719H381.699V31.8977H382.757V36.8685H381.699V34.7535H379.572V36.8685H378.513Z" fill="black"/>
<path d="M383.905 36.8685V31.8977H384.964V35.199L387.128 31.8977H388.15V36.8685H387.091V33.5671L384.922 36.8685H383.905Z" fill="black"/>
<path d="M388.969 36.8685L390.239 34.9364C389.883 34.8239 389.621 34.641 389.443 34.3877C389.269 34.1392 389.18 33.8391 389.18 33.4921C389.18 33.1685 389.251 32.8871 389.391 32.6527C389.532 32.4135 389.742 32.2259 390.024 32.0946C390.305 31.9633 390.647 31.8977 391.059 31.8977H393.083V36.8685H392.019V35.049H391.237L390.131 36.8685H388.969ZM390.248 33.4968C390.248 33.7312 390.323 33.9141 390.469 34.0314C390.614 34.1533 390.886 34.2142 391.279 34.2142H392.024V32.7793H391.279C390.886 32.7793 390.619 32.8402 390.469 32.9622C390.323 33.0841 390.248 33.2623 390.248 33.4968Z" fill="black"/>
</g>
<defs>
<clipPath id="clip0_175_1121">
<rect width="418" height="52" fill="white"/>
</clipPath>
</defs>
</svg>
