<svg width="87" height="32" viewBox="0 0 87 32" fill="none" xmlns="http://www.w3.org/2000/svg">
<g clip-path="url(#clip0_2001_1208)">
<path d="M16.0392 32C7.23981 32 0.0834961 24.8265 0.0834961 16.0061C0.0834961 7.18567 7.23981 0 16.0392 0C24.8385 0 31.9948 7.17347 31.9948 15.9939C31.9948 24.8143 24.8385 32 16.0392 32ZM16.0392 0.378193C7.56842 0.378193 1.08149 7.51506 1.08149 16.0061C1.08149 24.4971 7.56842 31.0728 16.0392 31.0728C24.5099 31.0728 30.9968 24.4849 30.9968 15.9939C30.9968 7.50286 24.4977 0.378193 16.0392 0.378193Z" fill="#00CB62"/>
<path d="M16.0393 30.4994C7.76327 30.4994 1.02075 23.9969 1.02075 15.9939C1.02075 7.99083 7.7511 1.50055 16.0393 1.50055C24.3275 1.50055 31.0578 8.00303 31.0578 16.0061C31.0578 24.0091 24.3153 30.4994 16.0393 30.4994ZM16.0393 1.87874C8.09187 1.87874 2.01874 8.34462 2.01874 16.0061C2.01874 23.6675 8.09187 29.5844 16.0393 29.5844C23.9867 29.5844 30.0476 23.6675 30.0476 16.0061C30.0476 8.34462 23.9867 1.87874 16.0393 1.87874Z" fill="#00CB62"/>
<path d="M16.0392 29.0111C8.27435 29.0111 1.96997 23.1796 1.96997 16.0061C1.96997 8.83265 8.28652 3.00116 16.0392 3.00116C23.804 3.00116 30.1084 8.83265 30.1084 16.0061C30.1084 23.1674 23.7919 29.0111 16.0392 29.0111ZM16.0392 3.36715C8.61512 3.36715 2.96796 9.16204 2.96796 15.9939C2.96796 22.838 8.61512 28.0717 16.0392 28.0717C23.4633 28.0717 29.1104 22.8258 29.1104 15.9939C29.1104 9.16204 23.4633 3.36715 16.0392 3.36715Z" fill="#00CB62"/>
<path d="M16.0391 27.5105C8.79756 27.5105 2.90698 22.35 2.90698 16.0061C2.90698 9.66221 8.79756 4.50171 16.0391 4.50171C23.2806 4.50171 29.1711 9.66221 29.1711 16.0061C29.1711 22.35 23.2684 27.5105 16.0391 27.5105ZM16.0391 4.8677C9.12616 4.8677 3.90497 9.99161 3.90497 16.0061C3.90497 22.0206 9.12616 26.5955 16.0391 26.5955C22.952 26.5955 28.1732 22.0206 28.1732 16.0061C28.1732 9.99161 22.9398 4.8677 16.0391 4.8677Z" fill="#00CB62"/>
<path d="M16.039 26.0099C9.3208 26.0099 3.8562 21.5204 3.8562 15.9939C3.8562 10.4674 9.3208 5.97791 16.039 5.97791C22.7572 5.97791 28.2218 10.4674 28.2218 15.9939C28.2218 21.5204 22.7572 26.0099 16.039 26.0099ZM16.039 6.3561C9.64941 6.3561 4.85419 10.809 4.85419 15.9939C4.85419 21.1788 9.64941 25.0827 16.039 25.0827C22.4285 25.0827 27.2238 21.1788 27.2238 15.9939C27.2238 10.809 22.4285 6.3561 16.039 6.3561Z" fill="#00CB62"/>
<path d="M16.0391 24.5215C9.84426 24.5215 4.79346 20.703 4.79346 16.0061C4.79346 11.3092 9.83209 7.49066 16.0391 7.49066C22.2461 7.49066 27.2847 11.3092 27.2847 16.0061C27.2847 20.703 22.2339 24.5215 16.0391 24.5215ZM16.0391 7.85665C10.1729 7.85665 5.79145 11.6386 5.79145 16.0061C5.79145 20.3736 10.1729 23.6066 16.0391 23.6066C21.9053 23.6066 26.2867 20.3736 26.2867 16.0061C26.2746 11.6386 21.9053 7.85665 16.0391 7.85665Z" fill="#00CB62"/>
<path d="M16.0393 23.021C10.3556 23.021 5.74292 19.8735 5.74292 15.9939C5.74292 12.1144 10.3678 8.96686 16.0393 8.96686C21.7108 8.96686 26.3356 12.1144 26.3356 15.9939C26.3356 19.8735 21.7108 23.021 16.0393 23.021ZM16.0393 9.34505C10.6842 9.34505 6.74091 12.456 6.74091 15.9939C6.74091 19.5319 10.6964 22.0938 16.0393 22.0938C21.3821 22.0938 25.3376 19.5319 25.3376 15.9939C25.3376 12.456 21.3821 9.34505 16.0393 9.34505Z" fill="#00CB62"/>
<path d="M16.0391 21.5326C10.8788 21.5326 6.67993 19.0561 6.67993 16.0061C6.67993 12.9562 10.8788 10.4796 16.0391 10.4796C21.1995 10.4796 25.3983 12.9562 25.3983 16.0061C25.3983 19.0561 21.1995 21.5326 16.0391 21.5326ZM16.0391 10.8456C11.2074 10.8456 7.67792 13.2856 7.67792 16.0061C7.67792 18.7267 11.2074 20.6054 16.0391 20.6054C20.8709 20.6054 24.4003 18.7145 24.4003 16.0061C24.4003 13.2978 20.8709 10.8456 16.0391 10.8456Z" fill="#00CB62"/>
<path d="M16.039 20.032C11.3168 20.032 7.61694 18.263 7.61694 15.9939C7.61694 13.7369 11.3168 11.9557 16.039 11.9557C20.7612 11.9557 24.4611 13.7247 24.4611 15.9939C24.4489 18.263 20.749 20.032 16.039 20.032ZM16.039 12.3461C11.8036 12.3461 8.6271 14.1395 8.6271 16.0061C8.6271 17.8604 11.8036 19.117 16.039 19.117C20.2744 19.117 23.4509 17.8726 23.4509 16.0061C23.4509 14.1395 20.2744 12.3461 16.039 12.3461Z" fill="#00CB62"/>
<path d="M16.0392 18.5437C12.4123 18.5437 8.56641 17.6531 8.56641 16.0061C8.56641 14.3592 12.4123 13.4686 16.0392 13.4686C19.666 13.4686 23.5119 14.3592 23.5119 16.0061C23.5119 17.6531 19.6538 18.5437 16.0392 18.5437ZM16.0392 13.8346C12.1081 13.8346 9.5644 15.0789 9.5644 15.9939C9.5644 16.9089 12.1081 17.6043 16.0392 17.6043C19.9703 17.6043 22.5139 16.9089 22.5139 15.9939C22.5139 15.0911 19.9703 13.8346 16.0392 13.8346Z" fill="#00CB62"/>
<path d="M16.039 14.9569C13.6049 14.9569 9.50342 15.0911 9.50342 15.9939C9.50342 16.8967 13.5927 17.0309 16.039 17.0309C18.4732 17.0309 22.5747 16.8967 22.5747 15.9939C22.5625 15.0911 18.4732 14.9569 16.039 14.9569ZM16.039 16.2745C13.9822 16.2745 10.5379 16.2379 10.5379 15.9939C10.5379 15.7499 13.9822 15.7133 16.039 15.7133C18.0959 15.7133 21.5401 15.7499 21.5401 15.9939C21.528 16.2379 18.0837 16.2745 16.039 16.2745Z" fill="#00CB62"/>
<path d="M50.9567 16.0061V3.20856H48.3279V8.28366H41.0012V3.20856H38.3723V16.0061H41.0012V10.9188H48.3279V16.0061H50.9567Z" fill="black"/>
<path d="M80.1781 3.20856H76.9407L73.8251 8.28366H69.8818V3.20856H67.2529V16.0061H69.8818V10.9188H73.8251L76.9407 16.0061H80.1781L76.2592 9.60124L80.1781 3.20856Z" fill="black"/>
<path d="M65.8289 9.60124C65.8289 6.0755 62.9688 3.20856 59.4515 3.20856H52.7212V5.84371H59.4515C60.9972 5.84371 62.3603 6.78309 62.9323 8.22266L62.9688 8.32026H55.2527V10.8944H62.9688L62.9323 10.992C62.3603 12.4316 60.9972 13.371 59.4515 13.371H52.7212V16.0061H59.4515C62.9688 16.0061 65.8289 13.127 65.8289 9.60124Z" fill="black"/>
<path d="M84.6936 20.8128L82.7463 23.9847H80.2756V20.8128H78.6448V28.8037H80.2756V25.6317H82.7463L84.6936 28.8037H86.7139L84.2676 24.8021L86.7139 20.8128H84.6936Z" fill="black"/>
<path d="M76.6851 28.8037V20.8128H73.825L71.9264 25.5463L70.0156 20.8128H67.1677V28.8037H68.8108V22.4598H68.9081L71.111 27.9375H72.7419L74.9326 22.4598H75.0421V28.8037H76.6851Z" fill="black"/>
<path d="M40.0153 25.6317H44.5915V28.8037H46.2345V20.8128H44.5915V23.9847H40.0153V20.8128H38.3723V28.8037H40.0153V25.6317Z" fill="black"/>
<path d="M52.3684 28.8037V22.4598H55.5328V20.8128H47.561V22.4598H50.7254V28.8037H52.3684Z" fill="black"/>
<path d="M62.9934 20.8128H56.969V22.4598H62.9934C63.4072 22.4598 63.748 22.8014 63.748 23.2162C63.748 23.631 63.4072 23.9725 62.9934 23.9725H58.7459V25.6195H62.9934C63.4072 25.6195 63.748 25.9611 63.748 26.3759C63.748 26.8029 63.4072 27.1323 62.9934 27.1323H56.969V28.7793H62.9934C64.32 28.7793 65.391 27.6935 65.391 26.3759C65.391 25.7659 65.172 25.2169 64.7947 24.7899C65.1598 24.3629 65.391 23.8139 65.391 23.204C65.391 21.8986 64.3079 20.8128 62.9934 20.8128Z" fill="black"/>
</g>
<defs>
<clipPath id="clip0_2001_1208">
<rect width="87" height="32" fill="white"/>
</clipPath>
</defs>
</svg>
