<svg width="130" height="48" viewBox="0 0 130 48" fill="none" xmlns="http://www.w3.org/2000/svg">
<g clip-path="url(#clip0_624_1857)">
<path d="M23.9945 47.8722C10.8122 47.8722 0.0913086 37.1407 0.0913086 23.9452C0.0913086 10.7498 10.8122 0 23.9945 0C37.1769 0 47.8978 10.7316 47.8978 23.927C47.8978 37.1224 37.1769 47.8722 23.9945 47.8722ZM23.9945 0.565779C11.3045 0.565779 1.5864 11.2426 1.5864 23.9452C1.5864 36.6479 11.3045 46.4852 23.9945 46.4852C36.6846 46.4852 46.4027 36.6297 46.4027 23.927C46.4027 11.2243 36.6663 0.565779 23.9945 0.565779Z" fill="#00CB62"/>
<path d="M23.9944 45.6274C11.5961 45.6274 1.49512 35.8996 1.49512 23.927C1.49512 11.9544 11.5779 2.24487 23.9944 2.24487C36.411 2.24487 46.4937 11.9726 46.4937 23.9453C46.4937 35.9179 36.3927 45.6274 23.9944 45.6274ZM23.9944 2.81065C12.0884 2.81065 2.99021 12.4837 2.99021 23.9453C2.99021 35.4068 12.0884 44.2586 23.9944 44.2586C35.9004 44.2586 44.9804 35.4068 44.9804 23.9453C44.9804 12.4837 35.9004 2.81065 23.9944 2.81065Z" fill="#00CB62"/>
<path d="M23.9946 43.4008C12.3621 43.4008 2.91748 34.6768 2.91748 23.9453C2.91748 13.2137 12.3803 4.48975 23.9946 4.48975C35.6272 4.48975 45.0718 13.2137 45.0718 23.9453C45.0718 34.6586 35.6089 43.4008 23.9946 43.4008ZM23.9946 5.03727C12.8726 5.03727 4.41257 13.7065 4.41257 23.927C4.41257 34.1658 12.8726 41.9954 23.9946 41.9954C35.1166 41.9954 43.5767 34.1475 43.5767 23.927C43.5767 13.7065 35.1166 5.03727 23.9946 5.03727Z" fill="#00CB62"/>
<path d="M23.9945 41.1559C13.146 41.1559 4.32129 33.4358 4.32129 23.9453C4.32129 14.4548 13.146 6.73462 23.9945 6.73462C34.843 6.73462 43.6677 14.4548 43.6677 23.9453C43.6677 33.4358 34.8248 41.1559 23.9945 41.1559ZM23.9945 7.28215C13.6383 7.28215 5.81638 14.9475 5.81638 23.9453C5.81638 32.943 13.6383 39.7871 23.9945 39.7871C34.3507 39.7871 42.1726 32.943 42.1726 23.9453C42.1726 14.9475 34.3325 7.28215 23.9945 7.28215Z" fill="#00CB62"/>
<path d="M23.9947 38.9111C13.9302 38.9111 5.74365 32.1947 5.74365 23.927C5.74365 15.6593 13.9302 8.94299 23.9947 8.94299C34.0592 8.94299 42.2458 15.6593 42.2458 23.927C42.2458 32.1947 34.0592 38.9111 23.9947 38.9111ZM23.9947 9.50877C14.4225 9.50877 7.23874 16.1704 7.23874 23.927C7.23874 31.6837 14.4225 37.524 23.9947 37.524C33.5669 37.524 40.7507 31.6837 40.7507 23.927C40.7507 16.1704 33.5669 9.50877 23.9947 9.50877Z" fill="#00CB62"/>
<path d="M23.9946 36.6844C14.7141 36.6844 7.14746 30.9718 7.14746 23.9452C7.14746 16.9186 14.6958 11.2061 23.9946 11.2061C33.2933 11.2061 40.8417 16.9186 40.8417 23.9452C40.8417 30.9718 33.2751 36.6844 23.9946 36.6844ZM23.9946 11.7536C15.2064 11.7536 8.64255 17.4114 8.64255 23.9452C8.64255 30.4791 15.2064 35.3156 23.9946 35.3156C32.7828 35.3156 39.3466 30.4791 39.3466 23.9452C39.3284 17.4114 32.7828 11.7536 23.9946 11.7536Z" fill="#00CB62"/>
<path d="M23.9943 34.4395C15.4796 34.4395 8.56934 29.7308 8.56934 23.927C8.56934 18.1232 15.4978 13.4144 23.9943 13.4144C32.4908 13.4144 39.4193 18.1232 39.4193 23.927C39.4193 29.7308 32.4908 34.4395 23.9943 34.4395ZM23.9943 13.9802C15.9719 13.9802 10.0644 18.6342 10.0644 23.927C10.0644 29.2198 15.9901 33.0525 23.9943 33.0525C31.9985 33.0525 37.9242 29.2198 37.9242 23.927C37.9242 18.6342 31.9985 13.9802 23.9943 13.9802Z" fill="#00CB62"/>
<path d="M23.9947 32.2129C16.264 32.2129 9.97363 28.508 9.97363 23.9452C9.97363 19.3825 16.264 15.6776 23.9947 15.6776C31.7254 15.6776 38.0157 19.3825 38.0157 23.9452C38.0157 28.508 31.7254 32.2129 23.9947 32.2129ZM23.9947 16.2251C16.7562 16.2251 11.4687 19.8753 11.4687 23.9452C11.4687 28.0152 16.7562 30.8258 23.9947 30.8258C31.2331 30.8258 36.5206 27.9969 36.5206 23.9452C36.5206 19.8935 31.2331 16.2251 23.9947 16.2251Z" fill="#00CB62"/>
<path d="M23.9946 29.9681C16.9202 29.9681 11.3774 27.3217 11.3774 23.927C11.3774 20.5506 16.9202 17.8859 23.9946 17.8859C31.0689 17.8859 36.6117 20.5323 36.6117 23.927C36.5934 27.3217 31.0507 29.9681 23.9946 29.9681ZM23.9946 18.47C17.6495 18.47 12.8908 21.1528 12.8908 23.9452C12.8908 26.7194 17.6495 28.5992 23.9946 28.5992C30.3396 28.5992 35.0983 26.7376 35.0983 23.9452C35.0983 21.1528 30.3396 18.47 23.9946 18.47Z" fill="#00CB62"/>
<path d="M23.9948 27.7414C18.5614 27.7414 12.7998 26.4091 12.7998 23.9452C12.7998 21.4814 18.5614 20.149 23.9948 20.149C29.4281 20.149 35.1897 21.4814 35.1897 23.9452C35.1897 26.4091 29.4099 27.7414 23.9948 27.7414ZM23.9948 20.6966C18.1056 20.6966 14.2949 22.5582 14.2949 23.927C14.2949 25.2958 18.1056 26.3361 23.9948 26.3361C29.884 26.3361 33.6946 25.2958 33.6946 23.927C33.6946 22.5764 29.884 20.6966 23.9948 20.6966Z" fill="#00CB62"/>
<path d="M23.9946 22.3757C20.3481 22.3757 14.2036 22.5764 14.2036 23.927C14.2036 25.2776 20.3298 25.4783 23.9946 25.4783C27.6412 25.4783 33.7857 25.2776 33.7857 23.927C33.7674 22.5764 27.6412 22.3757 23.9946 22.3757ZM23.9946 24.3468C20.9133 24.3468 15.7534 24.292 15.7534 23.927C15.7534 23.562 20.9133 23.5072 23.9946 23.5072C27.076 23.5072 32.2359 23.562 32.2359 23.927C32.2176 24.292 27.0578 24.3468 23.9946 24.3468Z" fill="#00CB62"/>
<path d="M76.3044 23.9452V4.79999H72.3661V12.3924H61.39V4.79999H57.4517V23.9452H61.39V16.3346H72.3661V23.9452H76.3044Z" fill="black"/>
<path d="M120.082 4.79999H115.232L110.564 12.3924H104.657V4.79999H100.718V23.9452H104.657V16.3346H110.564L115.232 23.9452H120.082L114.211 14.3635L120.082 4.79999Z" fill="black"/>
<path d="M98.585 14.3635C98.585 9.08896 94.3003 4.79999 89.031 4.79999H78.9482V8.74219H89.031C91.3466 8.74219 93.3886 10.1475 94.2456 12.3011L94.3003 12.4471H82.7407V16.2981H94.3003L94.2456 16.4441C93.3886 18.5977 91.3466 20.003 89.031 20.003H78.9482V23.9452H89.031C94.3003 23.9452 98.585 19.638 98.585 14.3635Z" fill="black"/>
<path d="M126.846 31.1361L123.929 35.8814H120.227V31.1361H117.784V43.0905H120.227V38.3452H123.929L126.846 43.0905H129.873L126.208 37.1042L129.873 31.1361H126.846Z" fill="black"/>
<path d="M114.848 43.0905V31.1361H110.564L107.719 38.2175L104.857 31.1361H100.59V43.0905H103.052V33.6H103.198L106.498 41.7947H108.941L112.223 33.6H112.387V43.0905H114.848Z" fill="black"/>
<path d="M59.9131 38.3452H66.7686V43.0905H69.2301V31.1361H66.7686V35.8814H59.9131V31.1361H57.4517V43.0905H59.9131V38.3452Z" fill="black"/>
<path d="M78.4192 43.0905V33.6H83.1598V31.1361H71.2173V33.6H75.9578V43.0905H78.4192Z" fill="black"/>
<path d="M94.3368 31.1361H85.3115V33.6H94.3368C94.9567 33.6 95.4672 34.111 95.4672 34.7315C95.4672 35.3521 94.9567 35.8631 94.3368 35.8631H87.9735V38.327H94.3368C94.9567 38.327 95.4672 38.838 95.4672 39.4585C95.4672 40.0973 94.9567 40.5901 94.3368 40.5901H85.3115V43.054H94.3368C96.3241 43.054 97.9286 41.4296 97.9286 39.4585C97.9286 38.546 97.6004 37.7247 97.0352 37.0859C97.5822 36.4471 97.9286 35.6258 97.9286 34.7133C97.9286 32.7604 96.3059 31.1361 94.3368 31.1361Z" fill="black"/>
</g>
<defs>
<clipPath id="clip0_624_1857">
<rect width="130" height="48" fill="white"/>
</clipPath>
</defs>
</svg>
