<svg width="1024" height="589" viewBox="0 0 1024 589" fill="none" xmlns="http://www.w3.org/2000/svg">
<g clip-path="url(#clip0_175_910)">
<g opacity="0.7">
<path d="M1401.01 2792.9C1401.01 2792.9 461.567 1044.82 149.926 462.889C-157.346 -110.936 -665.662 21.8846 -779.656 221.069" stroke="#F5F5F5" stroke-width="2.94878" stroke-miterlimit="10"/>
<path d="M1424.34 2760.46C1424.34 2760.46 497.31 1035.29 191.131 463.526C-123.332 -123.772 -637.959 35.2363 -752.105 241.4" stroke="#F5F5F5" stroke-width="3.41626" stroke-miterlimit="10"/>
<path d="M1447.71 2727.99C1447.71 2727.99 533.112 1025.7 232.364 464.103C-89.3196 -136.668 -610.258 48.5582 -724.556 261.732" stroke="#F5F5F5" stroke-width="3.84779" stroke-miterlimit="10"/>
<path d="M1471.04 2695.55C1471.04 2695.55 568.856 1016.14 273.569 464.739C-55.336 -149.505 -582.586 61.9089 -697.005 282.062" stroke="#F5F5F5" stroke-width="4.31528" stroke-miterlimit="10"/>
<path d="M1494.4 2663.12C1494.4 2663.12 604.659 1006.61 314.804 465.347C-21.323 -162.371 -554.884 75.2917 -669.424 302.394" stroke="#F5F5F5" stroke-width="4.74681" stroke-miterlimit="10"/>
<path d="M1517.77 2630.68C1517.77 2630.68 640.432 997.053 356.038 465.954C12.7202 -175.206 -527.152 88.6439 -641.874 322.756" stroke="#F5F5F5" stroke-width="5.17834" stroke-miterlimit="10"/>
<path d="M1541.1 2598.24C1541.1 2598.24 676.205 987.495 397.272 466.592C46.7031 -188.072 -499.48 101.996 -614.324 343.087" stroke="#F5F5F5" stroke-width="5.64583" stroke-miterlimit="10"/>
<path d="M1564.46 2565.8C1564.46 2565.8 712.009 977.966 438.508 467.198C80.717 -200.909 -471.777 115.347 -586.773 363.418" stroke="#F5F5F5" stroke-width="6.07735" stroke-miterlimit="10"/>
<path d="M1587.82 2533.33C1587.82 2533.33 747.781 968.377 479.741 467.805C114.729 -213.805 -444.076 128.669 -559.193 383.749" stroke="#F5F5F5" stroke-width="6.50888" stroke-miterlimit="10"/>
<path d="M1611.16 2500.89C1611.16 2500.89 783.554 958.819 520.946 468.413C148.713 -226.64 -416.373 142.052 -531.672 404.081" stroke="#F5F5F5" stroke-width="6.97637" stroke-miterlimit="10"/>
<path d="M1634.52 2468.45C1634.52 2468.45 819.327 949.29 562.181 469.05C182.756 -239.507 -388.671 155.403 -504.092 424.442" stroke="#F5F5F5" stroke-width="7.4079" stroke-miterlimit="10"/>
<path d="M1657.88 2436.01C1657.88 2436.01 855.131 939.731 603.415 469.656C216.769 -252.344 -360.969 168.754 -476.541 444.773" stroke="#F5F5F5" stroke-width="7.87539" stroke-miterlimit="10"/>
<path d="M1681.22 2403.58C1681.22 2403.58 890.874 930.172 644.619 470.293C250.752 -265.21 -333.267 182.106 -448.991 465.104" stroke="#F5F5F5" stroke-width="8.30691" stroke-miterlimit="10"/>
<path d="M1704.58 2371.14C1704.58 2371.14 926.677 920.644 685.854 470.9C284.765 -278.046 -305.565 195.488 -421.41 485.465" stroke="#F5F5F5" stroke-width="8.73844" stroke-miterlimit="10"/>
<path d="M1727.91 2338.67C1727.91 2338.67 962.419 911.056 727.058 471.508C318.778 -290.941 -277.894 208.811 -393.89 505.768" stroke="#F5F5F5" stroke-width="9.20593" stroke-miterlimit="10"/>
<path d="M1751.28 2306.23C1751.28 2306.23 998.223 901.497 768.292 472.115C352.792 -303.777 -250.191 222.163 -366.309 526.099" stroke="#F5F5F5" stroke-width="9.63746" stroke-miterlimit="10"/>
<path d="M1774.64 2273.79C1774.64 2273.79 1034 891.968 809.527 472.751C386.805 -316.645 -222.458 235.513 -338.759 546.459" stroke="#F5F5F5" stroke-width="10.069" stroke-miterlimit="10"/>
<path d="M1797.97 2241.35C1797.97 2241.35 1069.77 882.411 850.731 473.36C420.788 -329.479 -194.787 248.867 -311.209 566.792" stroke="#F5F5F5" stroke-width="10.5365" stroke-miterlimit="10"/>
<path d="M1821.34 2208.91C1821.34 2208.91 1105.54 872.851 891.966 473.996C454.831 -342.346 -167.085 262.248 -283.658 587.153" stroke="#F5F5F5" stroke-width="10.968" stroke-miterlimit="10"/>
<path d="M1844.7 2176.47C1844.7 2176.47 1141.35 863.321 933.201 474.601C488.845 -355.214 -139.383 275.599 -256.077 607.482" stroke="#F5F5F5" stroke-width="11.4355" stroke-miterlimit="10"/>
<path d="M1868.03 2144C1868.03 2144 1177.12 853.733 974.404 475.209C522.827 -368.079 -111.681 288.921 -228.558 627.784" stroke="#F5F5F5" stroke-width="11.867" stroke-miterlimit="10"/>
</g>
<rect x="170.406" y="366.226" width="1154.25" height="222.774" fill="url(#paint0_linear_175_910)"/>
</g>
<defs>
<linearGradient id="paint0_linear_175_910" x1="747.531" y1="366.226" x2="747.531" y2="589" gradientUnits="userSpaceOnUse">
<stop stop-color="white" stop-opacity="0"/>
<stop offset="1" stop-color="white"/>
</linearGradient>
<clipPath id="clip0_175_910">
<rect width="1620" height="589" fill="white" transform="translate(-11)"/>
</clipPath>
</defs>
</svg>
