<svg width="594" height="147" viewBox="0 0 594 147" fill="none" xmlns="http://www.w3.org/2000/svg">
<g opacity="0.3">
<path d="M135.292 33.6696C60.5722 163.088 104.914 328.574 234.332 403.293C363.75 478.013 529.236 433.671 603.956 304.253C678.676 174.835 634.334 9.34872 504.916 -65.3709C375.498 -140.09 210.011 -95.7485 135.292 33.6696Z" stroke="#C8C7C7" stroke-width="0.64" stroke-miterlimit="10"/>
<path d="M159.421 47.6C85.5741 175.506 119.821 333.53 235.913 400.556C352.005 467.582 505.98 418.228 579.827 290.322C653.674 162.415 619.428 4.39144 503.336 -62.6343C387.244 -129.66 233.268 -80.3065 159.421 47.6Z" stroke="#C8C7C7" stroke-width="1.13" stroke-miterlimit="10"/>
<path d="M183.55 61.5309C110.576 187.926 134.727 338.487 237.493 397.819C340.259 457.151 482.724 402.786 555.698 276.391C628.673 149.996 604.522 -0.565336 501.756 -59.8973C398.99 -119.229 256.524 -64.864 183.55 61.5309Z" stroke="#C8C7C7" stroke-width="1.62" stroke-miterlimit="10"/>
<path d="M207.693 75.4713C135.591 200.355 149.64 343.45 239.072 395.083C328.504 446.717 459.453 387.336 531.554 262.453C603.656 137.57 589.606 -5.52547 500.174 -57.159C410.743 -108.793 279.794 -49.4119 207.693 75.4713Z" stroke="#C8C7C7" stroke-width="2.12" stroke-miterlimit="10"/>
<path d="M231.822 89.4023C160.593 212.774 164.547 348.406 240.653 392.346C316.759 436.286 436.197 371.894 507.425 248.522C578.654 125.15 574.7 -10.4822 498.594 -54.422C422.489 -98.3617 303.05 -33.9694 231.822 89.4023Z" stroke="#C8C7C7" stroke-width="2.61" stroke-miterlimit="10"/>
<path d="M255.951 103.332C185.595 225.192 179.453 353.363 242.233 389.608C305.013 425.854 412.941 356.45 483.297 234.59C553.652 112.73 559.794 -15.4398 497.014 -51.6857C434.235 -87.9316 326.307 -18.5276 255.951 103.332Z" stroke="#C8C7C7" stroke-width="3.11" stroke-miterlimit="10"/>
<path d="M280.08 117.264C210.592 237.62 194.351 358.334 243.805 386.886C293.258 415.438 389.68 341.016 459.167 220.66C528.655 100.303 544.896 -20.4107 495.442 -48.9628C445.989 -77.5149 349.568 -3.09281 280.08 117.264Z" stroke="#C8C7C7" stroke-width="3.6" stroke-miterlimit="10"/>
<path d="M304.224 131.203C235.609 250.047 209.266 363.295 245.386 384.149C281.506 405.003 366.41 325.565 435.025 206.72C503.64 87.8757 529.983 -25.3723 493.863 -46.226C457.743 -67.0797 372.839 12.3578 304.224 131.203Z" stroke="#C8C7C7" stroke-width="4.1" stroke-miterlimit="10"/>
<path d="M328.353 145.133C260.611 262.466 224.173 368.252 246.966 381.412C269.76 394.571 343.154 310.122 410.896 192.789C478.638 75.4562 515.077 -30.3293 492.283 -43.4892C469.489 -56.6491 396.096 27.8001 328.353 145.133Z" stroke="#C8C7C7" stroke-width="4.59" stroke-miterlimit="10"/>
<path d="M352.483 159.063C285.613 274.885 239.079 373.208 248.547 378.674C258.014 384.14 319.898 294.679 386.767 178.857C453.637 63.0359 500.171 -35.2871 490.703 -40.7531C481.236 -46.2192 419.352 43.2416 352.483 159.063Z" stroke="#C8C7C7" stroke-width="5.08" stroke-miterlimit="10"/>
</g>
</svg>
