<svg width="360" height="656" viewBox="0 0 360 656" fill="none" xmlns="http://www.w3.org/2000/svg">
<g opacity="0.7">
<path d="M1030.07 3335.04C1030.07 3335.04 -112.335 1210.03 -491.306 502.629C-864.963 -194.923 -1483.1 -33.4643 -1621.72 208.669" stroke="#F5F5F5" stroke-width="2.94878" stroke-miterlimit="10"/>
<path d="M1058.45 3295.61C1058.45 3295.61 -68.8698 1198.45 -441.199 503.404C-823.601 -210.527 -1449.41 -17.2337 -1588.22 233.384" stroke="#F5F5F5" stroke-width="3.41626" stroke-miterlimit="10"/>
<path d="M1086.86 3256.14C1086.86 3256.14 -25.3323 1186.79 -391.057 504.105C-782.24 -226.204 -1415.73 -1.03946 -1554.72 258.099" stroke="#F5F5F5" stroke-width="3.84779" stroke-miterlimit="10"/>
<path d="M1115.23 3216.7C1115.23 3216.7 18.1332 1175.17 -340.95 504.879C-740.915 -241.809 -1382.08 15.1902 -1521.22 282.813" stroke="#F5F5F5" stroke-width="4.31528" stroke-miterlimit="10"/>
<path d="M1143.64 3177.27C1143.64 3177.27 61.6718 1163.59 -290.807 505.617C-699.553 -257.448 -1348.39 31.4586 -1487.68 307.529" stroke="#F5F5F5" stroke-width="4.74681" stroke-miterlimit="10"/>
<path d="M1172.05 3137.84C1172.05 3137.84 105.173 1151.97 -240.664 506.355C-658.155 -273.052 -1314.67 47.6897 -1454.17 332.281" stroke="#F5F5F5" stroke-width="5.17834" stroke-miterlimit="10"/>
<path d="M1200.43 3098.4C1200.43 3098.4 148.675 1140.35 -190.521 507.13C-616.83 -288.692 -1281.02 63.9209 -1420.67 356.996" stroke="#F5F5F5" stroke-width="5.64583" stroke-miterlimit="10"/>
<path d="M1228.84 3058.97C1228.84 3058.97 192.215 1128.77 -140.376 507.867C-575.468 -304.296 -1247.33 80.1506 -1387.17 381.71" stroke="#F5F5F5" stroke-width="6.07735" stroke-miterlimit="10"/>
<path d="M1257.25 3019.5C1257.25 3019.5 235.715 1117.11 -90.2341 508.606C-534.107 -319.973 -1213.64 96.345 -1353.63 406.426" stroke="#F5F5F5" stroke-width="6.50888" stroke-miterlimit="10"/>
<path d="M1285.62 2980.07C1285.62 2980.07 279.218 1105.49 -40.1272 509.344C-492.781 -335.576 -1179.95 112.613 -1320.16 431.142" stroke="#F5F5F5" stroke-width="6.97637" stroke-miterlimit="10"/>
<path d="M1314.03 2940.63C1314.03 2940.63 322.719 1093.91 10.0159 510.118C-451.383 -351.217 -1146.27 128.843 -1286.62 455.893" stroke="#F5F5F5" stroke-width="7.4079" stroke-miterlimit="10"/>
<path d="M1342.45 2901.2C1342.45 2901.2 366.258 1082.29 60.1591 510.855C-410.021 -366.822 -1112.58 145.074 -1253.12 480.607" stroke="#F5F5F5" stroke-width="7.87539" stroke-miterlimit="10"/>
<path d="M1370.82 2861.77C1370.82 2861.77 409.723 1070.67 110.265 511.63C-368.696 -382.462 -1078.89 161.305 -1219.62 505.322" stroke="#F5F5F5" stroke-width="8.30691" stroke-miterlimit="10"/>
<path d="M1399.23 2822.33C1399.23 2822.33 453.261 1059.08 160.409 512.367C-327.335 -398.066 -1045.21 177.572 -1186.08 530.074" stroke="#F5F5F5" stroke-width="8.73844" stroke-miterlimit="10"/>
<path d="M1427.6 2782.86C1427.6 2782.86 496.726 1047.43 210.515 513.107C-285.973 -413.741 -1011.56 193.768 -1152.61 554.754" stroke="#F5F5F5" stroke-width="9.20593" stroke-miterlimit="10"/>
<path d="M1456.01 2743.43C1456.01 2743.43 540.265 1035.81 260.658 513.845C-244.611 -429.345 -977.868 209.998 -1119.07 579.469" stroke="#F5F5F5" stroke-width="9.63746" stroke-miterlimit="10"/>
<path d="M1484.43 2704C1484.43 2704 583.767 1024.23 310.802 514.618C-203.249 -444.987 -944.144 226.227 -1085.57 604.219" stroke="#F5F5F5" stroke-width="10.069" stroke-miterlimit="10"/>
<path d="M1512.8 2664.56C1512.8 2664.56 627.268 1012.61 360.908 515.358C-161.925 -460.588 -910.494 242.461 -1052.07 628.936" stroke="#F5F5F5" stroke-width="10.5365" stroke-miterlimit="10"/>
<path d="M1541.21 2625.13C1541.21 2625.13 670.77 1000.99 411.051 516.131C-120.526 -476.231 -876.807 258.726 -1018.57 653.687" stroke="#F5F5F5" stroke-width="10.968" stroke-miterlimit="10"/>
<path d="M1569.62 2585.69C1569.62 2585.69 714.309 989.403 461.195 516.867C-79.1639 -491.873 -843.119 274.955 -985.026 678.4" stroke="#F5F5F5" stroke-width="11.4355" stroke-miterlimit="10"/>
<path d="M1598 2546.23C1598 2546.23 757.81 977.748 511.3 517.606C-37.8399 -507.512 -809.433 291.151 -951.561 703.079" stroke="#F5F5F5" stroke-width="11.867" stroke-miterlimit="10"/>
</g>
</svg>
