<svg width="1920" height="640" viewBox="0 0 1920 640" fill="none" xmlns="http://www.w3.org/2000/svg">
<g opacity="0.7">
<path d="M1673.49 3251.23C1673.49 3251.23 560.079 1179.65 190.727 490.03C-173.447 -189.986 -775.896 -32.586 -911 203.46" stroke="#F5F5F5" stroke-width="2.94878" stroke-miterlimit="10"/>
<path d="M1701.15 3212.79C1701.15 3212.79 602.442 1168.36 239.563 490.786C-133.134 -205.197 -743.063 -16.7633 -878.347 227.553" stroke="#F5F5F5" stroke-width="3.41626" stroke-miterlimit="10"/>
<path d="M1728.84 3174.31C1728.84 3174.31 644.874 1156.99 288.432 491.469C-92.8233 -220.48 -710.232 -0.976198 -845.696 251.647" stroke="#F5F5F5" stroke-width="3.84779" stroke-miterlimit="10"/>
<path d="M1756.49 3135.87C1756.49 3135.87 687.237 1145.66 337.267 492.223C-52.5464 -235.693 -677.435 14.8454 -813.043 275.74" stroke="#F5F5F5" stroke-width="4.31528" stroke-miterlimit="10"/>
<path d="M1784.18 3097.43C1784.18 3097.43 729.67 1134.37 386.138 492.943C-12.2346 -250.939 -644.603 30.7048 -780.355 299.834" stroke="#F5F5F5" stroke-width="4.74681" stroke-miterlimit="10"/>
<path d="M1811.87 3058.99C1811.87 3058.99 772.067 1123.05 435.008 493.663C28.1127 -266.15 -611.736 46.5278 -747.703 323.964" stroke="#F5F5F5" stroke-width="5.17834" stroke-miterlimit="10"/>
<path d="M1839.52 3020.55C1839.52 3020.55 814.465 1111.72 483.878 494.419C68.3887 -281.397 -578.939 62.3511 -715.05 348.059" stroke="#F5F5F5" stroke-width="5.64583" stroke-miterlimit="10"/>
<path d="M1867.21 2982.1C1867.21 2982.1 856.899 1100.43 532.75 495.137C108.702 -296.609 -546.106 78.1728 -682.397 372.151" stroke="#F5F5F5" stroke-width="6.07735" stroke-miterlimit="10"/>
<path d="M1894.9 2943.63C1894.9 2943.63 899.296 1089.06 581.62 495.856C149.013 -311.892 -513.275 93.96 -649.71 396.245" stroke="#F5F5F5" stroke-width="6.50888" stroke-miterlimit="10"/>
<path d="M1922.56 2905.19C1922.56 2905.19 941.694 1077.74 630.455 496.577C189.289 -327.103 -480.443 109.82 -617.093 420.34" stroke="#F5F5F5" stroke-width="6.97637" stroke-miterlimit="10"/>
<path d="M1950.25 2866.74C1950.25 2866.74 984.092 1066.44 679.325 497.331C229.637 -342.351 -447.611 125.642 -584.405 444.469" stroke="#F5F5F5" stroke-width="7.4079" stroke-miterlimit="10"/>
<path d="M1977.94 2828.3C1977.94 2828.3 1026.53 1055.12 728.196 498.05C269.949 -357.563 -414.778 141.464 -551.753 468.562" stroke="#F5F5F5" stroke-width="7.87539" stroke-miterlimit="10"/>
<path d="M2005.59 2789.86C2005.59 2789.86 1068.89 1043.79 777.03 498.805C310.225 -372.81 -381.946 157.287 -519.1 492.656" stroke="#F5F5F5" stroke-width="8.30691" stroke-miterlimit="10"/>
<path d="M2033.28 2751.42C2033.28 2751.42 1111.32 1032.5 825.901 499.524C350.537 -388.022 -349.114 173.145 -486.412 516.785" stroke="#F5F5F5" stroke-width="8.73844" stroke-miterlimit="10"/>
<path d="M2060.93 2712.94C2060.93 2712.94 1153.68 1021.14 874.735 500.245C390.848 -403.303 -316.318 188.933 -453.796 540.845" stroke="#F5F5F5" stroke-width="9.20593" stroke-miterlimit="10"/>
<path d="M2088.62 2674.5C2088.62 2674.5 1196.12 1009.81 923.606 500.964C431.161 -418.514 -283.486 204.756 -421.107 564.938" stroke="#F5F5F5" stroke-width="9.63746" stroke-miterlimit="10"/>
<path d="M2116.31 2636.06C2116.31 2636.06 1238.51 998.514 972.477 501.717C471.473 -433.763 -250.617 220.577 -388.455 589.066" stroke="#F5F5F5" stroke-width="10.069" stroke-miterlimit="10"/>
<path d="M2143.97 2597.62C2143.97 2597.62 1280.91 987.189 1021.31 502.439C511.748 -448.972 -217.822 236.402 -355.803 613.162" stroke="#F5F5F5" stroke-width="10.5365" stroke-miterlimit="10"/>
<path d="M2171.66 2559.17C2171.66 2559.17 1323.31 975.86 1070.18 503.193C552.096 -464.221 -184.99 252.259 -323.151 637.29" stroke="#F5F5F5" stroke-width="10.968" stroke-miterlimit="10"/>
<path d="M2199.35 2520.73C2199.35 2520.73 1365.74 964.566 1119.05 503.91C592.409 -479.47 -152.157 268.08 -290.462 661.382" stroke="#F5F5F5" stroke-width="11.4355" stroke-miterlimit="10"/>
<path d="M2227 2482.25C2227 2482.25 1408.14 953.204 1167.89 504.631C632.684 -494.716 -119.326 283.868 -257.846 685.441" stroke="#F5F5F5" stroke-width="11.867" stroke-miterlimit="10"/>
</g>
</svg>
