<svg width="278" height="568" viewBox="0 0 278 568" fill="none" xmlns="http://www.w3.org/2000/svg">
<path d="M479.263 377.383C451.638 391.503 431.08 421.668 424.013 458.893H422.085C415.019 422.951 395.745 393.428 369.405 378.667C362.981 351.711 359.126 320.904 359.126 299.082C359.126 254.798 374.545 216.931 397.03 199.602L389.963 189.333C362.338 203.453 341.78 233.618 334.713 270.843H332.143C325.076 234.26 305.161 204.737 278.821 190.617C271.754 163.019 267.899 132.212 267.899 109.749C267.899 65.4644 283.318 27.5977 305.803 10.2689L298.736 0C271.111 14.1198 250.553 44.2847 243.486 81.5096H241.559C234.492 44.2847 213.291 13.478 186.309 0L179.242 10.2689C201.727 27.5977 217.146 65.4644 217.146 109.749C217.146 154.034 213.291 163.019 206.224 190.617C179.884 204.737 159.968 234.902 152.902 270.843H150.332C143.265 233.618 122.064 202.811 95.0816 189.333L88.0148 199.602C110.5 216.931 125.919 254.798 125.919 299.082C125.919 343.367 122.064 351.711 115.64 378.667C89.9421 393.428 70.0264 422.951 62.9595 458.893H61.0321C53.9653 421.668 32.7646 390.861 5.78199 377.383L0 387.652C22.4855 404.981 37.9042 442.847 37.9042 487.132C37.9042 509.595 34.0495 541.044 26.9826 568H42.4013C53.9653 540.402 62.317 510.237 62.317 487.132H64.2444C64.2444 510.237 71.9537 540.402 84.1601 568H99.5788C92.5119 540.402 88.6572 509.595 88.6572 487.132C88.6572 426.802 117.567 378.025 153.544 378.025C189.521 378.025 218.431 426.802 218.431 487.132C218.431 547.462 214.576 541.044 207.509 568H222.928C234.492 540.402 242.844 510.237 242.844 487.132H244.771C244.771 510.237 252.48 540.402 264.687 568H280.105C273.039 540.402 269.184 509.595 269.184 487.132C269.184 426.802 298.094 378.025 334.071 378.025C370.047 378.025 398.957 426.802 398.957 487.132C398.957 547.462 395.103 541.044 388.036 568H403.455C415.019 540.402 423.37 510.237 423.37 487.132H425.298C425.298 510.237 433.007 540.402 445.213 568H460.632C453.565 540.402 449.71 509.595 449.71 487.132C449.71 442.847 465.129 404.981 487.615 387.652L480.548 377.383H479.263ZM333.428 277.903C333.428 277.903 333.428 278.545 333.428 279.186C333.428 279.186 333.428 278.545 333.428 277.903ZM242.201 109.749H244.129C244.129 130.929 250.553 157.885 260.832 183.557C255.05 182.273 249.268 181.632 243.486 181.632C237.704 181.632 231.922 182.273 226.14 183.557C236.419 157.885 242.844 130.929 242.844 109.749H242.201ZM152.902 277.903C152.902 277.903 152.902 278.545 152.902 279.186C152.902 279.186 152.902 278.545 152.902 277.903ZM152.902 369.04C147.12 369.04 140.695 369.681 134.913 370.965C144.55 345.934 150.974 319.62 150.974 299.082H153.544C153.544 319.62 159.968 345.934 169.605 370.965C163.823 369.681 158.684 369.04 152.902 369.04ZM297.451 378.025C271.111 392.145 250.553 422.31 244.129 458.893H242.844C235.777 422.31 215.861 392.786 189.521 378.025C183.096 351.069 179.242 320.904 179.242 299.082C179.242 238.753 208.152 189.975 244.129 189.975C280.105 189.975 309.015 238.753 309.015 299.082C309.015 359.412 305.161 351.069 298.736 378.025H297.451ZM332.786 369.04C327.004 369.04 321.222 369.681 316.082 370.965C325.719 345.934 332.143 319.62 332.143 299.082H334.713C334.713 319.62 341.138 345.934 350.774 370.965C344.992 369.681 339.21 369.04 332.786 369.04Z" fill="#F8F8F8"/>
<path d="M86.7307 380.59H41.1172L63.6027 415.248L86.7307 380.59Z" fill="#F8F8F8"/>
<path d="M265.329 3.20584H220.358L242.844 38.5053L265.329 3.20584Z" fill="#F8F8F8"/>
<path d="M175.388 192.544H129.774L152.26 227.201L175.388 192.544Z" fill="#F8F8F8"/>
<path d="M193.33 319.078C193.33 327.033 195.167 331.928 196.392 340.494C228.242 339.27 260.092 339.27 291.941 340.494C293.166 331.928 294.391 327.033 295.004 319.078C261.317 317.242 227.629 317.242 193.942 319.078H193.33Z" fill="#F8F8F8"/>
<path d="M118.605 344.777C119.83 337.435 120.442 330.704 121.667 323.361C84.9176 328.868 48.1679 336.823 12.0308 347.225V355.791C47.5555 350.896 83.0801 347.225 118.605 344.165V344.777Z" fill="#F8F8F8"/>
<path d="M208.642 141.631C171.892 145.302 135.142 152.033 100.843 168.554V177.121C135.142 169.166 170.667 164.271 205.579 162.435C206.804 154.481 208.029 149.586 208.642 142.243V141.631Z" fill="#F8F8F8"/>
</svg>
