<svg width="60" height="49" viewBox="0 0 60 49" fill="none" xmlns="http://www.w3.org/2000/svg">
<path d="M63.875 46.1345H60.1699V25.0988C60.1699 24.7828 59.9947 24.486 59.6989 24.3014C59.4031 24.1167 59.0229 24.0665 58.677 24.1662L49.1412 26.9211L48.113 1.96596H48.1473C48.7737 1.96596 49.2815 1.52585 49.2815 0.98298C49.2815 0.440113 48.7737 0 48.1473 0H40.8884C40.262 0 39.7542 0.440113 39.7542 0.98298C39.7542 1.52585 40.262 1.96596 40.8884 1.96596H40.9227L39.9579 25.3799L34.6233 26.9209L33.5951 1.96596H33.6295C34.2558 1.96596 34.7637 1.52585 34.7637 0.98298C34.7637 0.440113 34.2558 0 33.6295 0H26.3705C25.7441 0 25.2363 0.440113 25.2363 0.98298C25.2363 1.52585 25.7441 1.96596 26.3705 1.96596H26.4049L25.44 25.3799L20.1055 26.9209L19.0773 1.96596H19.1116C19.738 1.96596 20.2458 1.52585 20.2458 0.98298C20.2458 0.440113 19.738 0 19.1116 0H11.8527C11.2263 0 10.7185 0.440113 10.7185 0.98298C10.7185 1.52585 11.2263 1.96596 11.8527 1.96596H11.887L10.9222 25.3799L0.605566 28.3603C0.142507 28.4941 -0.16993 28.8697 -0.16993 29.2928V46.1345H-3.87501C-4.50139 46.1345 -5.00922 46.5746 -5.00922 47.1175C-5.00922 47.6604 -4.50139 48.1005 -3.87501 48.1005H63.875C64.5014 48.1005 65.0092 47.6604 65.0092 47.1175C65.0092 46.5746 64.5014 46.1345 63.875 46.1345ZM57.9015 46.1345H45.6521V30.0013L57.9015 26.4626V46.1345ZM16.6163 30.0013L28.8658 26.4626V46.1345H16.6163V30.0013ZM31.1342 30.0013L43.3837 26.4626V46.1345H31.1342V30.0013ZM42.7606 12.4511H46.2753L46.4103 15.7277H42.6257L42.7606 12.4511ZM46.1942 10.4851H42.8416L42.9767 7.20852H46.0593L46.1942 10.4851ZM42.5445 17.6936H46.4912L46.6263 20.9702H42.4094L42.5445 17.6936ZM45.8431 1.96596L45.9781 5.24256H43.0576L43.1926 1.96596H45.8431ZM42.3285 22.9362H46.7073L46.8982 27.5691L45.6521 27.9291V25.0988C45.6521 24.7828 45.4768 24.486 45.181 24.3014C44.8852 24.1167 44.5052 24.0665 44.1591 24.1662L42.255 24.7163L42.3285 22.9362ZM28.2427 12.4511H31.7574L31.8925 15.7277H28.1078L28.2427 12.4511ZM31.6764 10.4851H28.3238L28.4588 7.20852H31.5415L31.6764 10.4851ZM28.0266 17.6936H31.9734L32.1084 20.9702H27.8916L28.0266 17.6936ZM31.3252 1.96596L31.4603 5.24256H28.5397L28.6748 1.96596H31.3252ZM27.8105 22.9362H32.1893L32.3802 27.5691L31.1341 27.9291V25.0988C31.1341 24.7828 30.9588 24.486 30.663 24.3014C30.3672 24.1167 29.987 24.0665 29.6411 24.1662L27.737 24.7163L27.8105 22.9362ZM13.7249 12.4511H17.2396L17.3746 15.7277H13.59L13.7249 12.4511ZM17.1585 10.4851H13.8059L13.941 7.20852H17.0235L17.1585 10.4851ZM13.5088 17.6936H17.4555L17.5906 20.9702H13.3739L13.5088 17.6936ZM16.8073 1.96596L16.9424 5.24256H14.0219L14.1569 1.96596H16.8073ZM13.2928 22.9362H17.6716L17.8625 27.5691L16.6163 27.9291V25.0988C16.6163 24.7828 16.4411 24.486 16.1453 24.3014C15.8495 24.1167 15.4693 24.0665 15.1234 24.1662L13.2193 24.7163L13.2928 22.9362ZM2.09849 30.0013L14.3479 26.4626V46.1345H2.09849V30.0013Z" fill="#00cb62"/>
</svg>
