<svg width="108" height="108" viewBox="0 0 108 108" fill="none" xmlns="http://www.w3.org/2000/svg">
<path d="M87.3761 30.0556C92.0111 34.9786 94.4996 40.5001 94.4996 49.4506C94.4996 65.2006 83.4476 79.3171 67.3647 86.2966L63.3461 80.0956C78.3536 71.9776 81.2877 61.4431 82.4622 54.8011C80.0457 56.0521 76.8821 56.4886 73.7771 56.2006C65.6591 55.4491 59.2601 48.7846 59.2601 40.5001C59.2601 36.3229 60.9195 32.3168 63.8732 29.3631C66.8269 26.4094 70.833 24.7501 75.0102 24.7501C79.8387 24.7501 84.4601 26.9551 87.3761 30.0556ZM42.3761 30.0556C47.0111 34.9786 49.4996 40.5001 49.4996 49.4506C49.4996 65.2006 38.4476 79.3171 22.3646 86.2966L18.3461 80.0956C33.3536 71.9776 36.2876 61.4431 37.4576 54.8011C35.0411 56.0521 31.8776 56.4886 28.7771 56.2006C20.6591 55.4536 14.2646 48.7891 14.2646 40.5001C14.2646 36.3229 15.924 32.3168 18.8777 29.3631C21.8314 26.4094 25.8375 24.7501 30.0146 24.7501C34.8431 24.7501 39.4646 26.9551 42.3806 30.0556" fill="#F1F1F1"/>
</svg>
