<svg width="324" height="495" viewBox="0 0 324 495" fill="none" xmlns="http://www.w3.org/2000/svg">
<path d="M313.518 375.193C281.819 391.401 258.229 426.027 250.12 468.757H247.908C239.799 427.501 217.684 393.611 187.459 376.667C180.087 345.724 175.664 310.362 175.664 285.313C175.664 234.479 193.357 191.012 219.158 171.121L211.049 159.333C179.35 175.541 155.76 210.167 147.651 252.897H144.703C136.594 210.904 113.741 177.015 83.5163 160.807C75.4073 129.128 70.9842 93.765 70.9842 67.9797C70.9842 17.1458 88.6766 -26.3209 114.478 -46.2124L106.369 -58C74.6701 -41.7921 51.0802 -7.1661 42.9711 35.5639H40.7596C32.6505 -7.1661 8.32346 -42.5288 -22.6383 -58L-30.7473 -46.2124C-4.94588 -26.3209 12.7466 17.1458 12.7466 67.9797C12.7466 118.814 8.32344 129.128 0.214401 160.807C-30.0102 177.015 -52.8629 211.641 -60.9719 252.897H-63.9207C-72.0297 210.167 -96.3568 174.805 -127.319 159.333L-135.428 171.121C-109.626 191.012 -91.9337 234.479 -91.9337 285.313C-91.9337 336.147 -96.3568 345.724 -103.729 376.667C-133.216 393.611 -156.069 427.501 -164.178 468.757H-166.389C-174.498 426.027 -198.825 390.664 -229.787 375.193L-236.422 386.981C-210.62 406.872 -192.928 450.339 -192.928 501.173C-192.928 526.958 -197.351 563.058 -205.46 594H-187.768C-174.498 562.321 -164.915 527.695 -164.915 501.173H-162.703C-162.703 527.695 -153.857 562.321 -139.851 594H-122.158C-130.267 562.321 -134.69 526.958 -134.69 501.173C-134.69 431.921 -101.517 375.93 -60.2347 375.93C-18.9524 375.93 14.2209 431.921 14.2209 501.173C14.2209 570.425 9.79782 563.058 1.68878 594H19.3812C32.6505 562.321 42.2339 527.695 42.2339 501.173H44.4455C44.4455 527.695 53.2917 562.321 67.2982 594H84.9907C76.8816 562.321 72.4585 526.958 72.4585 501.173C72.4585 431.921 105.632 375.93 146.914 375.93C188.197 375.93 221.37 431.921 221.37 501.173C221.37 570.425 216.947 563.058 208.838 594H226.53C239.799 562.321 249.383 527.695 249.383 501.173H251.594C251.594 527.695 260.441 562.321 274.447 594H292.14C284.031 562.321 279.607 526.958 279.607 501.173C279.607 450.339 297.3 406.872 323.101 386.981L314.992 375.193H313.518ZM146.177 261.001C146.177 261.001 146.177 261.738 146.177 262.475C146.177 262.475 146.177 261.738 146.177 261.001ZM41.4968 67.9797H43.7083C43.7083 92.2915 51.0801 123.234 62.8751 152.703C56.2404 151.229 49.6058 150.493 42.9711 150.493C36.3365 150.493 29.7018 151.229 23.0671 152.703C34.8621 123.234 42.2339 92.2915 42.2339 67.9797H41.4968ZM-60.9719 261.001C-60.9719 261.001 -60.9719 261.738 -60.9719 262.475C-60.9719 262.475 -60.9719 261.738 -60.9719 261.001ZM-60.9719 365.616C-67.6066 365.616 -74.9784 366.353 -81.6131 367.826C-70.5553 339.094 -63.1835 308.888 -63.1835 285.313H-60.2347C-60.2347 308.888 -52.8629 339.094 -41.8051 367.826C-48.4398 366.353 -54.3372 365.616 -60.9719 365.616ZM104.895 375.93C74.6701 392.138 51.0802 426.764 43.7083 468.757H42.2339C34.1249 426.764 11.2722 392.875 -18.9524 375.93C-26.3242 344.988 -30.7473 310.362 -30.7473 285.313C-30.7473 216.061 2.42598 160.07 43.7083 160.07C84.9907 160.07 118.164 216.061 118.164 285.313C118.164 354.565 113.741 344.988 106.369 375.93H104.895ZM145.44 365.616C138.805 365.616 132.171 366.353 126.273 367.826C137.331 339.094 144.703 308.888 144.703 285.313H147.651C147.651 308.888 155.023 339.094 166.081 367.826C159.446 366.353 152.812 365.616 145.44 365.616Z" fill="#EAEAEA"/>
<path d="M-14.582 308.266C-14.582 317.397 -12.4736 323.016 -11.0679 332.849C25.4787 331.444 62.0253 331.444 98.5719 332.849C99.9775 323.016 101.383 317.397 102.086 308.266C63.4309 306.159 24.7759 306.159 -13.8792 308.266H-14.582Z" fill="#EAEAEA"/>
<path d="M186.424 337.767C227.188 340.576 267.951 345.493 308.715 351.112V341.279C267.248 329.338 225.079 320.207 182.91 313.886C183.613 321.612 185.019 330.04 186.424 338.469V337.767Z" fill="#EAEAEA"/>
<path d="M87.3285 128.458C127.389 130.565 168.153 136.886 207.511 145.315V135.481C168.153 117.219 126.686 109.493 83.8145 104.577C84.5173 113.708 85.9229 118.624 87.3285 127.755V128.458Z" fill="#EAEAEA"/>
<path d="M2.98917 104.576C-39.18 108.79 -81.3491 116.517 -120.707 135.481V145.314C-81.3491 136.183 -40.5856 130.564 -0.524918 128.457C0.880722 119.326 2.28635 113.707 2.98917 105.279V104.576Z" fill="#EAEAEA"/>
</svg>
