<svg width="481" height="454" viewBox="0 0 481 454" fill="none" xmlns="http://www.w3.org/2000/svg">
<path d="M468.668 353.437C427.877 374.294 397.522 418.851 387.087 473.836H384.241C373.806 420.747 345.348 377.138 306.455 355.333C296.968 315.516 291.277 270.011 291.277 237.779C291.277 172.365 314.043 116.432 347.245 90.835L336.81 75.6667C296.02 96.5232 265.664 141.08 255.229 196.066H251.435C241 142.028 211.593 98.4192 172.7 77.5627C162.265 36.7977 156.573 -8.70735 156.573 -41.8881C156.573 -107.302 179.34 -163.235 212.541 -188.832L202.107 -204C161.316 -183.144 130.96 -138.586 120.526 -83.6011H117.68C107.245 -138.586 75.9407 -184.092 36.0988 -204L25.664 -188.832C58.8656 -163.235 81.6324 -107.302 81.6324 -41.8881C81.6324 23.5254 75.9407 36.7977 65.5059 77.5627C26.6126 98.4192 -2.79448 142.976 -13.2293 196.066H-17.0237C-27.4585 141.08 -58.7628 95.5751 -98.6047 75.6667L-109.04 90.835C-75.838 116.432 -53.0711 172.365 -53.0711 237.779C-53.0711 303.192 -58.7628 315.516 -68.249 355.333C-106.194 377.138 -135.601 420.747 -146.036 473.836H-148.881C-159.316 418.851 -190.621 373.346 -230.462 353.437L-239 368.606C-205.798 394.202 -183.032 450.136 -183.032 515.549C-183.032 548.73 -188.723 595.183 -199.158 635H-176.391C-159.316 594.235 -146.984 549.678 -146.984 515.549H-144.138C-144.138 549.678 -132.755 594.235 -114.731 635H-91.9644C-102.399 594.235 -108.091 548.73 -108.091 515.549C-108.091 426.435 -65.4032 354.385 -12.2806 354.385C40.8419 354.385 83.5296 426.435 83.5296 515.549C83.5296 604.663 77.838 595.183 67.4032 635H90.17C107.245 594.235 119.577 549.678 119.577 515.549H122.423C122.423 549.678 133.806 594.235 151.83 635H174.597C164.162 594.235 158.47 548.73 158.47 515.549C158.47 426.435 201.158 354.385 254.281 354.385C307.403 354.385 350.091 426.435 350.091 515.549C350.091 604.663 344.399 595.183 333.964 635H356.731C373.806 594.235 386.138 549.678 386.138 515.549H388.984C388.984 549.678 400.368 594.235 418.391 635H441.158C430.723 594.235 425.032 548.73 425.032 515.549C425.032 450.136 447.798 394.202 481 368.606L470.565 353.437H468.668ZM253.332 206.494C253.332 206.494 253.332 207.442 253.332 208.39C253.332 208.39 253.332 207.442 253.332 206.494ZM118.628 -41.8881H121.474C121.474 -10.6034 130.96 29.2135 146.138 67.1344C137.601 65.2384 129.063 64.2904 120.526 64.2904C111.988 64.2904 103.451 65.2384 94.9131 67.1344C110.091 29.2135 119.577 -10.6034 119.577 -41.8881H118.628ZM-13.2293 206.494C-13.2293 206.494 -13.2293 207.442 -13.2293 208.39C-13.2293 208.39 -13.2293 207.442 -13.2293 206.494ZM-13.2293 341.113C-21.7668 341.113 -31.253 342.061 -39.7905 343.957C-25.5613 306.984 -16.0751 268.115 -16.0751 237.779H-12.2806C-12.2806 268.115 -2.79446 306.984 11.4348 343.957C2.89723 342.061 -4.69171 341.113 -13.2293 341.113ZM200.209 354.385C161.316 375.242 130.96 419.799 121.474 473.836H119.577C109.142 419.799 79.7352 376.19 40.8419 354.385C31.3557 314.568 25.664 270.011 25.664 237.779C25.664 148.664 68.3518 76.6147 121.474 76.6147C174.597 76.6147 217.285 148.664 217.285 237.779C217.285 326.893 211.593 314.568 202.107 354.385H200.209ZM252.383 341.113C243.846 341.113 235.308 342.061 227.719 343.957C241.949 306.984 251.435 268.115 251.435 237.779H255.229C255.229 268.115 264.715 306.984 278.945 343.957C270.407 342.061 261.87 341.113 252.383 341.113Z" fill="#EAEAEA"/>
<path d="M46.4648 267.314C46.4648 279.064 49.178 286.294 50.9868 298.948C98.0154 297.14 145.044 297.14 192.072 298.948C193.881 286.294 195.69 279.064 196.594 267.314C146.853 264.602 97.111 264.602 47.3692 267.314H46.4648Z" fill="#EAEAEA"/>
<path d="M305.122 305.276C357.576 308.891 410.031 315.218 462.486 322.449V309.795C409.127 294.43 354.863 282.68 300.6 274.546C301.504 284.488 303.313 295.334 305.122 306.18V305.276Z" fill="#EAEAEA"/>
<path d="M177.604 35.9352C229.154 38.6467 281.609 46.7812 332.256 57.6271V44.9735C281.609 21.474 228.25 11.5319 173.082 5.20508C173.986 16.9548 175.795 23.2817 177.604 35.0314V35.9352Z" fill="#EAEAEA"/>
<path d="M69.0758 5.20496C14.8121 10.6279 -39.4516 20.57 -90.0977 44.9734V57.627C-39.4516 45.8773 13.0033 38.6466 64.5538 35.9351C66.3626 24.1854 68.1714 16.9547 69.0758 6.10879V5.20496Z" fill="#EAEAEA"/>
</svg>
