<svg width="284" height="319" viewBox="0 0 284 319" fill="none" xmlns="http://www.w3.org/2000/svg">
<g opacity="0.2">
<path d="M81.0267 143.773C36.2769 215.662 60.7834 306.491 135.764 346.645C210.744 386.799 307.804 361.071 352.554 289.182C397.304 217.292 372.797 126.463 297.817 86.3098C222.837 46.1562 125.776 71.8832 81.0267 143.773Z" stroke="#C8C7C7" stroke-width="0.64" stroke-miterlimit="10"/>
<path d="M95.0913 151.306C50.8977 222.304 69.555 309.037 136.764 345.03C203.972 381.023 294.281 352.645 338.475 281.647C382.669 210.649 364.011 123.916 296.803 87.9237C229.594 51.9309 139.285 80.3083 95.0913 151.306Z" stroke="#C8C7C7" stroke-width="1.13" stroke-miterlimit="10"/>
<path d="M109.156 158.833C65.5228 228.936 78.3381 311.573 137.78 343.409C197.221 375.244 280.779 344.223 324.412 274.12C368.045 204.018 355.23 121.38 295.788 89.5448C236.347 57.7092 152.789 88.7308 109.156 158.833Z" stroke="#C8C7C7" stroke-width="1.62" stroke-miterlimit="10"/>
<path d="M123.219 166.358C80.1523 235.561 87.1312 314.1 138.807 341.781C190.482 369.461 267.285 335.8 310.352 266.598C353.418 197.395 346.439 118.855 294.764 91.1751C243.089 63.4947 166.285 97.1554 123.219 166.358Z" stroke="#C8C7C7" stroke-width="2.12" stroke-miterlimit="10"/>
<path d="M137.26 173.869C94.7668 242.167 95.9248 316.61 139.846 340.143C183.767 363.675 253.82 327.386 296.312 259.088C338.805 190.79 337.647 116.346 293.726 92.8136C249.805 69.281 179.752 105.571 137.26 173.869Z" stroke="#C8C7C7" stroke-width="2.61" stroke-miterlimit="10"/>
<path d="M151.279 181.367C109.37 248.755 104.722 319.102 140.899 338.493C177.075 357.884 240.377 318.975 282.286 251.587C324.196 184.2 328.843 113.852 292.667 94.4617C256.49 75.071 193.189 113.98 151.279 181.367Z" stroke="#C8C7C7" stroke-width="3.11" stroke-miterlimit="10"/>
<path d="M165.278 188.854C123.962 255.328 113.528 321.584 141.973 336.839C170.418 352.095 226.971 310.575 268.287 244.101C309.603 177.627 320.037 111.371 291.592 96.1155C263.147 80.8595 206.594 122.38 165.278 188.854Z" stroke="#C8C7C7" stroke-width="3.6" stroke-miterlimit="10"/>
<path d="M179.259 196.33C138.557 261.878 122.364 324.036 143.091 335.163C163.818 346.29 213.616 302.173 254.317 236.625C295.019 171.077 311.212 108.919 290.485 97.7925C269.758 86.6655 219.96 130.782 179.259 196.33Z" stroke="#C8C7C7" stroke-width="4.1" stroke-miterlimit="10"/>
<path d="M193.17 203.783C153.109 268.395 131.204 326.457 144.244 333.467C157.284 340.478 200.331 293.783 240.392 229.171C280.452 164.559 302.357 106.498 289.317 99.487C276.278 92.4764 233.231 139.171 193.17 203.783Z" stroke="#C8C7C7" stroke-width="4.59" stroke-miterlimit="10"/>
<path d="M207.016 211.214C167.636 274.878 140.085 328.843 145.479 331.75C150.873 334.657 187.168 285.404 226.548 221.74C265.927 158.077 293.478 104.111 288.084 101.204C282.691 98.2978 246.395 147.551 207.016 211.214Z" stroke="#C8C7C7" stroke-width="5.08" stroke-miterlimit="10"/>
</g>
</svg>
