<svg width="237" height="222" viewBox="0 0 237 222" fill="none" xmlns="http://www.w3.org/2000/svg">
<g opacity="0.2">
<path d="M-52.2248 33.4351C-87.9986 95.3971 -66.7688 174.628 -4.80683 210.401C57.1552 246.175 136.386 224.945 172.159 162.983C207.933 101.021 186.703 21.7909 124.741 -13.9829C62.7795 -49.7567 -16.451 -28.5269 -52.2248 33.4351Z" stroke="#C8C7C7" stroke-width="0.64" stroke-miterlimit="10"/>
<path d="M-40.6761 40.1045C-76.032 101.343 -59.6357 177 -4.05391 209.091C51.5279 241.181 125.248 217.552 160.603 156.313C195.959 95.0751 179.563 19.4174 123.981 -12.6728C68.3995 -44.763 -5.32013 -21.1338 -40.6761 40.1045Z" stroke="#C8C7C7" stroke-width="1.13" stroke-miterlimit="10"/>
<path d="M-29.1234 46.7742C-64.0615 107.289 -52.4986 179.374 -3.29701 207.78C45.9046 236.187 114.113 210.158 149.051 149.644C183.99 89.129 172.427 17.0442 123.225 -11.3624C74.0234 -39.769 5.81467 -13.7403 -29.1234 46.7742Z" stroke="#C8C7C7" stroke-width="1.62" stroke-miterlimit="10"/>
<path d="M-17.5609 53.4487C-52.0811 113.24 -45.3548 181.75 -2.53712 206.47C40.2805 231.191 102.975 202.761 137.496 142.971C172.016 83.1798 165.289 14.6696 122.472 -10.0512C79.6541 -34.772 16.9594 -6.34214 -17.5609 53.4487Z" stroke="#C8C7C7" stroke-width="2.12" stroke-miterlimit="10"/>
<path d="M-6.01217 60.1186C-40.1146 119.186 -38.2216 184.123 -1.78417 205.16C34.6533 226.197 91.8372 195.368 125.94 136.301C160.042 77.2339 158.149 12.2966 121.712 -8.74062C85.2741 -29.7778 28.0902 1.05154 -6.01217 60.1186Z" stroke="#C8C7C7" stroke-width="2.61" stroke-miterlimit="10"/>
<path d="M5.54047 66.7881C-28.1441 125.131 -31.0846 186.496 -1.0273 203.85C29.03 221.203 80.703 187.974 114.388 129.631C148.072 71.2876 151.013 9.9231 120.955 -7.4305C90.898 -24.7841 39.225 8.44472 5.54047 66.7881Z" stroke="#C8C7C7" stroke-width="3.11" stroke-miterlimit="10"/>
<path d="M17.093 73.4576C-16.1759 131.081 -23.9516 188.876 -0.274489 202.546C23.4026 216.216 69.5665 180.585 102.835 122.961C136.104 65.3376 143.88 7.54279 120.203 -6.1272C96.5259 -19.7972 50.362 15.8341 17.093 73.4576Z" stroke="#C8C7C7" stroke-width="3.6" stroke-miterlimit="10"/>
<path d="M28.6555 80.1314C-4.19554 137.031 -16.8078 191.251 0.485378 201.235C17.7785 211.22 58.4285 173.187 91.2796 116.287C124.131 59.3876 136.743 5.16743 119.45 -4.81677C102.157 -14.801 61.5066 23.2316 28.6555 80.1314Z" stroke="#C8C7C7" stroke-width="4.1" stroke-miterlimit="10"/>
<path d="M40.2043 86.8011C7.77103 142.977 -9.67461 193.624 1.23835 199.925C12.1513 206.226 47.2904 165.794 79.7236 109.618C112.157 53.4415 129.603 2.7942 118.69 -3.5064C107.777 -9.807 72.6375 30.625 40.2043 86.8011Z" stroke="#C8C7C7" stroke-width="4.59" stroke-miterlimit="10"/>
<path d="M51.7569 93.4705C19.7415 148.923 -2.53756 195.997 1.99523 198.614C6.52801 201.231 36.1562 158.4 68.1716 102.948C100.187 47.4952 122.466 0.420732 117.933 -2.19627C113.401 -4.81328 83.7723 38.0182 51.7569 93.4705Z" stroke="#C8C7C7" stroke-width="5.08" stroke-miterlimit="10"/>
</g>
</svg>
