<svg width="130" height="48" viewBox="0 0 130 48" fill="none" xmlns="http://www.w3.org/2000/svg">
<g clip-path="url(#clip0_622_1202)">
<path d="M23.9944 47.8722C10.8121 47.8722 0.0911636 37.1407 0.0911636 23.9452C0.0911636 10.7498 10.8121 0 23.9944 0C37.1767 0 47.8976 10.7316 47.8976 23.927C47.8976 37.1224 37.1767 47.8722 23.9944 47.8722ZM23.9944 0.565779C11.3043 0.565779 1.58625 11.2426 1.58625 23.9452C1.58625 36.6479 11.3043 46.4852 23.9944 46.4852C36.6844 46.4852 46.4025 36.6297 46.4025 23.927C46.4025 11.2243 36.6662 0.565779 23.9944 0.565779Z" fill="#00CB62"/>
<path d="M23.9944 45.6274C11.5961 45.6274 1.49509 35.8996 1.49509 23.927C1.49509 11.9544 11.5778 2.24487 23.9944 2.24487C36.4109 2.24487 46.4937 11.9726 46.4937 23.9453C46.4937 35.9179 36.3927 45.6274 23.9944 45.6274ZM23.9944 2.81065C12.0884 2.81065 2.99018 12.4837 2.99018 23.9453C2.99018 35.4068 12.0884 44.2586 23.9944 44.2586C35.9004 44.2586 44.9804 35.4068 44.9804 23.9453C44.9804 12.4837 35.9004 2.81065 23.9944 2.81065Z" fill="#00CB62"/>
<path d="M23.9944 43.4008C12.3619 43.4008 2.91725 34.6768 2.91725 23.9453C2.91725 13.2137 12.3801 4.48975 23.9944 4.48975C35.6269 4.48975 45.0715 13.2137 45.0715 23.9453C45.0715 34.6586 35.6087 43.4008 23.9944 43.4008ZM23.9944 5.03727C12.8724 5.03727 4.41234 13.7065 4.41234 23.927C4.41234 34.1658 12.8724 41.9954 23.9944 41.9954C35.1164 41.9954 43.5764 34.1475 43.5764 23.927C43.5764 13.7065 35.1164 5.03727 23.9944 5.03727Z" fill="#00CB62"/>
<path d="M23.9944 41.1559C13.1459 41.1559 4.32118 33.4357 4.32118 23.9452C4.32118 14.4547 13.1459 6.73459 23.9944 6.73459C34.8429 6.73459 43.6676 14.4547 43.6676 23.9452C43.6676 33.4357 34.8247 41.1559 23.9944 41.1559ZM23.9944 7.28212C13.6382 7.28212 5.81627 14.9475 5.81627 23.9452C5.81627 32.943 13.6382 39.7871 23.9944 39.7871C34.3506 39.7871 42.1725 32.943 42.1725 23.9452C42.1725 14.9475 34.3324 7.28212 23.9944 7.28212Z" fill="#00CB62"/>
<path d="M23.9944 38.911C13.9299 38.911 5.74334 32.1947 5.74334 23.927C5.74334 15.6593 13.9299 8.94296 23.9944 8.94296C34.0589 8.94296 42.2454 15.6593 42.2454 23.927C42.2454 32.1947 34.0589 38.911 23.9944 38.911ZM23.9944 9.50874C14.4222 9.50874 7.23843 16.1703 7.23843 23.927C7.23843 31.6836 14.4222 37.524 23.9944 37.524C33.5666 37.524 40.7504 31.6836 40.7504 23.927C40.7504 16.1703 33.5666 9.50874 23.9944 9.50874Z" fill="#00CB62"/>
<path d="M23.9944 36.6844C14.7139 36.6844 7.14726 30.9719 7.14726 23.9452C7.14726 16.9186 14.6957 11.2061 23.9944 11.2061C33.2931 11.2061 40.8415 16.9186 40.8415 23.9452C40.8415 30.9719 33.2749 36.6844 23.9944 36.6844ZM23.9944 11.7536C15.2062 11.7536 8.64235 17.4114 8.64235 23.9452C8.64235 30.4791 15.2062 35.3156 23.9944 35.3156C32.7826 35.3156 39.3464 30.4791 39.3464 23.9452C39.3282 17.4114 32.7826 11.7536 23.9944 11.7536Z" fill="#00CB62"/>
<path d="M23.9944 34.4396C15.4797 34.4396 8.56942 29.7308 8.56942 23.927C8.56942 18.1232 15.4979 13.4145 23.9944 13.4145C32.4909 13.4145 39.4194 18.1232 39.4194 23.927C39.4194 29.7308 32.4909 34.4396 23.9944 34.4396ZM23.9944 13.9802C15.9719 13.9802 10.0645 18.6342 10.0645 23.927C10.0645 29.2198 15.9902 33.0525 23.9944 33.0525C31.9986 33.0525 37.9243 29.2198 37.9243 23.927C37.9243 18.6342 31.9986 13.9802 23.9944 13.9802Z" fill="#00CB62"/>
<path d="M23.9944 32.2129C16.2637 32.2129 9.97335 28.508 9.97335 23.9452C9.97335 19.3825 16.2637 15.6776 23.9944 15.6776C31.7251 15.6776 38.0154 19.3825 38.0154 23.9452C38.0154 28.508 31.7251 32.2129 23.9944 32.2129ZM23.9944 16.2251C16.756 16.2251 11.4684 19.8753 11.4684 23.9452C11.4684 28.0152 16.756 30.8258 23.9944 30.8258C31.2328 30.8258 36.5203 27.9969 36.5203 23.9452C36.5203 19.8935 31.2328 16.2251 23.9944 16.2251Z" fill="#00CB62"/>
<path d="M23.9944 29.9681C16.9201 29.9681 11.3773 27.3217 11.3773 23.927C11.3773 20.5506 16.9201 17.8859 23.9944 17.8859C31.0687 17.8859 36.6115 20.5323 36.6115 23.927C36.5933 27.3217 31.0505 29.9681 23.9944 29.9681ZM23.9944 18.47C17.6494 18.47 12.8906 21.1528 12.8906 23.9452C12.8906 26.7194 17.6494 28.5992 23.9944 28.5992C30.3394 28.5992 35.0982 26.7376 35.0982 23.9452C35.0982 21.1528 30.3394 18.47 23.9944 18.47Z" fill="#00CB62"/>
<path d="M23.9944 27.7414C18.561 27.7414 12.7994 26.4091 12.7994 23.9452C12.7994 21.4814 18.561 20.149 23.9944 20.149C29.4278 20.149 35.1893 21.4814 35.1893 23.9452C35.1893 26.4091 29.4095 27.7414 23.9944 27.7414ZM23.9944 20.6966C18.1052 20.6966 14.2945 22.5582 14.2945 23.927C14.2945 25.2958 18.1052 26.3361 23.9944 26.3361C29.8836 26.3361 33.6943 25.2958 33.6943 23.927C33.6943 22.5764 29.8836 20.6966 23.9944 20.6966Z" fill="#00CB62"/>
<path d="M23.9944 22.3757C20.3478 22.3757 14.2034 22.5764 14.2034 23.927C14.2034 25.2776 20.3296 25.4783 23.9944 25.4783C27.641 25.4783 33.7854 25.2776 33.7854 23.927C33.7672 22.5764 27.641 22.3757 23.9944 22.3757ZM23.9944 24.3468C20.913 24.3468 15.7532 24.292 15.7532 23.927C15.7532 23.562 20.913 23.5072 23.9944 23.5072C27.0757 23.5072 32.2356 23.562 32.2356 23.927C32.2174 24.292 27.0575 24.3468 23.9944 24.3468Z" fill="#00CB62"/>
<path d="M76.3043 23.9452V4.79999H72.3661V12.3924H61.3899V4.79999H57.4516V23.9452H61.3899V16.3346H72.3661V23.9452H76.3043Z" fill="white"/>
<path d="M120.081 4.79999H115.231L110.564 12.3924H104.656V4.79999H100.718V23.9452H104.656V16.3346H110.564L115.231 23.9452H120.081L114.21 14.3635L120.081 4.79999Z" fill="white"/>
<path d="M98.5849 14.3635C98.5849 9.08896 94.3001 4.79999 89.0309 4.79999H78.9481V8.74219H89.0309C91.3464 8.74219 93.3885 10.1475 94.2454 12.3011L94.3001 12.4471H82.7405V16.2981H94.3001L94.2454 16.4441C93.3885 18.5977 91.3464 20.003 89.0309 20.003H78.9481V23.9452H89.0309C94.3001 23.9452 98.5849 19.638 98.5849 14.3635Z" fill="white"/>
<path d="M126.846 31.1361L123.928 35.8814H120.227V31.1361H117.784V43.0905H120.227V38.3452H123.928L126.846 43.0905H129.872L126.208 37.1042L129.872 31.1361H126.846Z" fill="white"/>
<path d="M114.849 43.0905V31.1361H110.564L107.719 38.2175L104.857 31.1361H100.59V43.0905H103.052V33.6H103.198L106.498 41.7947H108.941L112.223 33.6H112.387V43.0905H114.849Z" fill="white"/>
<path d="M59.913 38.3452H66.7686V43.0905H69.23V31.1361H66.7686V35.8814H59.913V31.1361H57.4516V43.0905H59.913V38.3452Z" fill="white"/>
<path d="M78.4194 43.0905V33.6H83.1599V31.1361H71.2174V33.6H75.9579V43.0905H78.4194Z" fill="white"/>
<path d="M94.3366 31.1361H85.3114V33.6H94.3366C94.9565 33.6 95.467 34.111 95.467 34.7315C95.467 35.3521 94.9565 35.8631 94.3366 35.8631H87.9734V38.327H94.3366C94.9565 38.327 95.467 38.838 95.467 39.4585C95.467 40.0973 94.9565 40.5901 94.3366 40.5901H85.3114V43.054H94.3366C96.324 43.054 97.9285 41.4296 97.9285 39.4585C97.9285 38.546 97.6003 37.7247 97.0351 37.0859C97.582 36.4471 97.9285 35.6258 97.9285 34.7133C97.9285 32.7604 96.3058 31.1361 94.3366 31.1361Z" fill="white"/>
</g>
<defs>
<clipPath id="clip0_622_1202">
<rect width="130" height="48" fill="white"/>
</clipPath>
</defs>
</svg>
