<svg width="369" height="454" viewBox="0 0 369 454" fill="none" xmlns="http://www.w3.org/2000/svg">
<path d="M359.166 332.254C328.78 347.791 306.167 380.983 298.394 421.943H296.274C288.5 382.395 267.301 349.91 238.328 333.667C231.261 304.006 227.021 270.107 227.021 246.096C227.021 197.367 243.981 155.701 268.714 136.633L260.941 125.333C230.555 140.87 207.942 174.062 200.168 215.023H197.342C189.569 174.768 167.662 142.282 138.689 126.746C130.916 96.3785 126.676 62.4802 126.676 37.7627C126.676 -10.9661 143.636 -52.6328 168.369 -71.7006L160.596 -83C130.209 -67.4633 107.596 -34.2712 99.8231 6.68927H97.7031C89.9298 -34.2712 66.6102 -68.1695 36.9306 -83L29.1573 -71.7006C53.8903 -52.6328 70.8501 -10.9661 70.8501 37.7627C70.8501 86.4915 66.6102 96.3785 58.8369 126.746C29.864 142.282 7.95761 175.475 0.184387 215.023H-2.64224C-10.4155 174.062 -33.7352 140.164 -63.4147 125.333L-71.188 136.633C-46.455 155.701 -29.4952 197.367 -29.4952 246.096C-29.4952 294.825 -33.7352 304.006 -40.8017 333.667C-69.068 349.91 -90.9744 382.395 -98.7476 421.943H-100.868C-108.641 380.983 -131.96 347.085 -161.64 332.254L-168 343.554C-143.267 362.621 -126.307 404.288 -126.307 453.017C-126.307 477.734 -130.547 512.339 -138.32 542H-121.361C-108.641 511.633 -99.4543 478.441 -99.4543 453.017H-97.3343C-97.3343 478.441 -88.8544 511.633 -75.4279 542H-58.4681C-66.2414 511.633 -70.4813 477.734 -70.4813 453.017C-70.4813 386.633 -38.6817 332.96 0.891052 332.96C40.4639 332.96 72.2634 386.633 72.2634 453.017C72.2634 519.401 68.0235 512.339 60.2502 542H77.21C89.9298 511.633 99.1164 478.441 99.1164 453.017H101.236C101.236 478.441 109.716 511.633 123.143 542H140.103C132.329 511.633 128.089 477.734 128.089 453.017C128.089 386.633 159.889 332.96 199.462 332.96C239.035 332.96 270.834 386.633 270.834 453.017C270.834 519.401 266.594 512.339 258.821 542H275.781C288.5 511.633 297.687 478.441 297.687 453.017H299.807C299.807 478.441 308.287 511.633 321.713 542H338.673C330.9 511.633 326.66 477.734 326.66 453.017C326.66 404.288 343.62 362.621 368.353 343.554L360.58 332.254H359.166ZM198.755 222.791C198.755 222.791 198.755 223.497 198.755 224.203C198.755 224.203 198.755 223.497 198.755 222.791ZM98.4097 37.7627H100.53C100.53 61.0678 107.596 90.7288 118.903 118.977C112.543 117.565 106.183 116.859 99.8231 116.859C93.4631 116.859 87.1032 117.565 80.7433 118.977C92.0498 90.7288 99.1164 61.0678 99.1164 37.7627H98.4097ZM0.184387 222.791C0.184387 222.791 0.184387 223.497 0.184387 224.203C0.184387 224.203 0.184387 223.497 0.184387 222.791ZM0.184387 323.073C-6.17552 323.073 -13.2421 323.78 -19.602 325.192C-9.00215 297.65 -1.93558 268.695 -1.93558 246.096H0.891052C0.891052 268.695 7.95763 297.65 18.5575 325.192C12.1976 323.78 6.54431 323.073 0.184387 323.073ZM159.182 332.96C130.209 348.497 107.596 381.689 100.53 421.943H99.1164C91.3432 381.689 69.4368 349.203 40.4639 332.96C33.3973 303.299 29.1573 270.107 29.1573 246.096C29.1573 179.712 60.9569 126.04 100.53 126.04C140.103 126.04 171.902 179.712 171.902 246.096C171.902 312.48 167.662 303.299 160.596 332.96H159.182ZM198.048 323.073C191.688 323.073 185.329 323.78 179.675 325.192C190.275 297.65 197.342 268.695 197.342 246.096H200.168C200.168 268.695 207.235 297.65 217.835 325.192C211.475 323.78 205.115 323.073 198.048 323.073Z" fill="#EAEAEA"/>
<path d="M224.194 128.865H174.021L198.754 167L224.194 128.865Z" fill="#EAEAEA"/>
<path d="M24.9188 128.865H-25.2539L-0.520897 167L24.9188 128.865Z" fill="#EAEAEA"/>
<path d="M44.6523 268.098C44.6523 276.851 46.6735 282.237 48.0209 291.663C83.0541 290.317 118.087 290.317 153.12 291.663C154.468 282.237 155.815 276.851 156.489 268.098C119.435 266.078 82.3804 266.078 45.3261 268.098H44.6523Z" fill="#EAEAEA"/>
<path d="M237.335 296.377C276.411 299.07 315.486 303.784 354.562 309.17V299.744C314.813 288.298 274.39 279.545 233.967 273.485C234.641 280.892 235.988 288.971 237.335 297.051V296.377Z" fill="#EAEAEA"/>
<path d="M142.343 95.7361C180.745 97.756 219.82 103.816 257.548 111.895V102.469C219.82 84.9634 180.071 77.5572 138.975 72.8441C139.648 81.5969 140.996 86.31 142.343 95.0628V95.7361Z" fill="#EAEAEA"/>
<path d="M61.4957 72.844C21.0728 76.8838 -19.3501 84.29 -57.0781 102.469V111.895C-19.3501 103.142 19.7254 97.7558 58.1271 95.736C59.4745 86.9831 60.822 81.5968 61.4957 73.5173V72.844Z" fill="#EAEAEA"/>
</svg>
