<svg width="247" height="94" viewBox="0 0 247 94" fill="none" xmlns="http://www.w3.org/2000/svg">
<path d="M38.0161 91.392V76.416H7.82013e-05V56.832L38.1441 1.79202H66.4321V53.248H75.5201V76.416H66.4321V91.392H38.0161ZM22.5281 53.248H38.0161V30.72L22.5281 53.248ZM124.13 93.184C119.01 93.184 114.189 92.3734 109.666 90.752C105.143 89.1307 101.133 86.528 97.6341 82.944C94.2207 79.2747 91.5327 74.4534 89.5701 68.48C87.6927 62.5067 86.7541 55.2107 86.7541 46.592V44.032C86.7541 35.9254 87.6927 29.0987 89.5701 23.552C91.5327 17.92 94.2207 13.3974 97.6341 9.98402C101.133 6.48536 105.143 3.96802 109.666 2.43202C114.189 0.810689 119.01 2.28882e-05 124.13 2.28882e-05C129.25 2.28882e-05 134.071 0.810689 138.594 2.43202C143.117 3.96802 147.085 6.48536 150.498 9.98402C153.911 13.3974 156.599 17.92 158.562 23.552C160.61 29.0987 161.634 35.9254 161.634 44.032V46.592C161.634 55.2107 160.61 62.5067 158.562 68.48C156.599 74.4534 153.911 79.2747 150.498 82.944C147.085 86.528 143.117 89.1307 138.594 90.752C134.071 92.3734 129.25 93.184 124.13 93.184ZM124.13 70.144C125.41 70.144 126.605 69.8027 127.714 69.12C128.823 68.4374 129.762 67.2427 130.53 65.536C131.383 63.744 132.023 61.3547 132.45 58.368C132.877 55.296 133.09 51.3707 133.09 46.592V44.032C133.09 38.5707 132.706 34.304 131.938 31.232C131.17 28.16 130.103 26.0267 128.738 24.832C127.458 23.6374 125.922 23.04 124.13 23.04C122.338 23.04 120.759 23.6374 119.394 24.832C118.114 26.0267 117.047 28.16 116.194 31.232C115.426 34.304 115.042 38.5707 115.042 44.032V46.592C115.042 51.3707 115.255 55.296 115.682 58.368C116.194 61.3547 116.834 63.744 117.602 65.536C118.455 67.2427 119.437 68.4374 120.546 69.12C121.655 69.8027 122.85 70.144 124.13 70.144ZM208.886 91.392V76.416H170.87V56.832L209.014 1.79202H237.302V53.248H246.39V76.416H237.302V91.392H208.886ZM193.398 53.248H208.886V30.72L193.398 53.248Z" fill="#00CB62"/>
</svg>
