<svg width="144" height="28" viewBox="0 0 144 28" fill="none" xmlns="http://www.w3.org/2000/svg">
<g opacity="0.3" clip-path="url(#clip0_97_527)">
<mask id="mask0_97_527" style="mask-type:luminance" maskUnits="userSpaceOnUse" x="0" y="0" width="144" height="28">
<path d="M144 0H0V28H144V0Z" fill="white"/>
</mask>
<g mask="url(#mask0_97_527)">
<path d="M54.3775 2.42566C56.2187 2.42566 57.1393 3.29832 57.1393 5.04366C57.1393 6.78899 56.2187 7.66166 54.3775 7.66166H49.3412V11.0497C49.3412 11.4603 49.1246 11.6657 48.6913 11.6657H47.7166V2.42566H54.3775ZM54.0526 6.42966C55.0273 6.42966 55.5147 5.96766 55.5147 5.04366C55.5147 4.11966 55.0273 3.65766 54.0526 3.65766H49.3412V6.42966H54.0526ZM63.5942 4.27366C65.4354 4.27366 66.3561 5.14632 66.3561 6.89166V11.6657H65.3813C64.9481 11.6657 64.7314 11.4603 64.7314 11.0497V10.5107C64.3253 11.2807 63.7161 11.6657 62.9038 11.6657H60.4262C58.9099 11.6657 58.1518 10.947 58.1518 9.50966C58.1518 8.07232 58.9099 7.35366 60.4262 7.35366H64.7314V6.89166C64.7314 5.96766 64.2441 5.50566 63.2693 5.50566H59.1265C58.6933 5.50566 58.4767 5.30032 58.4767 4.88966V4.27366H63.5942ZM64.7314 9.35566V8.58566H60.7511C60.1013 8.58566 59.7764 8.89366 59.7764 9.50966C59.7764 10.1257 60.1013 10.4337 60.7511 10.4337H63.0256C63.7838 10.4337 64.3524 10.0743 64.7314 9.35566ZM74.2919 7.93116C74.9553 8.18782 75.2802 8.75249 75.2802 9.62516C75.2802 10.9855 74.5627 11.6657 73.1276 11.6657H67.6446V11.0497C67.6446 10.639 67.8612 10.4337 68.2944 10.4337H72.6809C73.3307 10.4337 73.6556 10.1257 73.6556 9.50966C73.6556 8.89366 73.3307 8.58566 72.6809 8.58566H68.2944V7.35366H72.5184C73.1682 7.35366 73.4932 7.04566 73.4932 6.42966C73.4932 5.81366 73.1682 5.50566 72.5184 5.50566H68.4569C68.0236 5.50566 67.807 5.30032 67.807 4.88966V4.27366H72.9652C74.4002 4.27366 75.1178 4.95382 75.1178 6.31416C75.1178 7.10982 74.847 7.64882 74.2919 7.93116ZM82.1517 4.27366C83.993 4.27366 84.9136 5.14632 84.9136 6.89166V9.04766C84.9136 10.793 83.993 11.6657 82.1517 11.6657H80.0804C79.2681 11.6657 78.6588 11.2807 78.2527 10.5107V13.3597C78.2527 13.7703 78.0361 13.9757 77.6028 13.9757H76.6281V4.27366H77.6028C78.0361 4.27366 78.2527 4.47899 78.2527 4.88966V5.42866C78.6588 4.65866 79.2681 4.27366 80.0804 4.27366H82.1517ZM83.289 9.04766V6.89166C83.289 5.96766 82.8016 5.50566 81.8268 5.50566H79.9585C79.2004 5.50566 78.6318 5.86499 78.2527 6.58366V9.35566C78.6318 10.0743 79.2004 10.4337 79.9585 10.4337H81.8268C82.8016 10.4337 83.289 9.97166 83.289 9.04766ZM91.5702 4.27366C93.4114 4.27366 94.3321 5.14632 94.3321 6.89166V11.6657H93.3573C92.9241 11.6657 92.7075 11.4603 92.7075 11.0497V10.5107C92.3013 11.2807 91.6921 11.6657 90.8798 11.6657H88.4022C86.8859 11.6657 86.1278 10.947 86.1278 9.50966C86.1278 8.07232 86.8859 7.35366 88.4022 7.35366H92.7075V6.89166C92.7075 5.96766 92.2201 5.50566 91.2453 5.50566H87.1025C86.6693 5.50566 86.4527 5.30032 86.4527 4.88966V4.27366H91.5702ZM92.7075 9.35566V8.58566H88.7271C88.0773 8.58566 87.7524 8.89366 87.7524 9.50966C87.7524 10.1257 88.0773 10.4337 88.7271 10.4337H91.0016C91.7598 10.4337 92.3284 10.0743 92.7075 9.35566ZM99.4925 4.27366C98.0845 4.27366 97.3806 4.94099 97.3806 6.27566V6.50666C97.7867 5.73666 98.3959 5.35166 99.2082 5.35166H101.442C103.283 5.35166 104.204 6.22432 104.204 7.96966V9.04766C104.204 10.793 103.283 11.6657 101.442 11.6657H98.5178C96.6766 11.6657 95.7559 10.793 95.7559 9.04766V6.27566C95.7559 4.11966 96.8932 3.04166 99.1676 3.04166H101.605C102.254 3.04166 102.579 2.73366 102.579 2.11766V1.96366C102.579 1.55299 102.796 1.34766 103.229 1.34766H104.204V2.11766C104.204 3.55499 103.446 4.27366 101.929 4.27366H99.4925ZM99.0864 6.58366C98.3283 6.58366 97.7596 6.94299 97.3806 7.66166V9.04766C97.3806 9.97166 97.8679 10.4337 98.8427 10.4337H101.117C102.092 10.4337 102.579 9.97166 102.579 9.04766V7.96966C102.579 7.04566 102.092 6.58366 101.117 6.58366H99.0864ZM111.239 4.27366C113.08 4.27366 114.001 5.14632 114.001 6.89166V9.04766C114.001 10.793 113.08 11.6657 111.239 11.6657H108.315C106.473 11.6657 105.553 10.793 105.553 9.04766V6.89166C105.553 5.14632 106.473 4.27366 108.315 4.27366H111.239ZM112.376 9.04766V6.89166C112.376 5.96766 111.889 5.50566 110.914 5.50566H108.64C107.665 5.50566 107.177 5.96766 107.177 6.89166V9.04766C107.177 9.97166 107.665 10.4337 108.64 10.4337H110.914C111.889 10.4337 112.376 9.97166 112.376 9.04766ZM114.808 4.27366H123.256V4.88966C123.256 5.30032 123.04 5.50566 122.606 5.50566H119.844V11.6657H118.22V5.50566H115.458C115.025 5.50566 114.808 5.30032 114.808 4.88966V4.27366ZM132.483 4.27366L129.207 7.96966L132.483 11.6657H131.224C130.791 11.6657 130.398 11.4603 130.033 11.0497L127.853 8.58566H125.822V11.0497C125.822 11.4603 125.606 11.6657 125.173 11.6657H124.198V4.27366H125.173C125.606 4.27366 125.822 4.47899 125.822 4.88966V7.35366H127.853L130.033 4.88966C130.398 4.47899 130.791 4.27366 131.224 4.27366H132.483ZM138.809 4.27366C140.651 4.27366 141.571 5.14632 141.571 6.89166V11.6657H140.597C140.163 11.6657 139.947 11.4603 139.947 11.0497V10.5107C139.541 11.2807 138.931 11.6657 138.119 11.6657H135.641C134.125 11.6657 133.367 10.947 133.367 9.50966C133.367 8.07232 134.125 7.35366 135.641 7.35366H139.947V6.89166C139.947 5.96766 139.459 5.50566 138.485 5.50566H134.342C133.909 5.50566 133.692 5.30032 133.692 4.88966V4.27366H138.809ZM139.947 9.35566V8.58566H135.966C135.317 8.58566 134.992 8.89366 134.992 9.50966C134.992 10.1257 135.317 10.4337 135.966 10.4337H138.241C138.999 10.4337 139.568 10.0743 139.947 9.35566Z" fill="#0A1117"/>
<path d="M54.4317 24.4334C54.8649 24.4334 55.0815 24.6387 55.0815 25.0494V25.6654H50.2076C48.3664 25.6654 47.4458 24.7927 47.4458 23.0474V20.8914C47.4458 19.146 48.3664 18.2734 50.2076 18.2734H54.919V18.8894C54.919 19.3 54.7024 19.5054 54.2692 19.5054H50.5326C49.5578 19.5054 49.0704 19.9674 49.0704 20.8914V23.0474C49.0704 23.9714 49.5578 24.4334 50.5326 24.4334H54.4317ZM61.3995 18.2734C63.2408 18.2734 64.1614 19.146 64.1614 20.8914V25.6654H63.1866C62.7534 25.6654 62.5368 25.46 62.5368 25.0494V24.5104C62.1306 25.2804 61.5214 25.6654 60.7091 25.6654H58.2315C56.7152 25.6654 55.9571 24.9467 55.9571 23.5094C55.9571 22.072 56.7152 21.3534 58.2315 21.3534H62.5368V20.8914C62.5368 19.9674 62.0494 19.5054 61.0746 19.5054H56.9318C56.4986 19.5054 56.282 19.3 56.282 18.8894V18.2734H61.3995ZM62.5368 23.3554V22.5854H58.5564C57.9066 22.5854 57.5817 22.8934 57.5817 23.5094C57.5817 24.1254 57.9066 24.4334 58.5564 24.4334H60.8309C61.5891 24.4334 62.1577 24.074 62.5368 23.3554ZM69.1323 17.3494C68.0492 17.3494 67.5077 16.836 67.5077 15.8094V15.1934H68.4825C68.7533 15.1934 68.8886 15.3217 68.8886 15.5784V15.8094C68.8886 16.1687 69.0782 16.3484 69.4573 16.3484H70.1071C70.4862 16.3484 70.6757 16.1687 70.6757 15.8094V15.5784C70.6757 15.3217 70.8111 15.1934 71.0819 15.1934H72.0566V15.8094C72.0566 16.836 71.5151 17.3494 70.432 17.3494H69.1323ZM72.2191 18.2734H73.8437V25.6654H72.8689C72.4357 25.6654 72.2191 25.46 72.2191 25.0494V20.1855L67.3453 25.6654H65.7206V18.2734H66.6954C67.1286 18.2734 67.3453 18.4787 67.3453 18.8894V23.7532L72.2191 18.2734ZM74.7877 18.2734H83.2357V18.8894C83.2357 19.3 83.0191 19.5054 82.5859 19.5054H79.824V25.6654H78.1994V19.5054H75.4376C75.0043 19.5054 74.7877 19.3 74.7877 18.8894V18.2734ZM89.3491 18.2734C91.1903 18.2734 92.1109 19.146 92.1109 20.8914V25.6654H91.1361C90.7029 25.6654 90.4863 25.46 90.4863 25.0494V24.5104C90.0801 25.2804 89.4709 25.6654 88.6586 25.6654H86.1811C84.6648 25.6654 83.9066 24.9467 83.9066 23.5094C83.9066 22.072 84.6648 21.3534 86.1811 21.3534H90.4863V20.8914C90.4863 19.9674 89.9989 19.5054 89.0241 19.5054H84.8814C84.4481 19.5054 84.2315 19.3 84.2315 18.8894V18.2734H89.3491ZM90.4863 23.3554V22.5854H86.506C85.8561 22.5854 85.5312 22.8934 85.5312 23.5094C85.5312 24.1254 85.8561 24.4334 86.506 24.4334H88.7805C89.5386 24.4334 90.1072 24.074 90.4863 23.3554Z" fill="#0A1117"/>
<path d="M0 25.6668H5.08308L12.9231 17.0918H7.84L0 25.6668Z" fill="#0A1117"/>
<path d="M26.9637 18.2095L34.4799 8.47036C35.1882 7.48123 35.7392 6.64427 35.7392 5.46493C35.7392 3.10623 33.7716 1.16602 31.3318 1.16602H23.8943L16.7717 10.4106H21.4151L27.5147 2.49753H29.7577C31.0564 2.57362 31.9221 3.6008 31.9221 4.89427C31.9221 5.04645 31.9221 5.19862 31.8827 5.3508C31.8039 5.69318 31.6465 5.99753 31.4105 6.26383L21.2971 19.3508L11.105 6.37797H6.46155L16.7717 19.541H21.1791H21.4545H37.7461L38.7692 18.2475H26.9637V18.2095Z" fill="#0A1117"/>
</g>
</g>
<defs>
<clipPath id="clip0_97_527">
<rect width="144" height="28" fill="white"/>
</clipPath>
</defs>
</svg>
