<svg width="594" height="147" viewBox="0 0 594 147" fill="none" xmlns="http://www.w3.org/2000/svg">
<g opacity="0.3">
<path d="M135.292 33.6696C60.5722 163.088 104.914 328.574 234.332 403.293C363.75 478.013 529.236 433.671 603.956 304.253C678.676 174.835 634.334 9.34872 504.916 -65.3709C375.498 -140.09 210.011 -95.7485 135.292 33.6696Z" stroke="#C8C7C7" stroke-width="0.64" stroke-miterlimit="10"/>
<path d="M159.419 47.5999C85.5722 175.506 119.819 333.53 235.911 400.556C352.003 467.582 505.978 418.228 579.825 290.322C653.672 162.415 619.426 4.39132 503.334 -62.6344C387.242 -129.66 233.266 -80.3066 159.419 47.5999Z" stroke="#C8C7C7" stroke-width="1.13" stroke-miterlimit="10"/>
<path d="M183.55 61.531C110.576 187.926 134.727 338.487 237.493 397.819C340.259 457.151 482.724 402.786 555.698 276.391C628.673 149.996 604.522 -0.565214 501.756 -59.8972C398.99 -119.229 256.524 -64.8638 183.55 61.531Z" stroke="#C8C7C7" stroke-width="1.62" stroke-miterlimit="10"/>
<path d="M207.695 75.4712C135.593 200.354 149.642 343.45 239.074 395.083C328.506 446.717 459.455 387.336 531.556 262.453C603.657 137.57 589.608 -5.52559 500.176 -57.1591C410.744 -108.793 279.796 -49.412 207.695 75.4712Z" stroke="#C8C7C7" stroke-width="2.12" stroke-miterlimit="10"/>
<path d="M231.822 89.4024C160.593 212.774 164.547 348.407 240.653 392.346C316.759 436.286 436.197 371.894 507.425 248.522C578.654 125.151 574.7 -10.4821 498.594 -54.4218C422.489 -98.3616 303.05 -33.9693 231.822 89.4024Z" stroke="#C8C7C7" stroke-width="2.61" stroke-miterlimit="10"/>
<path d="M255.949 103.333C185.593 225.193 179.451 353.363 242.231 389.609C305.011 425.854 412.939 356.451 483.295 234.591C553.651 112.731 559.792 -15.4396 497.013 -51.6855C434.233 -87.9314 326.305 -18.5275 255.949 103.333Z" stroke="#C8C7C7" stroke-width="3.11" stroke-miterlimit="10"/>
<path d="M280.08 117.264C210.592 237.62 194.351 358.334 243.805 386.886C293.258 415.438 389.68 341.016 459.167 220.66C528.655 100.303 544.896 -20.4107 495.442 -48.9628C445.989 -77.5149 349.568 -3.09281 280.08 117.264Z" stroke="#C8C7C7" stroke-width="3.6" stroke-miterlimit="10"/>
<path d="M304.224 131.203C235.609 250.047 209.266 363.295 245.386 384.149C281.506 405.003 366.41 325.565 435.025 206.72C503.64 87.8757 529.983 -25.3723 493.863 -46.226C457.743 -67.0797 372.839 12.3578 304.224 131.203Z" stroke="#C8C7C7" stroke-width="4.1" stroke-miterlimit="10"/>
<path d="M328.351 145.133C260.609 262.466 224.171 368.252 246.964 381.411C269.758 394.571 343.152 310.122 410.894 192.789C478.636 75.456 515.075 -30.3294 492.281 -43.4893C469.488 -56.6492 396.094 27.7999 328.351 145.133Z" stroke="#C8C7C7" stroke-width="4.59" stroke-miterlimit="10"/>
<path d="M352.483 159.063C285.613 274.885 239.079 373.208 248.547 378.674C258.014 384.14 319.898 294.679 386.767 178.858C453.637 63.0361 500.171 -35.287 490.703 -40.753C481.236 -46.2191 419.352 43.2417 352.483 159.063Z" stroke="#C8C7C7" stroke-width="5.08" stroke-miterlimit="10"/>
</g>
</svg>
