<svg width="14" height="18" viewBox="0 0 14 18" fill="none" xmlns="http://www.w3.org/2000/svg">
<path fill-rule="evenodd" clip-rule="evenodd" d="M7.288 17.9089L7.29 17.9079L7.295 17.9044L7.31 17.8929L7.369 17.8504C7.41967 17.8134 7.49133 17.7594 7.584 17.6884C7.768 17.5474 8.029 17.3399 8.3405 17.0734C9.15821 16.3744 9.92282 15.6156 10.628 14.8033C12.282 12.8903 14 10.1602 14 7.03815C14 5.17311 13.263 3.38307 11.951 2.06304C11.3025 1.40968 10.5313 0.891037 9.68157 0.536972C8.83186 0.182907 7.92052 0.000414307 7 0C6.07952 0.000348813 5.16819 0.182763 4.31849 0.536741C3.46879 0.89072 2.69749 1.40927 2.049 2.06254C0.73585 3.38568 -0.000718454 5.17448 5.25864e-07 7.03865C5.25864e-07 10.1602 1.718 12.8903 3.372 14.8033C4.07718 15.6156 4.84179 16.3744 5.6595 17.0734C5.9715 17.3399 6.232 17.5474 6.416 17.6884C6.50626 17.7579 6.59744 17.8262 6.6895 17.8934L6.7055 17.9044L6.71 17.9079L6.712 17.9089C6.8845 18.0304 7.1155 18.0304 7.288 17.9089ZM9.5 7.00015C9.5 7.6632 9.23661 8.2991 8.76777 8.76795C8.29893 9.2368 7.66304 9.5002 7 9.5002C6.33696 9.5002 5.70107 9.2368 5.23223 8.76795C4.76339 8.2991 4.5 7.6632 4.5 7.00015C4.5 6.33709 4.76339 5.70119 5.23223 5.23234C5.70107 4.76349 6.33696 4.50009 7 4.50009C7.66304 4.50009 8.29893 4.76349 8.76777 5.23234C9.23661 5.70119 9.5 6.33709 9.5 7.00015Z" fill="#00CB62"/>
</svg>
