<svg width="80" height="56" viewBox="0 0 80 56" fill="none" xmlns="http://www.w3.org/2000/svg">
<path d="M78.2332 8.73444C77.7743 7.04622 76.8792 5.50712 75.6371 4.2704C74.3949 3.03368 72.8489 2.1425 71.1532 1.6856C64.9451 0 39.9594 0 39.9594 0C39.9594 0 14.9726 0.0510221 8.76444 1.73662C7.06865 2.19355 5.5227 3.08478 4.28051 4.32155C3.03832 5.55833 2.14325 7.09749 1.68444 8.78578C-0.193377 19.7674 -0.921815 36.5008 1.736 47.0431C2.19486 48.7313 3.08995 50.2704 4.33214 51.5072C5.57432 52.7439 7.12025 53.6351 8.816 54.092C15.0241 55.7776 40.0104 55.7776 40.0104 55.7776C40.0104 55.7776 64.9963 55.7776 71.2041 54.092C72.8999 53.6351 74.4459 52.7439 75.6882 51.5072C76.9304 50.2705 77.8255 48.7314 78.2844 47.0431C80.2651 36.046 80.8754 19.3228 78.2332 8.73444Z" fill="#FF0000"/>
<path d="M32.0078 39.8411L52.7353 27.8888L32.0078 15.9365V39.8411Z" fill="white"/>
</svg>
