<svg width="56" height="52" viewBox="0 0 56 52" fill="none" xmlns="http://www.w3.org/2000/svg">
<path d="M55.0929 44.8121C55.594 44.8121 56 44.4351 56 43.9698V40.3758C56 40.3649 55.9987 40.3545 55.9983 40.3437C55.9979 40.3344 55.9975 40.3252 55.9969 40.3158C55.9938 40.2756 55.9883 40.2362 55.9794 40.1978C55.9786 40.1944 55.9775 40.1912 55.9767 40.1878C55.9672 40.1492 55.9546 40.1117 55.9396 40.0752C55.9378 40.0708 55.9364 40.0663 55.9344 40.062C55.9182 40.0245 55.899 39.9884 55.8774 39.9539C55.8736 39.9478 55.8696 39.942 55.8657 39.936C55.8429 39.9015 55.8182 39.8683 55.7905 39.8373C55.7882 39.8348 55.7857 39.8325 55.7834 39.83C55.7563 39.8004 55.7267 39.7729 55.6953 39.747C55.6901 39.7426 55.6852 39.7381 55.6798 39.7338C55.6463 39.7074 55.6105 39.6835 55.5732 39.6618C55.5699 39.6599 55.5672 39.6575 55.564 39.6557L52.1296 37.7198V36.7819C52.1296 36.3166 51.7236 35.9395 51.2225 35.9395H48.9719L30.8004 25.6949C31.2827 25.2088 31.6245 24.6022 31.7499 23.9388C32.0637 22.2791 31.1199 20.6734 29.4548 20.0342C29.1273 19.9084 28.9071 19.569 28.9071 19.1898V18.6537C30.5713 18.2748 31.8099 16.8785 31.8099 15.218V12.4665H31.8704C32.3715 12.4665 32.7775 12.0895 32.7775 11.6242V8.03024C32.7775 7.56493 32.3715 7.1879 31.8704 7.1879H30.8393C30.8406 7.16926 30.8423 7.15073 30.8423 7.13175C30.8423 5.9709 30.0308 4.98346 28.9071 4.63103V0.842333C28.9071 0.377028 28.5011 0 28 0C27.4989 0 27.0929 0.377028 27.0929 0.842333V4.63103C25.9692 4.98346 25.1577 5.9709 25.1577 7.13175C25.1577 7.15073 25.1594 7.16926 25.1607 7.1879H24.1296C23.6285 7.1879 23.2225 7.56493 23.2225 8.03024V11.6242C23.2225 12.0895 23.6285 12.4665 24.1296 12.4665H24.1901V15.2181C24.1901 16.8787 25.4287 18.2748 27.0929 18.6538V19.1899C27.0929 20.2592 27.7479 21.2018 28.7617 21.591C29.6346 21.9261 30.1286 22.7718 29.9631 23.6475C29.8776 24.0997 29.5874 24.5105 29.192 24.7882L28.4709 24.3816C28.1814 24.2186 27.8186 24.2186 27.5293 24.3816L26.8085 24.7879C26.7783 24.7668 26.7471 24.7475 26.7178 24.7247C26.2644 24.3713 26.0044 23.8536 26.0044 23.3046C26.0044 22.8393 25.5984 22.4623 25.0973 22.4623C24.5962 22.4623 24.1902 22.8393 24.1902 23.3046C24.1902 24.1988 24.5523 25.0482 25.1953 25.6974L7.02806 35.9395H4.77754C4.27644 35.9395 3.87041 36.3166 3.87041 36.7819V37.7198L0.436268 39.6558C0.433002 39.6576 0.430341 39.6602 0.427076 39.662C0.389702 39.6838 0.353901 39.7076 0.320397 39.734C0.315076 39.7382 0.310117 39.7427 0.304916 39.7471C0.27359 39.7729 0.244078 39.8004 0.216864 39.8301C0.214566 39.8326 0.212026 39.8348 0.209728 39.8374C0.18203 39.8684 0.157235 39.9016 0.134497 39.9361C0.130626 39.9421 0.126635 39.9479 0.122886 39.954C0.101235 39.9886 0.0820043 40.0246 0.065797 40.0621C0.0638618 40.0665 0.0624104 40.071 0.0605961 40.0754C0.0455983 40.1118 0.0330194 40.1493 0.0235853 40.1879C0.0227387 40.1913 0.0216501 40.1945 0.0208035 40.1979C0.0119741 40.2363 0.00641037 40.2759 0.00338661 40.3159C0.00266091 40.3253 0.00229806 40.3345 0.00193521 40.3438C0.00133045 40.3545 0 40.3649 0 40.3758V43.9698C0 44.4351 0.40603 44.8121 0.907127 44.8121H3.87041V46.7214H0.907127C0.40603 46.7214 0 47.0984 0 47.5637V51.1577C0 51.623 0.40603 52 0.907127 52H55.0929C55.594 52 56 51.623 56 51.1577V47.5637C56 47.0984 55.594 46.7214 55.0929 46.7214H52.1296V44.8121H55.0929ZM26.9719 7.13175C26.9719 6.60535 27.4331 6.17711 28 6.17711C28.5669 6.17711 29.0281 6.60535 29.0281 7.13175C29.0281 7.15073 29.0298 7.16926 29.0311 7.1879H26.9689C26.9702 7.16926 26.9719 7.15073 26.9719 7.13175ZM25.0367 8.87257H30.9633V10.7819H25.0367V8.87257ZM26.0043 15.2181V12.4665H29.9957V15.2181C29.9957 16.2399 29.1004 17.0713 28 17.0713C26.8996 17.0713 26.0043 16.2399 26.0043 15.2181ZM48.2592 39.5335V37.6242H48.4642L50.3153 38.6678V39.5335H48.2592ZM44.3888 39.5335V37.6242H46.4449V39.5335H44.3888ZM40.5184 39.5335V37.6242H42.5745V39.5335H40.5184ZM36.6479 39.5335V37.6242H38.7041V39.5335H36.6479ZM32.7775 39.5335V37.6242H34.8337V39.5335H32.7775ZM28.9071 39.5335V37.6242H30.9633V39.5335H28.9071ZM25.0367 39.5335V37.6242H27.0929V39.5335H25.0367ZM21.1663 39.5335V37.6242H23.2225V39.5335H21.1663ZM17.2959 39.5335V37.6242H19.3521V39.5335H17.2959ZM13.4255 39.5335V37.6242H15.4816V39.5335H13.4255ZM9.55508 39.5335V37.6242H11.6112V39.5335H9.55508ZM5.68467 39.5335V38.6678L7.53581 37.6242H7.74082V39.5335H5.68467ZM26.9202 26.6958C27.2704 26.7916 27.6358 26.8415 28.0062 26.8415C28.2308 26.8415 28.4572 26.8235 28.683 26.7866C28.8186 26.7645 28.951 26.7328 29.0818 26.6969L45.476 35.9395H10.524L26.9202 26.6958ZM1.81425 41.2181H54.1857V43.1274H1.81425V41.2181ZM44.3888 46.7214V44.8121H46.4449V46.7214H44.3888ZM40.5184 46.7214V44.8121H42.5745V46.7214H40.5184ZM36.6479 46.7214V44.8121H38.7041V46.7214H36.6479ZM32.7775 46.7214V44.8121H34.8337V46.7214H32.7775ZM28.9071 46.7214V44.8121H30.9633V46.7214H28.9071ZM25.0367 46.7214V44.8121H27.0929V46.7214H25.0367ZM21.1663 46.7214V44.8121H23.2225V46.7214H21.1663ZM17.2959 46.7214V44.8121H19.3521V46.7214H17.2959ZM13.4255 46.7214V44.8121H15.4816V46.7214H13.4255ZM9.55508 46.7214V44.8121H11.6112V46.7214H9.55508ZM5.68467 44.8121H7.74082V46.7214H5.68467V44.8121ZM54.1857 50.3153H1.81425V48.406H54.1857V50.3153ZM50.3153 46.7214H48.2592V44.8121H50.3153V46.7214Z" fill="#00cb62"/>
</svg>
