<svg width="68" height="41" viewBox="0 0 68 41" fill="none" xmlns="http://www.w3.org/2000/svg">
<path fill-rule="evenodd" clip-rule="evenodd" d="M11.2017 0.0894524C11.1005 0.140879 10.9822 0.247501 10.9198 0.343224L10.8124 0.508323L10.7864 1.72026C10.7721 2.38683 10.7481 2.98756 10.7331 3.05517C10.7181 3.12278 10.6783 3.32562 10.6448 3.50592C10.2047 5.8717 9.15774 8.4617 7.75436 10.6564C7.20283 11.519 6.4447 12.5593 5.91789 13.1765C4.71862 14.5816 3.48227 15.7723 2.32169 16.6398C1.42089 17.3132 1.31976 17.3944 1.23486 17.5119L1.15197 17.6267V17.8684V18.1101L1.23554 18.2249C1.4233 18.4829 1.75503 18.6276 2.00052 18.5585C2.60543 18.3885 4.49411 16.8153 5.99575 15.2305C6.15859 15.0586 6.30803 14.9181 6.32788 14.9181C6.36789 14.9181 6.37924 18.5998 6.33955 18.7051L6.31511 18.7699H3.51613H0.717146L0.552735 18.8201C0.339773 18.885 0.107848 19.1296 0.0473414 19.353L0 19.528L0.0117131 21.9661L0.0234287 24.4043L0.107526 24.5682C0.153782 24.6583 0.268556 24.7874 0.362598 24.855L0.533572 24.9779L5.60904 24.9886L10.6845 24.9994L10.7384 25.0449L10.7923 25.0904V30.1417V35.193L10.7286 35.2178C10.6936 35.2315 10.24 35.2427 9.72058 35.2427H8.77621L8.6244 35.3215C8.54087 35.3649 8.42131 35.4757 8.35862 35.5677L8.24469 35.7351L8.25283 38.0978L8.26096 40.4605L8.31531 40.5663C8.37658 40.6857 8.5575 40.8663 8.67936 40.9298C8.7331 40.9578 10.2469 40.9768 13.1681 40.986L17.5757 41L17.7123 40.918C17.7875 40.873 17.9053 40.7652 17.974 40.6786L18.099 40.5211V38.1316V35.7421L17.9759 35.5872C17.9082 35.5021 17.8028 35.3943 17.7416 35.3478L17.6304 35.2632L16.6369 35.2427L15.6433 35.2222L15.6322 34.8944L15.6211 34.5666L15.9323 34.1978C17.4537 32.3954 19.3841 30.6739 21.1821 29.5164C22.1847 28.8708 23.175 28.3548 24.7013 27.6826C26.7772 26.7684 29.4057 26.1149 31.9726 25.875C32.8066 25.797 34.99 25.7861 35.752 25.8562C38.8746 26.1432 41.4441 26.809 44.0651 28.0102C46.2382 29.0061 47.8563 30.057 49.6373 31.6291C50.1028 32.0399 51.2385 33.1781 51.6076 33.6036C51.7542 33.7727 51.9874 34.0308 52.1257 34.1773L52.3773 34.4437L52.3825 34.7305C52.3888 35.0839 52.3797 35.1751 52.3356 35.2031C52.3167 35.2151 51.88 35.2305 51.3652 35.2373L50.4292 35.2498L50.2783 35.3281C50.1877 35.3751 50.0864 35.4776 50.025 35.5843L49.9226 35.7621V38.0813C49.9226 39.6203 49.937 40.4393 49.9654 40.5159C50.0193 40.661 50.1881 40.8444 50.3453 40.9286L50.4661 40.9933L54.834 40.9966L59.202 40.9998L59.3697 40.9087C59.5609 40.8046 59.6794 40.6542 59.7334 40.4468C59.7548 40.3644 59.7661 39.3397 59.7598 38.04L59.7489 35.7766L59.702 35.6838C59.6336 35.5484 59.4597 35.3669 59.3348 35.3005L59.2261 35.2427H58.2603H57.2945L57.2662 35.1961C57.2506 35.1705 57.2297 32.8926 57.2198 30.134L57.2017 25.1185L57.2506 25.0585L57.2996 24.9984H62.3208H67.3421L67.479 24.9519C67.6531 24.8926 67.8231 24.7337 67.9223 24.5373L68 24.3835L67.9891 21.8298L67.9781 19.2761L67.8811 19.132C67.8277 19.0527 67.7204 18.9434 67.6425 18.8891L67.501 18.7904L64.6598 18.7804C63.0972 18.7749 61.7767 18.7604 61.7254 18.7482L61.632 18.726L61.6469 16.8118C61.6565 15.5641 61.6758 14.8976 61.7022 14.8976C61.7245 14.8976 61.8526 15.0266 61.9868 15.1844C62.6489 15.9628 64.3362 17.4632 65.3815 18.2032C65.9712 18.6207 66.1673 18.6783 66.4902 18.529C66.794 18.3885 66.9514 18.0951 66.8991 17.767C66.8624 17.5366 66.7594 17.4277 66.1901 17.0171C65.8893 16.8001 65.5858 16.5755 65.5156 16.5181C64.6423 15.8034 64.1285 15.3368 63.4379 14.6312C62.1593 13.3247 61.3464 12.3158 60.4101 10.8734C59.7343 9.83234 59.6783 9.73596 59.1998 8.79197C58.3513 7.11826 57.7213 5.29281 57.3472 3.42397L57.2405 2.89126L57.2277 1.70616L57.2148 0.521108L57.1013 0.35781C57.0389 0.267988 56.9367 0.155876 56.8742 0.10867L56.7605 0.0228646L54.91 0.0114298L53.0595 0L52.8856 0.0782677C52.79 0.121335 52.6594 0.2264 52.5954 0.311755L52.479 0.466975L52.4559 1.47423L52.4329 2.48149L52.3642 2.69523C52.288 2.93232 52.0037 3.67966 51.9131 3.8809C51.8811 3.95192 51.855 4.02338 51.855 4.03969C51.855 4.11644 51.0244 5.77429 50.7674 6.21041C49.535 8.30225 47.8863 10.179 45.8872 11.7659C44.9297 12.5258 43.9859 13.1383 42.8828 13.7156C40.9753 14.7138 39.1282 15.3216 36.8578 15.6982C35.226 15.9689 32.8468 15.9683 31.1847 15.6969C29.447 15.4132 27.6901 14.9085 26.372 14.3145C23.1975 12.8839 20.6341 10.8511 18.5139 8.08307C17.6126 6.90624 16.8208 5.57641 16.2889 4.34595C16.2256 4.19946 16.1408 4.00584 16.1004 3.91569C16.06 3.82554 15.9427 3.52129 15.8397 3.23957L15.6525 2.72736L15.6203 1.64904L15.5881 0.570729L15.5115 0.419731C15.4693 0.33667 15.358 0.213408 15.264 0.145796L15.093 0.0228646L13.2345 0.0117999L11.376 0.000735307L11.2017 0.0894524ZM12.2899 1.47161L12.2376 1.50537L12.2378 18.3395C12.238 27.7326 12.2534 35.1892 12.2728 35.209C12.2919 35.2284 12.7139 35.2394 13.2106 35.2333L14.1136 35.2222L14.1442 31.4523C14.161 29.3789 14.1694 21.7945 14.1628 14.5981L14.1508 1.51365L14.0919 1.47575C14.019 1.42883 12.3621 1.42502 12.2899 1.47161ZM53.9253 1.48985L53.8678 1.52259V18.3614V35.2002L53.9693 35.2261C54.1032 35.2603 55.7132 35.222 55.7508 35.1837C55.7669 35.1673 55.7847 27.5854 55.7903 18.335L55.8005 1.51607L55.75 1.49636C55.6614 1.46174 53.985 1.45575 53.9253 1.48985ZM15.5837 6.25139C15.5828 6.27393 15.5824 9.08504 15.583 12.4983L15.584 18.7042L15.6338 18.7368C15.6957 18.7773 19.1965 18.778 19.221 18.7375C19.2308 18.7214 19.2451 17.0114 19.2527 14.9376L19.2665 11.167L18.7472 10.5942C18.1245 9.90729 17.5538 9.21891 17.1682 8.68953C16.8473 8.24902 16.2673 7.38969 16.2673 7.35466C16.2673 7.34195 16.2156 7.25447 16.1524 7.16026C16.0892 7.06606 15.9727 6.8642 15.8935 6.71169C15.7369 6.40977 15.5865 6.18636 15.5837 6.25139ZM52.3481 6.30261C52.2983 6.3533 52.2575 6.41305 52.2575 6.4353C52.2575 6.45759 52.1488 6.66215 52.016 6.88986C51.8832 7.11761 51.7745 7.31196 51.7745 7.32184C51.7745 7.36306 51.1042 8.35348 50.8007 8.76075C50.4229 9.26776 49.7406 10.0805 49.1576 10.718L48.7547 11.1586L48.765 14.954L48.7753 18.7494H50.5869H52.3984L52.428 16.3318C52.4442 15.0021 52.4533 12.1808 52.4481 10.0623L52.4387 6.21041L52.3481 6.30261ZM10.6661 8.1887C10.2821 9.07901 9.89252 9.8643 9.49268 10.554C9.11168 11.2111 8.47634 12.1786 8.08564 12.6964L7.76777 13.1177L7.79482 15.9131C7.80971 17.4505 7.83008 18.7223 7.84011 18.7392C7.86579 18.7826 10.7426 18.7776 10.7691 18.734C10.804 18.6765 10.7986 8.05639 10.7636 8.04578C10.7462 8.04053 10.7023 8.10482 10.6661 8.1887ZM57.2193 13.3559L57.2093 18.6779L57.2643 18.7245L57.3194 18.771L58.7639 18.7602L60.2084 18.7494L60.2188 15.9084L60.2291 13.0673L60.055 12.8556C59.2155 11.8344 58.1031 9.95015 57.4873 8.50612C57.3818 8.25874 57.2806 8.05131 57.2624 8.04512C57.2442 8.03894 57.2248 10.4288 57.2193 13.3559ZM20.6889 12.5413C20.6816 12.5638 20.6846 13.9698 20.6957 15.6658L20.7158 18.7494L23.4533 18.7607C24.9589 18.7669 26.2316 18.762 26.2814 18.7497L26.372 18.7274V17.3194V15.9115L26.3216 15.8727C26.294 15.8513 26.063 15.7439 25.8084 15.634C24.826 15.2103 23.652 14.5595 22.6114 13.8618C21.9017 13.3861 20.9877 12.6999 20.9021 12.5787C20.8436 12.4957 20.7115 12.4726 20.6889 12.5413ZM47.1218 12.5856C46.8913 12.8449 45.4304 13.8868 44.6287 14.3637C44.4073 14.4954 44.1446 14.6524 44.045 14.7125C43.7081 14.9158 42.4703 15.5377 42.099 15.6903C41.8962 15.7737 41.7089 15.8556 41.6827 15.8723L41.6353 15.9027L41.6552 17.3056C41.6662 18.0771 41.6886 18.7224 41.705 18.7395C41.7214 18.7565 42.9837 18.7657 44.5103 18.7599L47.2857 18.7494L47.296 15.6249L47.3064 12.5004H47.252C47.222 12.5004 47.1635 12.5388 47.1218 12.5856ZM27.8255 16.4494L27.7797 16.5057L27.7904 17.6275L27.8011 18.7494H30.5386H33.2761L33.2963 18.1348C33.3073 17.7967 33.3109 17.4812 33.3043 17.4336L33.2921 17.347L32.7608 17.3185C31.9323 17.2739 30.9183 17.1344 29.8542 16.9188C29.1897 16.7841 28.2399 16.5407 28.0277 16.4508C27.8635 16.3812 27.8811 16.3813 27.8255 16.4494ZM39.7777 16.5197C39.2082 16.7288 37.5991 17.0686 36.5169 17.2083C36.0784 17.2649 34.911 17.3434 34.8721 17.3189C34.8557 17.3085 34.8201 17.3141 34.7929 17.3312L34.7435 17.3623L34.7402 18.0219C34.7383 18.3846 34.7489 18.7013 34.7637 18.7257C34.7825 18.7566 35.5932 18.7699 37.4604 18.7699H40.1302L40.176 18.7137L40.2219 18.6574L40.2112 17.5561L40.2004 16.4547L40.0998 16.4465C40.0444 16.4421 39.8995 16.475 39.7777 16.5197ZM2.90184 20.2606C2.90184 20.314 3.34508 20.7816 3.42265 20.8102C3.46561 20.8259 3.92841 20.334 3.92841 20.2725C3.92841 20.2391 3.77358 20.2211 3.41512 20.2131L2.90184 20.2016V20.2606ZM8.15834 20.2403C8.14627 20.2602 8.26672 20.4063 8.42602 20.565L8.71571 20.8535L8.77775 20.8186C8.90729 20.7458 9.31136 20.2923 9.28511 20.2491C9.25186 20.1944 8.19127 20.186 8.15834 20.2403ZM17.153 20.2595C17.153 20.3138 18.0037 21.1547 18.0592 21.1552C18.1172 21.1558 18.9656 20.2799 18.943 20.2428C18.9295 20.2204 18.5466 20.2041 18.0363 20.2041H17.153V20.2595ZM23.1332 20.2419C23.1122 20.2765 26.7725 24.0179 26.858 24.0491C26.8806 24.0574 26.8953 23.3215 26.8953 22.1826V20.3025L26.847 20.2533L26.7987 20.2041H24.9774C23.9088 20.2041 23.1466 20.2197 23.1332 20.2419ZM29.7939 20.2397C29.7939 20.2878 30.7787 21.3105 30.8251 21.3105C30.896 21.3105 31.8573 20.2952 31.8296 20.2495C31.7961 20.1944 29.7939 20.1846 29.7939 20.2397ZM36.1545 20.2573C36.1545 20.3054 37.1241 21.3105 37.1705 21.3105C37.1812 21.3105 37.3601 21.1327 37.568 20.9154C37.7759 20.6981 37.9958 20.4738 38.0567 20.4169C38.1176 20.36 38.1674 20.2889 38.1674 20.2588V20.2041H37.161H36.1545V20.2573ZM41.1737 20.231C41.1319 20.2736 41.1408 24.015 41.1827 24.015C41.25 24.015 44.7898 20.3627 44.7898 20.2933V20.2246L42.9954 20.2139C42.0085 20.2081 41.1887 20.2157 41.1737 20.231ZM49.0772 20.2666C49.0772 20.3295 49.9059 21.1876 49.9668 21.1876C50.0249 21.1876 50.8884 20.2776 50.8657 20.2402C50.8536 20.2204 50.4463 20.2041 49.9605 20.2041H49.0772V20.2666ZM58.7893 20.2331C58.7617 20.2434 58.739 20.2678 58.739 20.2872C58.739 20.3257 59.1541 20.7366 59.2482 20.7912L59.3067 20.8252L59.5462 20.5806C59.7684 20.3538 59.8299 20.2534 59.7555 20.2394C59.6665 20.2225 58.8321 20.2171 58.7893 20.2331ZM64.1109 20.2492C64.0819 20.297 64.5636 20.8188 64.6367 20.8188C64.7099 20.8188 65.1916 20.297 65.1626 20.2492C65.145 20.2203 64.956 20.2041 64.6367 20.2041C64.3174 20.2041 64.1284 20.2203 64.1109 20.2492ZM52.1383 20.9475C52.0187 21.0859 51.7157 21.4156 51.4652 21.6801C51.2146 21.9446 51.0096 22.1796 51.0096 22.2021C51.0096 22.2568 52.3641 23.6462 52.4173 23.6462C52.4451 23.6462 52.4588 23.1567 52.4588 22.171V20.6958H52.4074C52.3791 20.6958 52.258 20.8091 52.1383 20.9475ZM15.583 22.171V23.6052H15.6462C15.7122 23.6052 17.0322 22.2912 17.0322 22.2254C17.0322 22.1762 15.6654 20.7368 15.6187 20.7368C15.5985 20.7368 15.583 21.362 15.583 22.171ZM38.8921 21.5234C38.5046 21.932 38.1875 22.2904 38.1875 22.3197C38.1875 22.3767 39.6094 23.8511 39.6644 23.8511C39.6825 23.8511 39.6972 23.1596 39.6972 22.3144V20.7778L39.6469 20.779C39.6192 20.7797 39.2795 21.1147 38.8921 21.5234ZM20.1946 20.9929C20.113 21.0887 19.83 21.3903 19.5658 21.663C19.3015 21.9358 19.0855 22.1755 19.0856 22.1957C19.086 22.2501 20.3542 23.5233 20.408 23.5233H20.4541V22.2991C20.4541 21.6258 20.4654 21.0173 20.4793 20.9468L20.5044 20.8188H20.4237C20.3789 20.8188 20.2771 20.8962 20.1946 20.9929ZM28.3431 20.87C28.3303 21.3102 28.3503 23.8296 28.3667 23.8463C28.4056 23.8859 29.7922 22.4008 29.7827 22.3298C29.7741 22.266 28.4204 20.8188 28.3693 20.8188C28.3557 20.8188 28.3439 20.8418 28.3431 20.87ZM47.5778 22.1812C47.5835 22.9306 47.6018 23.5484 47.6184 23.5541C47.6657 23.5703 48.9279 22.2678 48.911 22.2203C48.9028 22.1971 48.6877 21.9591 48.4331 21.6915C48.1785 21.4237 47.8927 21.1179 47.7982 21.0118C47.7037 20.9056 47.6131 20.8188 47.5969 20.8188C47.5807 20.8188 47.5722 21.4319 47.5778 22.1812ZM32.5213 21.5749C32.1504 21.965 31.847 22.303 31.847 22.3259C31.847 22.3704 33.191 23.7393 33.2575 23.7625C33.2833 23.7715 33.2936 23.2695 33.2867 22.3317C33.28 21.4122 33.2615 20.8831 33.2359 20.8762C33.2137 20.8703 32.8922 21.1847 32.5213 21.5749ZM34.7053 22.2909V23.7281H34.7858C34.8301 23.7281 34.8663 23.7121 34.8663 23.6924C34.8663 23.6728 35.1562 23.3644 35.5104 23.0072C35.8647 22.65 36.1545 22.3409 36.1545 22.3204C36.1545 22.2705 34.8199 20.8839 34.7556 20.867L34.7053 20.8537V22.2909ZM57.248 20.8905C57.2472 20.9074 57.2467 21.3359 57.2469 21.8428L57.2473 22.7644L57.296 22.781C57.3408 22.7962 58.2157 21.8983 58.2157 21.837C58.2157 21.7975 57.3191 20.8597 57.2813 20.8597C57.2638 20.8597 57.2488 20.8736 57.248 20.8905ZM1.41231 21.7998C1.41231 22.4009 1.42677 22.708 1.45591 22.7263C1.49239 22.7493 1.74323 22.5041 2.30836 21.8932L2.39484 21.7997L1.95458 21.3502C1.71243 21.103 1.49138 20.9007 1.46332 20.9007H1.41231V21.7998ZM10.2388 21.3493C10.0118 21.5923 9.82613 21.8145 9.82613 21.8431C9.82613 21.9036 10.6558 22.7177 10.7374 22.7374L10.7923 22.7507V21.8257V20.9007L10.7219 20.9041C10.6831 20.906 10.4657 21.1063 10.2388 21.3493ZM62.6725 20.9278C62.6277 21.0016 62.6432 22.6984 62.6889 22.7271C62.7135 22.7426 62.7456 22.7353 62.7604 22.711C62.7751 22.6866 62.9633 22.4819 63.1786 22.2561C63.3938 22.0302 63.5699 21.8307 63.5699 21.8129C63.5699 21.754 62.6949 20.891 62.6725 20.9278ZM4.90075 21.3662C4.68702 21.6011 4.51214 21.816 4.51214 21.8437C4.51214 21.9039 5.2338 22.6515 5.30992 22.6702L5.3629 22.6832L5.36628 21.8248C5.36838 21.2875 5.35461 20.9612 5.32949 20.9527C5.30743 20.9452 5.11447 21.1313 4.90075 21.3662ZM6.76656 21.8227C6.76656 22.4312 6.78013 22.7037 6.81044 22.7037C6.87767 22.7037 7.65694 21.8763 7.64373 21.819C7.62775 21.7497 6.85706 20.9417 6.80694 20.9417C6.78117 20.9417 6.76656 21.261 6.76656 21.8227ZM60.7418 21.3543C60.5259 21.5794 60.3493 21.7864 60.3493 21.8143C60.3493 21.8809 61.1206 22.6627 61.1862 22.6627H61.2366L61.2257 21.8159C61.219 21.2962 61.1993 20.9644 61.1746 20.9571C61.1524 20.9505 60.9577 21.1293 60.7418 21.3543ZM66.4483 21.014C66.4262 21.0306 66.2458 21.2152 66.0475 21.4242L65.687 21.8043L66.087 22.213C66.307 22.4378 66.51 22.6218 66.5381 22.6218H66.5892V21.8022V20.9827L66.5389 20.9833C66.5112 20.9837 66.4705 20.9975 66.4483 21.014ZM21.9 21.1363C21.897 21.1637 21.8991 27.2684 21.9022 27.3444C21.904 27.391 22.056 27.3811 22.0856 27.3325C22.1596 27.2105 24.0969 26.3296 25.0233 25.9966C25.1783 25.9409 25.3414 25.878 25.3857 25.8568C25.4299 25.8357 25.6383 25.7615 25.8486 25.6921C26.059 25.6226 26.2449 25.5522 26.2617 25.5357C26.2786 25.5191 25.5359 24.742 24.6112 23.8088C23.6865 22.8756 22.7107 21.8856 22.4427 21.6088C21.9764 21.1273 21.9076 21.0673 21.9 21.1363ZM45.9505 21.1598C45.932 21.1922 44.9879 22.1742 43.8524 23.3421C42.6772 24.5508 41.7927 25.4918 41.7993 25.5264C41.8056 25.5599 41.8923 25.6093 41.9919 25.6362C42.7341 25.8365 45.1882 26.8725 45.8118 27.2487C45.931 27.3207 46.0535 27.3699 46.0838 27.3581L46.1389 27.3365L46.1286 24.2319L46.1183 21.1272L46.0511 21.114C46.0142 21.1068 45.9689 21.1274 45.9505 21.1598ZM3.06682 23.1345C2.90293 23.3032 2.75349 23.4413 2.73469 23.4413C2.6861 23.4413 2.69214 23.5639 2.74081 23.5658C2.76295 23.5667 3.08405 23.5682 3.45433 23.5691L4.12756 23.5707L4.1431 23.5233C4.15168 23.4971 4.11589 23.446 4.06367 23.4096C4.01142 23.3731 3.84946 23.2271 3.70377 23.085C3.55808 22.9429 3.42221 22.8268 3.40184 22.8271C3.38147 22.8274 3.2307 22.9657 3.06682 23.1345ZM8.3637 23.1762C8.19039 23.3658 8.05786 23.5361 8.06921 23.5548C8.0947 23.5968 9.34526 23.5955 9.40979 23.5535C9.46325 23.5186 8.81172 22.8251 8.72932 22.8291C8.70154 22.8305 8.537 22.9867 8.3637 23.1762ZM58.9155 23.1567C58.7409 23.3382 58.5981 23.5085 58.5981 23.5351V23.5833L59.2762 23.584C59.6492 23.5844 59.9625 23.5714 59.9724 23.5551C59.9903 23.5256 59.3051 22.8277 59.2577 22.827C59.2441 22.8268 59.0901 22.9752 58.9155 23.1567ZM64.2564 23.1727C64.0694 23.3641 63.9284 23.533 63.9431 23.548C63.9643 23.5696 64.4593 23.5757 65.2909 23.5649C65.3186 23.5645 65.3412 23.5478 65.3412 23.5278C65.3412 23.4804 64.7069 22.8506 64.6443 22.8359C64.618 22.8297 64.4435 22.9813 64.2564 23.1727ZM17.3643 23.93C17.0046 24.3106 16.7102 24.6487 16.7102 24.6813C16.7102 24.7524 18.0199 26.0638 18.0909 26.0638C18.138 26.0638 19.4879 24.7146 19.4879 24.6675C19.4879 24.6265 18.1187 23.2571 18.068 23.2474C18.0408 23.2422 17.7242 23.5494 17.3643 23.93ZM49.2598 23.9327C48.8716 24.3256 48.5539 24.6679 48.5539 24.6934C48.5539 24.7333 48.9929 25.185 49.7355 25.909C49.849 26.0197 49.953 26.0898 49.9786 26.0729C50.0728 26.0106 51.3316 24.684 51.3311 24.6475C51.3309 24.6264 51.0235 24.2962 50.6482 23.9137L49.9658 23.2183L49.2598 23.9327ZM36.6074 23.8466C36.1003 24.3453 36.0068 24.4657 36.1269 24.4657C36.5238 24.4657 38.0686 24.677 38.403 24.7769L38.4976 24.8053L38.4835 24.7396C38.4689 24.6718 37.2114 23.3168 37.1662 23.3203C37.1522 23.3213 36.9008 23.5582 36.6074 23.8466ZM30.1763 24.0019C29.6152 24.5921 29.4886 24.7526 29.5841 24.7526C29.6048 24.7526 29.7194 24.7333 29.8387 24.7097C30.2326 24.6318 31.4541 24.4657 31.6333 24.4657C31.7371 24.4657 31.8172 24.4447 31.8286 24.4144C31.8502 24.3571 30.896 23.3573 30.8252 23.363C30.8004 23.365 30.5084 23.6525 30.1763 24.0019ZM15.6077 25.6835C15.5755 25.7163 15.5775 28.308 15.6098 28.4339C15.6224 28.4826 15.6464 28.5225 15.6631 28.5225C15.6998 28.5225 17.006 27.1833 17.0261 27.1251C17.0387 27.0888 15.7954 25.7588 15.6809 25.6859C15.6553 25.6697 15.6224 25.6686 15.6077 25.6835ZM51.8909 26.1332C51.6387 26.3993 51.3372 26.7095 51.2209 26.8226C51.1047 26.9357 51.0097 27.0556 51.01 27.089C51.0104 27.1684 52.3217 28.4939 52.3801 28.4741L52.4249 28.4589L52.4202 27.0877C52.4177 26.3336 52.4007 25.7014 52.3825 25.6829C52.3644 25.6645 52.1432 25.8671 51.8909 26.1332ZM19.7682 26.4123C19.4497 26.7391 19.1751 27.032 19.158 27.0631L19.1269 27.1196L19.6917 27.6878C20.0741 28.0726 20.2851 28.2561 20.3452 28.2561H20.434L20.4447 27.037L20.4553 25.818H20.4013C20.3717 25.818 20.0868 26.0854 19.7682 26.4123ZM47.5877 27.0391V28.2192L47.636 28.2684C47.6626 28.2955 47.6963 28.3176 47.7109 28.3176C47.7573 28.3176 48.8759 27.1608 48.8759 27.1127C48.8759 27.0497 47.6997 25.8589 47.6375 25.8589H47.5877V27.0391ZM16.8582 29.3634C16.19 30.0559 15.6333 30.6434 15.621 30.6687C15.5762 30.7608 15.6288 32.2104 15.677 32.2104C15.7022 32.2104 15.9767 31.9549 16.2869 31.6427C17.1667 30.7572 18.5894 29.4996 18.9707 29.2704C19.035 29.2317 19.0826 29.1783 19.0765 29.1517C19.065 29.1022 18.2058 28.1877 18.1203 28.1339C18.0906 28.1152 17.6209 28.5728 16.8582 29.3634ZM49.4384 28.5884C49.1733 28.853 48.957 29.0986 48.9578 29.134C48.9585 29.1695 49.108 29.3086 49.2899 29.4431C49.9689 29.9448 51.1152 30.9728 51.8906 31.7752C52.1426 32.036 52.3645 32.2396 52.3837 32.2275C52.4029 32.2154 52.4186 31.835 52.4186 31.3821V30.5586L51.2258 29.3663C50.5697 28.7106 50.0077 28.1591 49.9767 28.1408L49.9203 28.1074L49.4384 28.5884ZM9.68024 36.785C9.64626 36.9229 9.68555 39.4385 9.72263 39.4996L9.75037 39.5453H13.1464C15.0143 39.5453 16.5712 39.5341 16.6062 39.5204L16.6699 39.4956V38.1354V36.7753L16.6216 36.7261L16.5733 36.6769H13.1401H9.70689L9.68024 36.785ZM51.384 36.7353C51.3662 36.7675 51.3608 37.4083 51.3719 38.1593L51.392 39.5248L54.8095 39.5353C56.8493 39.5415 58.245 39.5306 58.2717 39.5081C58.3021 39.4823 58.3208 39.0461 58.3306 38.1342L58.3449 36.7981L58.2955 36.7375L58.246 36.6769H54.8311H51.4161L51.384 36.7353Z" fill="#00cb62"/>
</svg>
