<svg width="52" height="31" viewBox="0 0 52 31" fill="none" xmlns="http://www.w3.org/2000/svg">
<path d="M2.77267 0.165249C2.0922 0.459782 2.13282 -0.180061 2.13282 11.3371V21.7473H1.36095C0.650012 21.7473 0.568762 21.7676 0.294543 22.0418C-0.121863 22.4684 -0.121863 23.1285 0.294543 23.5957C0.578918 23.9106 0.609387 23.9207 1.59454 23.9613L2.60001 24.002L2.36642 24.6824C1.80782 26.3074 2.28517 28.1559 3.5547 29.2934C5.95157 31.4465 9.70939 30.4309 10.6539 27.3738L10.8367 26.8153L10.9586 27.252C11.4664 28.9379 12.8172 30.116 14.5438 30.3903C16.6055 30.7153 18.6367 29.466 19.2969 27.4754C19.5914 26.5918 19.5508 25.2106 19.2055 24.4387L18.982 23.9309L19.9774 24.9059C20.5258 25.4442 21.0742 25.9418 21.1961 26.0028C21.5008 26.1551 30.4992 26.1551 30.8039 26.0028C30.9258 25.9418 31.4742 25.4442 32.0227 24.9059L33.018 23.9309L32.7945 24.4387C32.4492 25.2106 32.4086 26.5918 32.7031 27.4754C33.0688 28.6028 33.9219 29.5473 34.9781 30.0348C37.4359 31.1621 40.2594 29.8621 41.0414 27.252L41.1633 26.8153L41.3461 27.3738C41.9859 29.4559 44.068 30.7457 46.1906 30.3903C48.8719 29.9332 50.4969 27.2317 49.6336 24.6824L49.4 24.002L50.4055 23.9613C51.3906 23.9207 51.4211 23.9106 51.7055 23.5957C52.1219 23.1285 52.1219 22.4684 51.7055 22.0418C51.4313 21.7676 51.35 21.7473 50.6391 21.7473H49.8672V11.3371C49.8672 -0.220686 49.9078 0.449625 49.207 0.155094C48.6891 -0.0581875 3.27032 -0.0480309 2.77267 0.165249ZM17.2656 11.9973V21.7473H10.8164H4.3672V11.9973V2.24728H10.8164H17.2656V11.9973ZM32.5 11.9973V21.7473H26H19.5V11.9973V2.24728H26H32.5V11.9973ZM47.6328 11.9973V21.7473H41.1836H34.7344V11.9973V2.24728H41.1836H47.6328V11.9973ZM7.2922 24.134C8.5922 24.6824 9.00861 26.3582 8.1047 27.3942C7.21095 28.3996 5.78907 28.3996 4.89532 27.3942C3.75782 26.0942 4.73282 24.002 6.4797 23.9817C6.71329 23.9817 7.07892 24.0528 7.2922 24.134ZM11.2734 24.002C11.2734 24.0223 11.1719 24.3067 11.0399 24.652L10.8164 25.2613L10.6031 24.6215L10.4 23.9817H10.8367C11.0805 23.9817 11.2734 23.9918 11.2734 24.002ZM15.9961 24.1746C16.2195 24.2762 16.5445 24.5199 16.7274 24.7231C17.8445 25.9926 17.0625 27.9832 15.3867 28.1254C13.9953 28.2371 13.0102 27.2621 13.1219 25.8707C13.2336 24.4692 14.7266 23.5957 15.9961 24.1746ZM37.9438 24.327C38.5227 24.7028 38.8274 25.2106 38.8781 25.8707C38.9898 27.2621 38.0047 28.2371 36.6133 28.1254C34.9375 27.9832 34.1555 25.9926 35.2727 24.7231C35.9633 23.941 37.1109 23.7684 37.9438 24.327ZM41.3969 24.6215L41.1836 25.2613L40.9602 24.652C40.8281 24.3067 40.7266 24.0223 40.7266 24.002C40.7266 23.9918 40.9195 23.9817 41.1633 23.9817H41.6L41.3969 24.6215ZM46.2922 24.134C47.5922 24.6824 48.0086 26.3582 47.1047 27.3942C46.2109 28.3996 44.7891 28.3996 43.8953 27.3942C42.7578 26.0942 43.7328 24.002 45.4797 23.9817C45.7133 23.9817 46.0789 24.0528 46.2922 24.134Z" fill="#00cb62"/>
</svg>
