<svg width="52" height="52" viewBox="0 0 52 52" fill="none" xmlns="http://www.w3.org/2000/svg">
<g clip-path="url(#clip0_97_296)">
<path d="M13.3824 18.3529C15.8852 28.6391 18.1096 33.6076 24.853 39.7647M26 6.5L8.66669 15.1667C8.66669 26.4186 14.6993 42.2712 26 45.5C37.3007 42.2712 43.3334 26.4186 43.3334 15.1667L26 6.5Z" stroke="#00cb62" stroke-width="2.2" stroke-linecap="round" stroke-linejoin="round"/>
<circle cx="39" cy="9.94123" r="10.7059" fill="white"/>
<g clip-path="url(#clip1_97_296)">
<mask id="mask0_97_296" style="mask-type:luminance" maskUnits="userSpaceOnUse" x="30" y="1" width="18" height="18">
<path d="M39 17.5C39.9851 17.5012 40.9607 17.3078 41.8708 16.9308C42.7809 16.5538 43.6076 16.0007 44.3033 15.3033C45.0007 14.6076 45.5538 13.7809 45.9308 12.8708C46.3078 11.9607 46.5012 10.9851 46.5 10C46.5012 9.01491 46.3078 8.03929 45.9308 7.12919C45.5538 6.21909 45.0007 5.39245 44.3033 4.69676C43.6076 3.99932 42.7809 3.44621 41.8708 3.06922C40.9607 2.69223 39.9851 2.49879 39 2.50001C38.0149 2.49879 37.0393 2.69223 36.1292 3.06922C35.2191 3.44621 34.3924 3.99932 33.6968 4.69676C32.9993 5.39245 32.4462 6.21909 32.0692 7.12919C31.6922 8.03929 31.4988 9.01491 31.5 10C31.4988 10.9851 31.6922 11.9607 32.0692 12.8708C32.4462 13.7809 32.9993 14.6076 33.6968 15.3033C34.3924 16.0007 35.2191 16.5538 36.1292 16.9308C37.0393 17.3078 38.0149 17.5012 39 17.5Z" fill="white" stroke="white" stroke-width="2" stroke-linejoin="round"/>
<path d="M36 10L38.25 12.25L42.75 7.75" stroke="black" stroke-width="2" stroke-linecap="round" stroke-linejoin="round"/>
</mask>
<g mask="url(#mask0_97_296)">
<path d="M30 1H48V19H30V1Z" fill="#00cb62"/>
</g>
</g>
</g>
<defs>
<clipPath id="clip0_97_296">
<rect width="52" height="52" fill="white"/>
</clipPath>
<clipPath id="clip1_97_296">
<rect width="18" height="18" fill="white" transform="translate(30 1)"/>
</clipPath>
</defs>
</svg>
