<svg width="52" height="52" viewBox="0 0 52 52" fill="none" xmlns="http://www.w3.org/2000/svg">
<path d="M39.1534 48.1764H13.3777C11.0611 48.1764 9.17651 46.2918 9.17651 43.9752V8.02491C9.17651 5.70824 11.0611 3.82349 13.3777 3.82349H39.1534C41.4699 3.82349 43.3546 5.70824 43.3546 8.02491V43.9752C43.3546 46.2918 41.4699 48.1764 39.1534 48.1764ZM13.3777 5.5845C12.0322 5.5845 10.9375 6.67926 10.9375 8.02491V43.9752C10.9375 45.3208 12.0322 46.4154 13.3777 46.4154H39.1534C40.4989 46.4154 41.5936 45.3208 41.5936 43.9752V8.02491C41.5936 6.67926 40.4989 5.5845 39.1534 5.5845H13.3777Z" fill="#00cb62"/>
<path d="M18.2159 23.7102H14.3947C13.9083 23.7102 13.5142 23.3161 13.5142 22.8297V19.0082C13.5142 18.5218 13.9083 18.1277 14.3947 18.1277H18.2159C18.7023 18.1277 19.0964 18.5218 19.0964 19.0082V22.8297C19.0964 23.316 18.7023 23.7102 18.2159 23.7102ZM15.2752 21.9492H17.3354V19.8887H15.2752V21.9492Z" fill="#00cb62"/>
<path d="M38.1366 23.7102H34.3153C33.8289 23.7102 33.4348 23.3161 33.4348 22.8297V19.0082C33.4348 18.5218 33.8289 18.1277 34.3153 18.1277H38.1366C38.623 18.1277 39.0171 18.5218 39.0171 19.0082V22.8297C39.0171 23.316 38.6229 23.7102 38.1366 23.7102ZM35.1958 21.9492H37.2561V19.8887H35.1958V21.9492Z" fill="#00cb62"/>
<path d="M24.8563 23.7102H21.035C20.5487 23.7102 20.1545 23.3161 20.1545 22.8297V19.0082C20.1545 18.5218 20.5487 18.1277 21.035 18.1277H24.8563C25.3427 18.1277 25.7368 18.5218 25.7368 19.0082V22.8297C25.7368 23.316 25.3426 23.7102 24.8563 23.7102ZM21.9156 21.9492H23.9758V19.8887H21.9156V21.9492Z" fill="#00cb62"/>
<path d="M31.4965 23.7102H27.6749C27.1885 23.7102 26.7944 23.3161 26.7944 22.8297V19.0082C26.7944 18.5218 27.1885 18.1277 27.6749 18.1277H31.4965C31.9827 18.1277 32.377 18.5218 32.377 19.0082V22.8297C32.377 23.316 31.9827 23.7102 31.4965 23.7102ZM28.5554 21.9492H30.6159V19.8887H28.5554V21.9492Z" fill="#00cb62"/>
<path d="M18.2159 30.5088H14.3947C13.9083 30.5088 13.5142 30.1147 13.5142 29.6283V25.8068C13.5142 25.3204 13.9083 24.9263 14.3947 24.9263H18.2159C18.7023 24.9263 19.0964 25.3204 19.0964 25.8068V29.6283C19.0964 30.1146 18.7023 30.5088 18.2159 30.5088ZM15.2752 28.7478H17.3354V26.6873H15.2752V28.7478Z" fill="#00cb62"/>
<path d="M38.1366 30.5088H34.3153C33.8289 30.5088 33.4348 30.1147 33.4348 29.6283V25.8068C33.4348 25.3204 33.8289 24.9263 34.3153 24.9263H38.1366C38.623 24.9263 39.0171 25.3204 39.0171 25.8068V29.6283C39.0171 30.1146 38.6229 30.5088 38.1366 30.5088ZM35.1958 28.7478H37.2561V26.6873H35.1958V28.7478Z" fill="#00cb62"/>
<path d="M24.8563 30.5088H21.035C20.5487 30.5088 20.1545 30.1147 20.1545 29.6283V25.8068C20.1545 25.3204 20.5487 24.9263 21.035 24.9263H24.8563C25.3427 24.9263 25.7368 25.3204 25.7368 25.8068V29.6283C25.7368 30.1146 25.3426 30.5088 24.8563 30.5088ZM21.9156 28.7478H23.9758V26.6873H21.9156V28.7478Z" fill="#00cb62"/>
<path d="M31.4965 30.5088H27.6749C27.1885 30.5088 26.7944 30.1147 26.7944 29.6283V25.8068C26.7944 25.3204 27.1885 24.9263 27.6749 24.9263H31.4965C31.9827 24.9263 32.377 25.3204 32.377 25.8068V29.6283C32.377 30.1146 31.9827 30.5088 31.4965 30.5088ZM28.5554 28.7478H30.6159V26.6873H28.5554V28.7478Z" fill="#00cb62"/>
<path d="M18.2159 37.3069H14.3947C13.9083 37.3069 13.5142 36.9128 13.5142 36.4264V32.6051C13.5142 32.1187 13.9083 31.7246 14.3947 31.7246H18.2159C18.7023 31.7246 19.0964 32.1187 19.0964 32.6051V36.4264C19.0964 36.9128 18.7023 37.3069 18.2159 37.3069ZM15.2752 35.5459H17.3354V33.4856H15.2752V35.5459Z" fill="#00cb62"/>
<path d="M24.8563 37.3069H21.035C20.5487 37.3069 20.1545 36.9128 20.1545 36.4264V32.6051C20.1545 32.1187 20.5487 31.7246 21.035 31.7246H24.8563C25.3427 31.7246 25.7368 32.1187 25.7368 32.6051V36.4264C25.7368 36.9128 25.3426 37.3069 24.8563 37.3069ZM21.9156 35.5459H23.9758V33.4856H21.9156V35.5459Z" fill="#00cb62"/>
<path d="M31.4965 37.3069H27.6749C27.1885 37.3069 26.7944 36.9128 26.7944 36.4264V32.6051C26.7944 32.1187 27.1885 31.7246 27.6749 31.7246H31.4965C31.9827 31.7246 32.377 32.1187 32.377 32.6051V36.4264C32.377 36.9128 31.9827 37.3069 31.4965 37.3069ZM28.5554 35.5459H30.6159V33.4856H28.5554V35.5459Z" fill="#00cb62"/>
<path d="M18.2159 44.1057H14.3947C13.9083 44.1057 13.5142 43.7116 13.5142 43.2252V39.4037C13.5142 38.9173 13.9083 38.5232 14.3947 38.5232H18.2159C18.7023 38.5232 19.0964 38.9173 19.0964 39.4037V43.2252C19.0964 43.7116 18.7023 44.1057 18.2159 44.1057ZM15.2752 42.3447H17.3354V40.2842H15.2752V42.3447Z" fill="#00cb62"/>
<path d="M38.1366 44.1056H34.3153C33.8289 44.1056 33.4348 43.7115 33.4348 43.2251V32.6051C33.4348 32.1187 33.8289 31.7246 34.3153 31.7246H38.1366C38.623 31.7246 39.0171 32.1187 39.0171 32.6051V43.2251C39.0171 43.7115 38.6229 44.1056 38.1366 44.1056ZM35.1958 42.3446H37.2561V33.4856H35.1958V42.3446Z" fill="#00cb62"/>
<path d="M24.8563 44.1057H21.035C20.5487 44.1057 20.1545 43.7116 20.1545 43.2252V39.4037C20.1545 38.9173 20.5487 38.5232 21.035 38.5232H24.8563C25.3427 38.5232 25.7368 38.9173 25.7368 39.4037V43.2252C25.7368 43.7116 25.3426 44.1057 24.8563 44.1057ZM21.9156 42.3447H23.9758V40.2842H21.9156V42.3447Z" fill="#00cb62"/>
<path d="M31.4965 44.1057H27.6749C27.1885 44.1057 26.7944 43.7116 26.7944 43.2252V39.4037C26.7944 38.9173 27.1885 38.5232 27.6749 38.5232H31.4965C31.9827 38.5232 32.377 38.9173 32.377 39.4037V43.2252C32.377 43.7116 31.9827 44.1057 31.4965 44.1057ZM28.5554 42.3447H30.6159V40.2842H28.5554V42.3447Z" fill="#00cb62"/>
<path d="M38.1365 16.5664H14.3947C13.9083 16.5664 13.5142 16.1723 13.5142 15.6859V8.29261C13.5142 7.80634 13.9083 7.41211 14.3947 7.41211H38.1365C38.6229 7.41211 39.017 7.80634 39.017 8.29261V15.6859C39.017 16.1723 38.6228 16.5664 38.1365 16.5664ZM15.2752 14.8054H37.256V9.17312H15.2752V14.8054Z" fill="#00cb62"/>
<path d="M35.421 13.9746C34.9346 13.9746 34.5405 13.5805 34.5405 13.0941V10.8842C34.5405 10.3978 34.9346 10.0037 35.421 10.0037C35.9074 10.0037 36.3015 10.3978 36.3015 10.8842V13.0941C36.3015 13.5804 35.9074 13.9746 35.421 13.9746Z" fill="#00cb62"/>
</svg>
