<svg width="430" height="392" viewBox="0 0 430 392" fill="none" xmlns="http://www.w3.org/2000/svg">
<path d="M116.36 90.7843C52.0961 202.093 90.2331 344.422 201.541 408.686C312.85 472.95 455.179 434.812 519.443 323.504C583.707 212.196 545.57 69.8668 434.261 5.60291C322.953 -58.6609 180.624 -20.5239 116.36 90.7843Z" stroke="#05BF5F" stroke-width="0.64" stroke-miterlimit="10"/>
<path d="M137.112 102.765C73.5989 212.774 103.053 348.685 202.9 406.331C302.747 463.978 435.176 421.53 498.69 311.522C562.203 201.514 532.749 65.6031 432.902 7.95646C333.055 -49.6902 200.625 -7.24277 137.112 102.765Z" stroke="#05BF5F" stroke-width="1.13" stroke-miterlimit="10"/>
<path d="M157.865 114.747C95.1024 223.455 115.874 352.948 204.259 403.978C292.645 455.007 415.175 408.249 477.937 299.541C540.7 190.833 519.929 61.3405 431.543 10.311C343.157 -40.7184 220.628 6.03934 157.865 114.747Z" stroke="#05BF5F" stroke-width="1.62" stroke-miterlimit="10"/>
<path d="M178.63 126.736C116.618 234.144 128.701 357.216 205.618 401.624C282.536 446.032 395.16 394.961 457.172 287.553C519.184 180.145 507.101 57.0737 430.184 12.6654C353.266 -31.7429 240.642 19.3284 178.63 126.736Z" stroke="#05BF5F" stroke-width="2.12" stroke-miterlimit="10"/>
<path d="M199.382 138.719C138.121 244.827 141.521 361.48 206.977 399.271C272.434 437.062 375.158 381.68 436.42 275.573C497.681 169.465 494.281 52.8115 428.825 15.0204C363.369 -22.7707 260.644 32.611 199.382 138.719Z" stroke="#05BF5F" stroke-width="2.61" stroke-miterlimit="10"/>
<path d="M220.135 150.699C159.624 255.507 154.342 365.742 208.337 396.916C262.331 428.089 355.157 368.397 415.667 263.59C476.178 158.782 481.46 48.5469 427.466 17.373C373.471 -13.8009 280.646 45.8912 220.135 150.699Z" stroke="#05BF5F" stroke-width="3.11" stroke-miterlimit="10"/>
<path d="M240.888 162.681C181.124 266.196 167.155 370.018 209.689 394.575C252.222 419.131 335.151 355.123 394.915 251.609C454.679 148.094 468.647 44.272 426.114 19.7153C383.581 -4.84138 300.652 59.1666 240.888 162.681Z" stroke="#05BF5F" stroke-width="3.6" stroke-miterlimit="10"/>
<path d="M261.652 174.67C202.639 276.884 179.982 374.285 211.047 392.22C242.113 410.156 315.136 341.835 374.15 239.62C433.163 137.406 455.82 40.0048 424.754 22.0692C393.689 4.13364 320.666 72.4552 261.652 174.67Z" stroke="#05BF5F" stroke-width="4.1" stroke-miterlimit="10"/>
<path d="M282.405 186.651C224.142 287.565 192.803 378.548 212.407 389.866C232.011 401.184 295.135 328.552 353.398 227.638C411.661 126.724 443 35.7411 423.396 24.4228C403.792 13.1044 340.668 85.7363 282.405 186.651Z" stroke="#05BF5F" stroke-width="4.59" stroke-miterlimit="10"/>
<path d="M303.158 198.631C245.646 298.245 205.624 382.81 213.766 387.511C221.909 392.212 275.133 315.27 332.645 215.656C390.158 116.041 430.18 31.477 422.037 26.7759C413.894 22.0747 360.67 99.017 303.158 198.631Z" stroke="#05BF5F" stroke-width="5.08" stroke-miterlimit="10"/>
</svg>
