<svg xmlns="http://www.w3.org/2000/svg">
  <symbol id="arrowDropDown1" xmlns="http://www.w3.org/2000/svg" width="7" height="4" viewBox="0 0 7 4" fill="none">
    <path d="M6.5 0.5L3.5 3.5L0.5 0.5" stroke="currentColor" stroke-linecap="round" stroke-linejoin="round"/>
  </symbol>

  <symbol id="arrowBtnSwiper1"  xmlns="http://www.w3.org/2000/svg" width="26" height="12" viewBox="0 0 26 12" fill="none">
    <path d="M24.8 6.69111C25.2418 6.69111 25.6 6.33294 25.6 5.89111C25.6 5.44929 25.2418 5.09111 24.8 5.09111L24.8 5.89111L24.8 6.69111ZM0.234301 5.32543C-0.0781173 5.63785 -0.0781174 6.14438 0.234301 6.4568L5.32547 11.548C5.63789 11.8604 6.14442 11.8604 6.45684 11.548C6.76926 11.2355 6.76926 10.729 6.45684 10.4166L1.93136 5.89111L6.45684 1.36563C6.76926 1.05321 6.76926 0.546677 6.45684 0.234258C6.14442 -0.0781619 5.63789 -0.078162 5.32547 0.234257L0.234301 5.32543ZM24.8 5.89111L24.8 5.09111L0.799988 5.09111L0.799988 5.89111L0.799988 6.69111L24.8 6.69111L24.8 5.89111Z" fill="currentColor"/>
  </symbol>

  <symbol id="arrowBtnSwiper2" xmlns="http://www.w3.org/2000/svg" width="26" height="12" viewBox="0 0 26 12" fill="none">
    <path d="M0.799988 5.09111C0.35816 5.09111 -1.21803e-05 5.44929 -1.2219e-05 5.89111C-1.22576e-05 6.33294 0.35816 6.69111 0.799988 6.69111L0.799988 5.89111L0.799988 5.09111ZM25.3657 6.4568C25.6781 6.14438 25.6781 5.63785 25.3657 5.32543L20.2745 0.234261C19.9621 -0.0781586 19.4556 -0.0781587 19.1431 0.234261C18.8307 0.54668 18.8307 1.05321 19.1431 1.36563L23.6686 5.89112L19.1431 10.4166C18.8307 10.729 18.8307 11.2355 19.1431 11.548C19.4556 11.8604 19.9621 11.8604 20.2745 11.548L25.3657 6.4568ZM0.799988 5.89111L0.799988 6.69111L24.8 6.69112L24.8 5.89112L24.8 5.09112L0.799988 5.09111L0.799988 5.89111Z" fill="currentColor"/>
  </symbol>

  <symbol id="arrowMin" xmlns="http://www.w3.org/2000/svg" width="11" height="8" viewBox="0 0 11 8" fill="none">
    <path d="M0.5 3.18201C0.223858 3.18201 0 3.40586 0 3.68201C0 3.95815 0.223858 4.18201 0.5 4.18201V3.68201V3.18201ZM10.8536 4.03556C11.0488 3.8403 11.0488 3.52372 10.8536 3.32845L7.67157 0.146473C7.47631 -0.0487893 7.15973 -0.0487893 6.96447 0.146473C6.7692 0.341735 6.7692 0.658318 6.96447 0.85358L9.79289 3.68201L6.96447 6.51043C6.7692 6.7057 6.7692 7.02228 6.96447 7.21754C7.15973 7.4128 7.47631 7.4128 7.67157 7.21754L10.8536 4.03556ZM0.5 3.68201V4.18201L10.5 4.18201V3.68201V3.18201L0.5 3.18201V3.68201Z" fill="currentColor"/>
  </symbol>

  <symbol id="contactPhone" xmlns="http://www.w3.org/2000/svg" width="32" height="32" viewBox="0 0 32 32" fill="none">
    <path d="M23.2364 19.2748L20.6912 18.9842C20.392 18.949 20.0886 18.9822 19.804 19.0811C19.5194 19.18 19.2609 19.3422 19.0479 19.5553L17.2042 21.3991C14.3599 19.9521 12.0479 17.6401 10.6009 14.7957L12.4547 12.942C12.8855 12.5111 13.0959 11.9099 13.0258 11.2987L12.7352 8.77358C12.6786 8.28468 12.4441 7.83371 12.0764 7.50662C11.7086 7.17953 11.2334 6.9992 10.7412 7H9.00771C7.87544 7 6.93354 7.9419 7.00368 9.07419C7.53475 17.6315 14.3785 24.4652 22.9257 24.9963C24.058 25.0665 24.9999 24.1246 24.9999 22.9923V21.2588C25.0099 20.2467 24.2484 19.395 23.2364 19.2748Z" fill="currentColor"/>
  </symbol>

  <symbol id="burger" xmlns="http://www.w3.org/2000/svg" width="32" height="32" viewBox="0 0 32 32" fill="none">
    <path d="M5.5 9.5H26.5M5.5 16H26.5M5.5 22.5H26.5" stroke="currentColor" stroke-width="1.4" stroke-miterlimit="10" stroke-linecap="round"/>
  </symbol>

  <symbol id="btnClose" xmlns="http://www.w3.org/2000/svg" width="24" height="24" viewBox="0 0 24 24" fill="none">
    <path d="M12 12L7 7M12 12L17 17M12 12L17 7M12 12L7 17" stroke="black" stroke-width="1.3" stroke-linecap="round" stroke-linejoin="round"/>
  </symbol>

  <symbol id="btnBack" xmlns="http://www.w3.org/2000/svg" width="32" height="21" viewBox="0 0 32 21" fill="none">
    <path d="M1.54038 10.5404C1.28654 10.7942 1.28654 11.2058 1.54038 11.4596L5.67696 15.5962C5.9308 15.85 6.34235 15.85 6.59619 15.5962C6.85004 15.3424 6.85004 14.9308 6.59619 14.677L2.91924 11L6.59619 7.32304C6.85003 7.0692 6.85003 6.65765 6.59619 6.40381C6.34235 6.14996 5.9308 6.14996 5.67695 6.40381L1.54038 10.5404ZM27 11.65C27.359 11.65 27.65 11.359 27.65 11C27.65 10.641 27.359 10.35 27 10.35L27 11L27 11.65ZM2 11L2 11.65L27 11.65L27 11L27 10.35L2 10.35L2 11Z" fill="#00cb62"/>
  </symbol>

  <symbol id="pointLocal" xmlns="http://www.w3.org/2000/svg" width="45" height="57" viewBox="0 0 45 57" fill="none">
    <path fill-rule="evenodd" clip-rule="evenodd" d="M23.0787 56.7103L23.085 56.7071L23.1008 56.696L23.1483 56.6596L23.3352 56.525C23.4956 56.4078 23.7226 56.2368 24.016 56.012C24.5987 55.5655 25.4252 54.9084 26.4116 54.0645C29.001 51.8512 31.4223 49.4485 33.6553 46.8762C38.893 40.8183 44.3333 32.1733 44.3333 22.287C44.3333 16.3812 41.9995 10.7128 37.8448 6.53283C35.7914 4.4639 33.349 2.82156 30.6583 1.70038C27.9676 0.579194 25.0816 0.00131194 22.1667 0C19.2518 0.00110455 16.3659 0.578737 13.6752 1.69965C10.9845 2.82055 8.54206 4.4626 6.4885 6.53125C2.33019 10.7211 -0.00227511 16.3855 1.66524e-06 22.2886C1.66524e-06 32.1733 5.44033 40.8183 10.678 46.8762C12.9111 49.4485 15.3323 51.8512 17.9218 54.0645C18.9098 54.9084 19.7347 55.5655 20.3173 56.012C20.6032 56.2322 20.8919 56.4486 21.1834 56.6612L21.2341 56.696L21.2483 56.7071L21.2547 56.7103C21.8009 57.095 22.5324 57.095 23.0787 56.7103ZM30.0833 22.1667C30.0833 24.2663 29.2493 26.2799 27.7646 27.7646C26.2799 29.2493 24.2663 30.0833 22.1667 30.0833C20.067 30.0833 18.0534 29.2493 16.5687 27.7646C15.0841 26.2799 14.25 24.2663 14.25 22.1667C14.25 20.067 15.0841 18.0534 16.5687 16.5687C18.0534 15.0841 20.067 14.25 22.1667 14.25C24.2663 14.25 26.2799 15.0841 27.7646 16.5687C29.2493 18.0534 30.0833 20.067 30.0833 22.1667Z" fill="#00cb62"/>
  </symbol>

  <symbol id="pointLocalActive" xmlns="http://www.w3.org/2000/svg" width="61" height="78" viewBox="0 0 61 78" fill="none">
    <path fill-rule="evenodd" clip-rule="evenodd" d="M31.5813 77.6035L31.59 77.5992L31.6117 77.584L31.6767 77.5342L31.9323 77.35C32.1519 77.1897 32.4624 76.9557 32.864 76.648C33.6613 76.037 34.7923 75.1378 36.1422 73.983C39.6856 70.9543 42.9989 67.6664 46.0547 64.1463C53.222 55.8567 60.6667 44.0267 60.6667 30.498C60.6667 22.4163 57.473 14.6597 51.7877 8.93967C48.9777 6.10849 45.6355 3.86108 41.9535 2.32683C38.2714 0.792581 34.3222 0.00179529 30.3333 0C26.3446 0.00151149 22.3955 0.791956 18.7135 2.32583C15.0314 3.8597 11.6891 6.10671 8.879 8.9375C3.18869 14.671 -0.0031133 22.4223 2.27874e-06 30.5002C2.27874e-06 44.0267 7.44467 55.8567 14.612 64.1463C17.6678 67.6664 20.9811 70.9543 24.5245 73.983C25.8765 75.1378 27.0053 76.037 27.8027 76.648C28.1938 76.9493 28.5889 77.2454 28.9878 77.5363L29.0572 77.584L29.0767 77.5992L29.0853 77.6035C29.8328 78.13 30.8338 78.13 31.5813 77.6035ZM41.1667 30.3333C41.1667 33.2065 40.0253 35.962 37.9937 37.9937C35.962 40.0253 33.2065 41.1667 30.3333 41.1667C27.4602 41.1667 24.7047 40.0253 22.673 37.9937C20.6414 35.962 19.5 33.2065 19.5 30.3333C19.5 27.4602 20.6414 24.7047 22.673 22.673C24.7047 20.6414 27.4602 19.5 30.3333 19.5C33.2065 19.5 35.962 20.6414 37.9937 22.673C40.0253 24.7047 41.1667 27.4602 41.1667 30.3333Z" fill="#00C974"/>
  </symbol>

  <symbol id="arrowDrop2" xmlns="http://www.w3.org/2000/svg" width="20" height="20" viewBox="0 0 20 20" fill="none">
    <path d="M14 8L10 12L6 8" stroke="black" stroke-linecap="round" stroke-linejoin="round"/>
  </symbol>

  <symbol id="district" xmlns="http://www.w3.org/2000/svg" width="10" height="7" viewBox="0 0 10 7" fill="none">
    <path d="M9.03756 0.115081C9.07718 0.152832 9.10898 0.198019 9.13113 0.248061C9.15329 0.298102 9.16537 0.352019 9.16669 0.406731C9.168 0.461442 9.15853 0.515876 9.1388 0.566925C9.11908 0.617974 9.08949 0.664637 9.05172 0.704248L3.49589 6.53758C3.45698 6.57842 3.41017 6.61094 3.35832 6.63316C3.30646 6.65538 3.25064 6.66683 3.19422 6.66683C3.13781 6.66683 3.08198 6.65538 3.03013 6.63316C2.97828 6.61094 2.93147 6.57842 2.89256 6.53758L0.115058 3.62091C0.0773026 3.5813 0.04772 3.53464 0.0279991 3.48359C0.00827817 3.43254 -0.00119507 3.37811 0.000120424 3.3234C0.00143592 3.26869 0.0135146 3.21477 0.0356662 3.16473C0.0578179 3.11469 0.0896091 3.0695 0.129224 3.03175C0.16884 2.99399 0.215503 2.96441 0.266552 2.94469C0.3176 2.92497 0.372032 2.9155 0.426741 2.91681C0.481451 2.91813 0.535365 2.93021 0.585407 2.95236C0.635448 2.97451 0.680636 3.0063 0.718391 3.04591L3.19422 5.64591L8.44839 0.129248C8.48614 0.0896257 8.53133 0.0578286 8.58137 0.0356726C8.63141 0.0135166 8.68533 0.00143595 8.74004 0.000120405C8.79475 -0.00119514 8.84919 0.00828062 8.90024 0.0280058C8.95128 0.0477311 8.99795 0.0773191 9.03756 0.115081Z" fill="white"/>
  </symbol>

  <symbol id="arrBack" xmlns="http://www.w3.org/2000/svg" width="32" height="21" viewBox="0 0 32 21" fill="none">
    <path d="M1.54038 10.5404C1.28654 10.7942 1.28654 11.2058 1.54038 11.4596L5.67696 15.5962C5.9308 15.85 6.34235 15.85 6.59619 15.5962C6.85004 15.3424 6.85004 14.9308 6.59619 14.677L2.91924 11L6.59619 7.32304C6.85003 7.0692 6.85003 6.65765 6.59619 6.40381C6.34235 6.14996 5.9308 6.14996 5.67695 6.40381L1.54038 10.5404ZM27 11.65C27.359 11.65 27.65 11.359 27.65 11C27.65 10.641 27.359 10.35 27 10.35L27 11L27 11.65ZM2 11L2 11.65L27 11.65L27 11L27 10.35L2 10.35L2 11Z" fill="#00cb62"/>
  </symbol>

  <symbol id="arrBackNews" xmlns="http://www.w3.org/2000/svg" width="14" height="9" viewBox="0 0 14 9" fill="none">
    <path d="M0.175345 3.99411C-0.0589693 4.22843 -0.0589693 4.60833 0.175345 4.84264L3.99372 8.66102C4.22804 8.89533 4.60794 8.89533 4.84225 8.66102C5.07657 8.4267 5.07657 8.0468 4.84225 7.81249L1.44814 4.41838L4.84225 1.02426C5.07656 0.789949 5.07656 0.41005 4.84225 0.175736C4.60794 -0.0585788 4.22804 -0.0585788 3.99372 0.175736L0.175345 3.99411ZM12.5996 5.01838C12.931 5.01838 13.1996 4.74975 13.1996 4.41838C13.1996 4.087 12.931 3.81838 12.5996 3.81838L12.5996 4.41838L12.5996 5.01838ZM0.599609 4.41838L0.599609 5.01838L12.5996 5.01838L12.5996 4.41838L12.5996 3.81838L0.599609 3.81838L0.599609 4.41838Z" fill="white"/>
  </symbol>

  <symbol id="arrRequisites" xmlns="http://www.w3.org/2000/svg" width="14" height="8" viewBox="0 0 14 8" fill="none">
    <path d="M13.7623 0.219806C13.6926 0.150111 13.6099 0.0948234 13.5189 0.0571022C13.4279 0.019381 13.3303 -3.43323e-05 13.2318 -3.43323e-05C13.1333 -3.43323e-05 13.0357 0.019381 12.9447 0.0571022C12.8536 0.0948234 12.7709 0.150111 12.7013 0.219806L6.98129 5.93981L1.26129 0.219806C1.11912 0.0873256 0.93107 0.015202 0.736769 0.01863C0.542468 0.022058 0.357083 0.100771 0.21967 0.238184C0.0822568 0.375597 0.00354506 0.560982 0.000116847 0.755283C-0.00331137 0.949584 0.0688116 1.13763 0.201292 1.27981L6.45129 7.52981C6.59192 7.67026 6.78254 7.74915 6.98129 7.74915C7.18004 7.74915 7.37067 7.67026 7.51129 7.52981L13.7613 1.27981C13.9017 1.13918 13.9806 0.948556 13.9806 0.749805C13.9806 0.551055 13.9027 0.360431 13.7623 0.219806Z" fill="white"/>
  </symbol>

  <symbol id="btCopy" xmlns="http://www.w3.org/2000/svg" width="20" height="20" viewBox="0 0 20 20" fill="none">
    <path fill-rule="evenodd" clip-rule="evenodd" d="M5 2.5C5 1.83696 5.26339 1.20107 5.73223 0.732233C6.20107 0.263392 6.83696 0 7.5 0L17.5 0C18.163 0 18.7989 0.263392 19.2678 0.732233C19.7366 1.20107 20 1.83696 20 2.5V12.5C20 13.163 19.7366 13.7989 19.2678 14.2678C18.7989 14.7366 18.163 15 17.5 15H7.5C6.83696 15 6.20107 14.7366 5.73223 14.2678C5.26339 13.7989 5 13.163 5 12.5V2.5ZM7.5 1.25C7.16848 1.25 6.85054 1.3817 6.61612 1.61612C6.3817 1.85054 6.25 2.16848 6.25 2.5V12.5C6.25 12.8315 6.3817 13.1495 6.61612 13.3839C6.85054 13.6183 7.16848 13.75 7.5 13.75H17.5C17.8315 13.75 18.1495 13.6183 18.3839 13.3839C18.6183 13.1495 18.75 12.8315 18.75 12.5V2.5C18.75 2.16848 18.6183 1.85054 18.3839 1.61612C18.1495 1.3817 17.8315 1.25 17.5 1.25H7.5ZM2.5 6.25C2.16848 6.25 1.85054 6.3817 1.61612 6.61612C1.3817 6.85054 1.25 7.16848 1.25 7.5V17.5C1.25 17.8315 1.3817 18.1495 1.61612 18.3839C1.85054 18.6183 2.16848 18.75 2.5 18.75H12.5C12.8315 18.75 13.1495 18.6183 13.3839 18.3839C13.6183 18.1495 13.75 17.8315 13.75 17.5V16.25H15V17.5C15 18.163 14.7366 18.7989 14.2678 19.2678C13.7989 19.7366 13.163 20 12.5 20H2.5C1.83696 20 1.20107 19.7366 0.732233 19.2678C0.263392 18.7989 0 18.163 0 17.5V7.5C0 6.83696 0.263392 6.20107 0.732233 5.73223C1.20107 5.26339 1.83696 5 2.5 5H3.75V6.25H2.5Z" fill="black"/>
  </symbol>

  <symbol id="tabArrow" xmlns="http://www.w3.org/2000/svg" width="14" height="8" viewBox="0 0 14 8" fill="none">
    <path d="M0.218178 0.219805C0.287829 0.15011 0.370529 0.0948222 0.461554 0.057101C0.55258 0.0193799 0.650145 -3.54976e-05 0.748677 -3.5489e-05C0.847209 -3.54804e-05 0.944776 0.0193799 1.0358 0.0571011C1.12683 0.0948222 1.20953 0.15011 1.27918 0.219805L6.99918 5.9398L12.7192 0.219806C12.8614 0.0873255 13.0494 0.015202 13.2437 0.01863C13.438 0.022058 13.6234 0.100771 13.7608 0.238184C13.8982 0.375597 13.9769 0.560982 13.9804 0.755283C13.9838 0.949584 13.9117 1.13763 13.7792 1.27981L7.52918 7.52981C7.38855 7.67026 7.19793 7.74914 6.99918 7.74914C6.80043 7.74914 6.6098 7.67026 6.46918 7.52981L0.219178 1.2798C0.0787273 1.13918 -0.00016153 0.948555 -0.000161513 0.749804C-0.000161495 0.551054 0.077728 0.36043 0.218178 0.219805Z" fill="white"/>
  </symbol>

  <symbol id="mailto" xmlns="http://www.w3.org/2000/svg" width="32" height="32" viewBox="0 0 32 32" fill="none">
    <path d="M27 10.375L17.1099 16.8179C16.7743 17.0172 16.3931 17.1222 16.005 17.1222C15.6168 17.1222 15.2356 17.0172 14.9 16.8179L5 10.375" stroke="currentColor" stroke-width="1.5" stroke-linecap="round" stroke-linejoin="round"/>
    <path d="M24.8 7H7.2C5.98497 7 5 8.00736 5 9.25V22.75C5 23.9926 5.98497 25 7.2 25H24.8C26.015 25 27 23.9926 27 22.75V9.25C27 8.00736 26.015 7 24.8 7Z" stroke="currentColor" stroke-width="1.5" stroke-linecap="round" stroke-linejoin="round"/>
  </symbol>

  <symbol id="arrowDrop3" xmlns="http://www.w3.org/2000/svg" width="8" height="4" viewBox="0 0 8 4" fill="none">
    <path d="M4.3141 3.87947C4.23076 3.95665 4.11779 4 4 4C3.88221 4 3.76924 3.95665 3.6859 3.87947L0.129992 0.58247C0.0467538 0.505196 0 0.400449 0 0.291235C0 0.182021 0.0467538 0.0772736 0.129992 0H7.87001C7.95325 0.0772736 8 0.182021 8 0.291235C8 0.400449 7.95325 0.505196 7.87001 0.58247L4.3141 3.87947Z" fill="currentColor"/>
  </symbol>

  <symbol id="inputFile" xmlns="http://www.w3.org/2000/svg" width="24" height="24" viewBox="0 0 24 24" fill="none">
    <path d="M6 21H18M12 17V5M12 5L15.5 8.5M12 5L8.5 8.5" stroke="currentColor" stroke-width="1.3" stroke-linecap="round" stroke-linejoin="round"/>
  </symbol>

  <symbol id="readComp" xmlns="http://www.w3.org/2000/svg" width="24" height="24" viewBox="0 0 24 24" fill="none">
    <circle cx="12" cy="12" r="10" fill="#00CB62"/>
    <path d="M16 12H12M12 12H8M12 12V8M12 12V16" stroke="white" stroke-width="1.1" stroke-linecap="round" stroke-linejoin="round"/>
  </symbol>

  <symbol id="tileLink" xmlns="http://www.w3.org/2000/svg" width="24" height="24" viewBox="0 0 24 24" fill="none">
    <g clip-path="url(#clip0_415_689)">
      <circle cx="12.5015" cy="13" r="10" transform="rotate(-45 12.5015 13)" fill="#00CB62"/>
      <path d="M8.61129 16.1821C8.41603 16.3774 8.41603 16.6939 8.61129 16.8892C8.80655 17.0845 9.12313 17.0845 9.3184 16.8892L8.96484 16.5356L8.61129 16.1821ZM16.5359 9.46458C16.5359 9.18843 16.3121 8.96458 16.0359 8.96458L11.5359 8.96458C11.2598 8.96458 11.0359 9.18843 11.0359 9.46458C11.0359 9.74072 11.2598 9.96458 11.5359 9.96458L15.5359 9.96458L15.5359 13.9646C15.5359 14.2407 15.7598 14.4646 16.0359 14.4646C16.3121 14.4646 16.5359 14.2407 16.5359 13.9646L16.5359 9.46458ZM8.96484 16.5356L9.3184 16.8892L16.3895 9.81813L16.0359 9.46458L15.6824 9.11102L8.61129 16.1821L8.96484 16.5356Z" fill="white"/>
    </g>
    <defs>
      <clipPath id="clip0_415_689">
        <rect width="24" height="24" fill="white"/>
      </clipPath>
    </defs>
  </symbol>

  <symbol id="historyClose" xmlns="http://www.w3.org/2000/svg" width="32" height="32" viewBox="0 0 32 32" fill="none">
    <path d="M15.9987 16L9.33203 9.33331M15.9987 16L22.6654 22.6666M15.9987 16L22.6654 9.33331M15.9987 16L9.33203 22.6666" stroke="black" stroke-width="1.3" stroke-linecap="round" stroke-linejoin="round"/>
  </symbol>

  <symbol id="downloadLink" xmlns="http://www.w3.org/2000/svg" width="24" height="24" viewBox="0 0 24 24" fill="none">
    <circle cx="12.5" cy="13" r="10" fill="#00CB62"/>
    <path d="M13 7C13 6.72386 12.7761 6.5 12.5 6.5C12.2239 6.5 12 6.72386 12 7L12.5 7L13 7ZM12.1464 15.3536C12.3417 15.5488 12.6583 15.5488 12.8536 15.3536L16.0355 12.1716C16.2308 11.9763 16.2308 11.6597 16.0355 11.4645C15.8403 11.2692 15.5237 11.2692 15.3284 11.4645L12.5 14.2929L9.67157 11.4645C9.47631 11.2692 9.15973 11.2692 8.96447 11.4645C8.7692 11.6597 8.7692 11.9763 8.96447 12.1716L12.1464 15.3536ZM12.5 7L12 7L12 15L12.5 15L13 15L13 7L12.5 7Z" fill="white"/>
    <line x1="9" y1="17.5" x2="16" y2="17.5" stroke="white" stroke-linecap="round"/>
  </symbol>

  <symbol id="dropDownNav" xmlns="http://www.w3.org/2000/svg" width="8" height="4" viewBox="0 0 8 4" fill="none">
    <path d="M4.3141 3.87947C4.23076 3.95665 4.11779 4 4 4C3.88221 4 3.76924 3.95665 3.6859 3.87947L0.129992 0.58247C0.0467538 0.505196 0 0.400449 0 0.291235C0 0.182021 0.0467538 0.0772736 0.129992 0H7.87001C7.95325 0.0772736 8 0.182021 8 0.291235C8 0.400449 7.95325 0.505196 7.87001 0.58247L4.3141 3.87947Z" fill="white"/>
  </symbol>
</svg>