<svg width="251" height="240" viewBox="0 0 251 240" fill="none" xmlns="http://www.w3.org/2000/svg">
<g opacity="0.3">
<path d="M68.8593 62.9181C30.8293 128.788 53.398 213.015 119.268 251.045C185.138 289.075 269.365 266.506 307.395 200.637C345.425 134.767 322.856 50.5395 256.986 12.5096C191.117 -25.5203 106.889 -2.95167 68.8593 62.9181Z" stroke="#C8C7C7" stroke-width="0.64" stroke-miterlimit="10"/>
<path d="M81.1395 70.0083C43.5537 135.109 60.9841 215.538 120.071 249.652C179.159 283.766 257.527 258.646 295.113 193.546C332.699 128.446 315.269 48.0165 256.181 13.9025C197.094 -20.2115 118.725 4.90791 81.1395 70.0083Z" stroke="#C8C7C7" stroke-width="1.13" stroke-miterlimit="10"/>
<path d="M93.4196 77.0988C56.2781 141.43 68.5702 218.061 120.875 248.259C173.179 278.457 245.69 250.787 282.831 186.456C319.973 122.125 307.681 45.4937 255.376 15.2956C203.072 -14.9025 130.561 12.7677 93.4196 77.0988Z" stroke="#C8C7C7" stroke-width="1.62" stroke-miterlimit="10"/>
<path d="M105.711 84.1942C69.0132 147.756 76.1638 220.587 121.682 246.867C167.2 273.147 233.849 242.924 270.546 179.362C307.243 115.8 300.093 42.9694 254.575 16.6895C209.057 -9.59031 142.408 20.6326 105.711 84.1942Z" stroke="#C8C7C7" stroke-width="2.12" stroke-miterlimit="10"/>
<path d="M117.991 91.2852C81.7375 154.077 83.7499 223.11 122.485 245.474C161.221 267.838 222.011 235.064 258.264 172.272C294.517 109.48 292.505 40.4471 253.77 18.0832C215.034 -4.28078 154.244 28.4929 117.991 91.2852Z" stroke="#C8C7C7" stroke-width="2.61" stroke-miterlimit="10"/>
<path d="M130.271 98.3744C94.4619 160.397 91.3359 225.632 123.289 244.08C155.242 262.528 210.174 227.204 245.983 165.181C281.792 103.158 284.918 37.9231 252.965 19.4751C221.012 1.02702 166.08 36.3515 130.271 98.3744Z" stroke="#C8C7C7" stroke-width="3.11" stroke-miterlimit="10"/>
<path d="M142.551 105.465C107.184 166.722 98.9175 228.162 124.088 242.694C149.258 257.226 198.334 219.348 233.701 158.09C269.068 96.8327 277.334 35.393 252.163 20.8608C226.993 6.32872 177.918 44.2072 142.551 105.465Z" stroke="#C8C7C7" stroke-width="3.6" stroke-miterlimit="10"/>
<path d="M154.842 112.56C119.919 173.048 106.511 230.688 124.895 241.301C143.279 251.915 186.492 211.484 221.415 150.996C256.338 90.5076 269.746 32.8679 251.362 22.254C232.978 11.6402 189.764 52.0714 154.842 112.56Z" stroke="#C8C7C7" stroke-width="4.1" stroke-miterlimit="10"/>
<path d="M167.122 119.65C132.643 179.369 114.097 233.21 125.698 239.908C137.3 246.606 174.655 203.624 209.133 143.906C243.612 84.1866 262.158 30.3451 250.557 23.6472C238.956 16.9492 201.6 59.9312 167.122 119.65Z" stroke="#C8C7C7" stroke-width="4.59" stroke-miterlimit="10"/>
<path d="M179.402 126.739C145.367 185.689 121.683 235.732 126.502 238.514C131.32 241.296 162.817 195.763 196.852 136.814C230.886 77.8642 254.57 27.8209 249.752 25.0388C244.933 22.2568 213.436 67.7895 179.402 126.739Z" stroke="#C8C7C7" stroke-width="5.08" stroke-miterlimit="10"/>
</g>
</svg>
