<svg width="34" height="40" viewBox="0 0 34 40" fill="none" xmlns="http://www.w3.org/2000/svg">
<path d="M0.599985 0.932049L0.848428 0.385902L-1.46627e-05 -5.53131e-05V0.932049H0.599985ZM33.24 15.7801H33.84V15.3938L33.4884 15.2339L33.24 15.7801ZM33.24 23.844L33.4884 24.3902L33.84 24.2303V23.844H33.24ZM0.599985 38.6921H-1.46627e-05V39.6242L0.848428 39.2382L0.599985 38.6921ZM0.599985 27.1721L0.369362 26.6181L-1.46627e-05 26.7719V27.1721H0.599985ZM17.816 20.0041L18.0466 20.558L19.377 20.004L18.0466 19.4501L17.816 20.0041ZM0.599985 12.8361H-1.46627e-05V13.2362L0.369362 13.39L0.599985 12.8361ZM0.599985 0.932049L0.351542 1.4782L32.9915 16.3262L33.24 15.7801L33.4884 15.2339L0.848428 0.385902L0.599985 0.932049ZM33.24 15.7801H32.64V23.844H33.24H33.84V15.7801H33.24ZM33.24 23.844L32.9915 23.2979L0.351542 38.1459L0.599985 38.6921L0.848428 39.2382L33.4884 24.3902L33.24 23.844ZM0.599985 38.6921H1.19999V27.1721H0.599985H-1.46627e-05V38.6921H0.599985ZM0.599985 27.1721L0.830608 27.726L18.0466 20.558L17.816 20.0041L17.5854 19.4501L0.369362 26.6181L0.599985 27.1721ZM17.816 20.0041L18.0466 19.4501L0.830608 12.2821L0.599985 12.8361L0.369362 13.39L17.5854 20.558L17.816 20.0041ZM0.599985 12.8361H1.19999V0.932049H0.599985H-1.46627e-05V12.8361H0.599985Z" fill="#004A97"/>
</svg>
