<svg width="48" height="48" viewBox="0 0 48 48" fill="none" xmlns="http://www.w3.org/2000/svg">
<g clip-path="url(#clip0_309_689)">
<rect width="48" height="48" rx="24" fill="white"/>
<path d="M43.6991 29.7604C41.4035 30.9337 39.6952 33.4404 39.1079 36.5337H38.9477C38.3605 33.5471 36.7589 31.0937 34.5701 29.8671C34.0362 27.6271 33.7159 25.0671 33.7159 23.2537C33.7159 19.5737 34.9972 16.4271 36.8657 14.9871L36.2784 14.1337C33.9828 15.3071 32.2745 17.8137 31.6872 20.9071H31.4737C30.8864 17.8671 29.2315 15.4137 27.0426 14.2404C26.4554 11.9471 26.1351 9.38706 26.1351 7.52039C26.1351 3.84039 27.4163 0.693724 29.2849 -0.746276L28.6976 -1.59961C26.402 -0.426276 24.6936 2.08039 24.1064 5.17372H23.9462C23.359 2.08039 21.5972 -0.479609 19.355 -1.59961L18.7678 -0.746276C20.6363 0.693724 21.9176 3.84039 21.9176 7.52039C21.9176 11.2004 21.5972 11.9471 21.01 14.2404C18.8212 15.4137 17.1662 17.9204 16.579 20.9071H16.3654C15.7782 17.8137 14.0164 15.2537 11.7742 14.1337L11.1869 14.9871C13.0555 16.4271 14.3367 19.5737 14.3367 23.2537C14.3367 26.9337 14.0164 27.6271 13.4826 29.8671C11.3471 31.0937 9.69214 33.5471 9.10489 36.5337H8.94473C8.35748 33.4404 6.59574 30.8804 4.35352 29.7604L3.87305 30.6137C5.74156 32.0537 7.02283 35.2004 7.02283 38.8804C7.02283 40.7471 6.70251 43.3604 6.11527 45.6004H7.39653C8.35748 43.3071 9.0515 40.8004 9.0515 38.8804H9.21166C9.21166 40.8004 9.8523 43.3071 10.8666 45.6004H12.1479C11.5607 43.3071 11.2403 40.7471 11.2403 38.8804C11.2403 33.8671 13.6427 29.8137 16.6323 29.8137C19.622 29.8137 22.0243 33.8671 22.0243 38.8804C22.0243 43.8937 21.704 43.3604 21.1168 45.6004H22.398C23.359 43.3071 24.053 40.8004 24.053 38.8804H24.2132C24.2132 40.8004 24.8538 43.3071 25.8681 45.6004H27.1494C26.5622 43.3071 26.2418 40.7471 26.2418 38.8804C26.2418 33.8671 28.6442 29.8137 31.6338 29.8137C34.6235 29.8137 37.0258 33.8671 37.0258 38.8804C37.0258 43.8937 36.7055 43.3604 36.1183 45.6004H37.3996C38.3605 43.3071 39.0545 40.8004 39.0545 38.8804H39.2147C39.2147 40.8004 39.8553 43.3071 40.8697 45.6004H42.1509C41.5637 43.3071 41.2434 40.7471 41.2434 38.8804C41.2434 35.2004 42.5246 32.0537 44.3931 30.6137L43.8059 29.7604H43.6991ZM31.5805 21.4937C31.5805 21.4937 31.5805 21.5471 31.5805 21.6004C31.5805 21.6004 31.5805 21.5471 31.5805 21.4937ZM23.9996 7.52039H24.1598C24.1598 9.28039 24.6936 11.5204 25.5478 13.6537C25.0673 13.5471 24.5869 13.4937 24.1064 13.4937C23.6259 13.4937 23.1454 13.5471 22.665 13.6537C23.5192 11.5204 24.053 9.28039 24.053 7.52039H23.9996ZM16.579 21.4937C16.579 21.4937 16.579 21.5471 16.579 21.6004C16.579 21.6004 16.579 21.5471 16.579 21.4937ZM16.579 29.0671C16.0985 29.0671 15.5646 29.1204 15.0841 29.2271C15.8849 27.1471 16.4188 24.9604 16.4188 23.2537H16.6323C16.6323 24.9604 17.1662 27.1471 17.967 29.2271C17.4865 29.1204 17.0594 29.0671 16.579 29.0671ZM28.5908 29.8137C26.402 30.9871 24.6936 33.4937 24.1598 36.5337H24.053C23.4658 33.4937 21.8108 31.0404 19.622 29.8137C19.0881 27.5737 18.7678 25.0671 18.7678 23.2537C18.7678 18.2404 21.1702 14.1871 24.1598 14.1871C27.1494 14.1871 29.5518 18.2404 29.5518 23.2537C29.5518 28.2671 29.2315 27.5737 28.6976 29.8137H28.5908ZM31.5271 29.0671C31.0466 29.0671 30.5661 29.1204 30.139 29.2271C30.9398 27.1471 31.4737 24.9604 31.4737 23.2537H31.6872C31.6872 24.9604 32.2211 27.1471 33.0219 29.2271C32.5414 29.1204 32.0609 29.0671 31.5271 29.0671Z" fill="#004A97"/>
<path d="M24.0521 32.9073L25.974 30.0273H22.1836L24.0521 32.9073Z" fill="#004A97"/>
<path d="M11.0814 30.0273H7.29102L9.15953 32.9073L11.0814 30.0273Z" fill="#004A97"/>
<path d="M40.8646 30.0273H37.0742L38.9961 32.9073L40.8646 30.0273Z" fill="#004A97"/>
<path d="M25.9206 -1.33289H22.1836L24.0521 1.60045L25.9206 -1.33289Z" fill="#004A97"/>
<path d="M33.4994 14.4004H29.709L31.5775 17.2804L33.4994 14.4004Z" fill="#004A97"/>
<path d="M18.4467 14.4004H14.6562L16.5248 17.2804L18.4467 14.4004Z" fill="#004A97"/>
<path d="M19.6738 25.0137C19.6738 25.7071 19.834 26.1337 19.9408 26.8804C22.7168 26.7737 25.4929 26.7737 28.269 26.8804C28.3758 26.1337 28.4825 25.7071 28.5359 25.0137C25.5997 24.8537 22.6635 24.8537 19.7272 25.0137H19.6738Z" fill="#004A97"/>
<path d="M34.9408 27.2538C38.0372 27.4671 41.1336 27.8404 44.2299 28.2671V27.5204C41.0802 26.6138 37.877 25.9204 34.6738 25.4404C34.7272 26.0271 34.834 26.6671 34.9408 27.3071V27.2538Z" fill="#004A97"/>
<path d="M13.1622 27.2538C13.269 26.6138 13.3224 26.0271 13.4292 25.3871C10.226 25.8671 7.02283 26.5604 3.87305 27.4671V28.2138C6.96944 27.7871 10.0658 27.4671 13.1622 27.2004V27.2538Z" fill="#004A97"/>
<path d="M27.4154 11.3605C30.4584 11.5205 33.5548 12.0005 36.5444 12.6405V11.8938C33.5548 10.5071 30.405 9.92045 27.1484 9.54712C27.2018 10.2405 27.3086 10.6138 27.4154 11.3071V11.3605Z" fill="#004A97"/>
<path d="M21.0092 9.54712C17.8061 9.86712 14.6029 10.4538 11.6133 11.8938V12.6405C14.6029 11.9471 17.6993 11.5205 20.7423 11.3605C20.8491 10.6671 20.9559 10.2405 21.0092 9.60045V9.54712Z" fill="#004A97"/>
</g>
<rect x="1" y="1" width="46" height="46" rx="23" stroke="#004A97" stroke-width="2"/>
<defs>
<clipPath id="clip0_309_689">
<rect width="48" height="48" rx="24" fill="white"/>
</clipPath>
</defs>
</svg>
